<?xml version="1.0" encoding="utf-8" standalone="no"?>
<!DOCTYPE svg PUBLIC "-//W3C//DTD SVG 1.1//EN"
  "http://www.w3.org/Graphics/SVG/1.1/DTD/svg11.dtd">
<!-- Created with matplotlib (https://matplotlib.org/) -->
<svg height="335.37pt" version="1.1" viewBox="0 0 589.6575 335.37" width="589.6575pt" xmlns="http://www.w3.org/2000/svg" xmlns:xlink="http://www.w3.org/1999/xlink">
 <defs>
  <style type="text/css">
*{stroke-linecap:butt;stroke-linejoin:round;}
  </style>
 </defs>
 <g id="figure_1">
  <g id="patch_1">
   <path d="M 0 335.37 
L 589.6575 335.37 
L 589.6575 0 
L 0 0 
z
" style="fill:none;"/>
  </g>
  <g id="axes_1">
   <g id="patch_2">
    <path d="M 72.5375 286.2 
L 396.5375 286.2 
L 396.5375 7.2 
L 72.5375 7.2 
z
" style="fill:#ffffff;"/>
   </g>
   <g id="PolyCollection_1">
    <defs>
     <path d="M 87.264773 -188.67 
L 87.264773 -188.67 
L 88.744901 -188.67 
L 90.225029 -188.67 
L 91.705156 -188.67 
L 93.185284 -188.67 
L 94.665412 -188.67 
L 96.14554 -188.67 
L 97.625668 -188.67 
L 99.105796 -188.67 
L 100.585924 -188.67 
L 102.066052 -188.67 
L 103.54618 -188.67 
L 105.026308 -188.67 
L 106.506436 -188.67 
L 107.986563 -188.67 
L 109.466691 -188.67 
L 110.946819 -188.67 
L 112.426947 -188.67 
L 113.907075 -188.67 
L 115.387203 -188.67 
L 116.867331 -188.67 
L 118.347459 -188.67 
L 119.827587 -188.67 
L 121.307715 -188.67 
L 122.787843 -188.67 
L 124.267971 -188.67 
L 125.748098 -188.67 
L 127.228226 -188.67 
L 128.708354 -188.67 
L 130.188482 -188.67 
L 131.66861 -188.67 
L 133.148738 -188.67 
L 134.628866 -188.67 
L 136.108994 -188.67 
L 137.589122 -188.67 
L 139.06925 -188.67 
L 140.549378 -188.67 
L 142.029505 -188.67 
L 143.509633 -188.67 
L 144.989761 -188.67 
L 146.469889 -188.67 
L 147.950017 -188.67 
L 149.430145 -188.67 
L 150.910273 -188.67 
L 152.390401 -188.67 
L 153.870529 -188.67 
L 155.350657 -188.67 
L 156.830785 -188.67 
L 158.310913 -188.67 
L 159.79104 -188.67 
L 161.271168 -188.67 
L 162.751296 -188.67 
L 164.231424 -188.67 
L 165.711552 -188.67 
L 167.19168 -188.67 
L 168.671808 -188.67 
L 170.151936 -188.67 
L 171.632064 -188.67 
L 173.112192 -188.67 
L 174.59232 -188.67 
L 176.072447 -188.67 
L 177.552575 -188.67 
L 179.032703 -188.67 
L 180.512831 -188.67 
L 181.992959 -188.67 
L 183.473087 -188.67 
L 184.953215 -188.67 
L 186.433343 -188.67 
L 187.913471 -188.67 
L 189.393599 -188.67 
L 190.873727 -188.67 
L 192.353854 -188.67 
L 193.833982 -188.67 
L 195.31411 -188.67 
L 196.794238 -188.67 
L 198.274366 -188.67 
L 199.754494 -188.67 
L 201.234622 -188.67 
L 202.71475 -188.67 
L 204.194878 -188.67 
L 205.675006 -188.67 
L 207.155134 -188.67 
L 208.635262 -188.67 
L 210.115389 -188.67 
L 211.595517 -188.67 
L 213.075645 -188.67 
L 214.555773 -188.67 
L 216.035901 -188.67 
L 217.516029 -188.67 
L 218.996157 -188.67 
L 220.476285 -188.67 
L 221.956413 -188.67 
L 223.436541 -188.67 
L 224.916669 -188.67 
L 226.396796 -188.67 
L 227.876924 -188.67 
L 229.357052 -188.67 
L 230.83718 -188.67 
L 232.317308 -188.67 
L 233.797436 -188.67 
L 235.277564 -188.67 
L 236.757692 -188.67 
L 238.23782 -188.67 
L 239.717948 -188.67 
L 241.198076 -188.67 
L 242.678204 -188.67 
L 244.158331 -188.67 
L 245.638459 -188.67 
L 247.118587 -188.67 
L 248.598715 -188.67 
L 250.078843 -188.67 
L 251.558971 -188.67 
L 253.039099 -188.67 
L 254.519227 -188.67 
L 255.999355 -188.67 
L 257.479483 -188.67 
L 258.959611 -188.67 
L 260.439738 -188.67 
L 261.919866 -188.67 
L 263.399994 -188.67 
L 264.880122 -188.67 
L 266.36025 -188.67 
L 267.840378 -188.67 
L 269.320506 -188.67 
L 270.800634 -188.67 
L 272.280762 -188.67 
L 273.76089 -188.67 
L 275.241018 -188.67 
L 276.721146 -188.67 
L 278.201273 -188.67 
L 279.681401 -188.67 
L 281.161529 -188.67 
L 282.641657 -188.67 
L 284.121785 -188.67 
L 285.601913 -188.67 
L 287.082041 -188.67 
L 288.562169 -188.67 
L 290.042297 -188.67 
L 291.522425 -188.67 
L 293.002553 -188.67 
L 294.48268 -188.67 
L 295.962808 -188.67 
L 297.442936 -188.67 
L 298.923064 -188.67 
L 300.403192 -188.67 
L 301.88332 -188.67 
L 303.363448 -188.67 
L 304.843576 -188.67 
L 306.323704 -188.67 
L 307.803832 -188.67 
L 309.28396 -188.67 
L 310.764087 -188.67 
L 312.244215 -188.67 
L 313.724343 -188.67 
L 315.204471 -188.67 
L 316.684599 -188.67 
L 318.164727 -188.67 
L 319.644855 -188.67 
L 321.124983 -188.67 
L 322.605111 -188.67 
L 324.085239 -188.67 
L 325.565367 -188.67 
L 327.045495 -188.67 
L 328.525622 -188.67 
L 330.00575 -188.67 
L 331.485878 -188.67 
L 332.966006 -188.67 
L 334.446134 -188.67 
L 335.926262 -188.67 
L 337.40639 -188.67 
L 338.886518 -188.67 
L 340.366646 -188.67 
L 341.846774 -188.67 
L 343.326902 -188.67 
L 344.807029 -188.67 
L 346.287157 -188.67 
L 347.767285 -188.67 
L 349.247413 -188.67 
L 350.727541 -188.67 
L 352.207669 -188.67 
L 353.687797 -188.67 
L 355.167925 -188.67 
L 356.648053 -188.67 
L 358.128181 -188.67 
L 359.608309 -188.67 
L 361.088437 -188.67 
L 362.568564 -188.67 
L 364.048692 -188.67 
L 365.52882 -188.67 
L 367.008948 -188.67 
L 368.489076 -188.67 
L 369.969204 -188.67 
L 371.449332 -188.67 
L 372.92946 -188.67 
L 374.409588 -188.67 
L 375.889716 -188.67 
L 377.369844 -188.67 
L 378.849971 -188.67 
L 380.330099 -188.67 
L 381.810227 -188.67 
L 381.810227 -188.67 
L 381.810227 -188.67 
L 380.330099 -188.67 
L 378.849971 -188.67 
L 377.369844 -188.67 
L 375.889716 -188.67 
L 374.409588 -188.67 
L 372.92946 -188.67 
L 371.449332 -188.67 
L 369.969204 -188.67 
L 368.489076 -188.67 
L 367.008948 -188.67 
L 365.52882 -188.67 
L 364.048692 -188.67 
L 362.568564 -188.67 
L 361.088437 -188.67 
L 359.608309 -188.67 
L 358.128181 -188.67 
L 356.648053 -188.67 
L 355.167925 -188.67 
L 353.687797 -188.67 
L 352.207669 -188.67 
L 350.727541 -188.67 
L 349.247413 -188.67 
L 347.767285 -188.67 
L 346.287157 -188.67 
L 344.807029 -188.67 
L 343.326902 -188.67 
L 341.846774 -188.67 
L 340.366646 -188.67 
L 338.886518 -188.67 
L 337.40639 -188.67 
L 335.926262 -188.67 
L 334.446134 -188.67 
L 332.966006 -188.67 
L 331.485878 -188.67 
L 330.00575 -188.67 
L 328.525622 -188.67 
L 327.045495 -188.67 
L 325.565367 -188.67 
L 324.085239 -188.67 
L 322.605111 -188.67 
L 321.124983 -188.67 
L 319.644855 -188.67 
L 318.164727 -188.67 
L 316.684599 -188.67 
L 315.204471 -188.67 
L 313.724343 -188.67 
L 312.244215 -188.67 
L 310.764087 -188.67 
L 309.28396 -188.67 
L 307.803832 -188.67 
L 306.323704 -188.67 
L 304.843576 -188.67 
L 303.363448 -188.67 
L 301.88332 -188.67 
L 300.403192 -188.67 
L 298.923064 -188.67 
L 297.442936 -188.67 
L 295.962808 -188.67 
L 294.48268 -188.67 
L 293.002553 -188.67 
L 291.522425 -188.67 
L 290.042297 -188.67 
L 288.562169 -188.67 
L 287.082041 -188.67 
L 285.601913 -188.67 
L 284.121785 -188.67 
L 282.641657 -188.67 
L 281.161529 -188.67 
L 279.681401 -188.67 
L 278.201273 -188.67 
L 276.721146 -188.67 
L 275.241018 -188.67 
L 273.76089 -188.67 
L 272.280762 -188.67 
L 270.800634 -188.67 
L 269.320506 -188.67 
L 267.840378 -188.67 
L 266.36025 -188.67 
L 264.880122 -188.67 
L 263.399994 -188.67 
L 261.919866 -188.67 
L 260.439738 -188.67 
L 258.959611 -188.67 
L 257.479483 -188.67 
L 255.999355 -188.67 
L 254.519227 -188.67 
L 253.039099 -188.67 
L 251.558971 -188.67 
L 250.078843 -188.67 
L 248.598715 -188.67 
L 247.118587 -188.67 
L 245.638459 -188.67 
L 244.158331 -188.67 
L 242.678204 -188.67 
L 241.198076 -188.67 
L 239.717948 -188.67 
L 238.23782 -188.67 
L 236.757692 -188.67 
L 235.277564 -188.67 
L 233.797436 -188.67 
L 232.317308 -188.67 
L 230.83718 -188.67 
L 229.357052 -188.67 
L 227.876924 -188.67 
L 226.396796 -188.67 
L 224.916669 -188.67 
L 223.436541 -188.67 
L 221.956413 -188.67 
L 220.476285 -188.67 
L 218.996157 -188.67 
L 217.516029 -188.67 
L 216.035901 -188.67 
L 214.555773 -190.218793 
L 213.075645 -193.503558 
L 211.595517 -196.737609 
L 210.115389 -199.917725 
L 208.635262 -203.040733 
L 207.155134 -206.103523 
L 205.675006 -209.103039 
L 204.194878 -212.036293 
L 202.71475 -214.900361 
L 201.234622 -217.692387 
L 199.754494 -220.409589 
L 198.274366 -223.049257 
L 196.794238 -225.608761 
L 195.31411 -228.085549 
L 193.833982 -230.477152 
L 192.353854 -232.781187 
L 190.873727 -234.995356 
L 189.393599 -237.117453 
L 187.913471 -239.145361 
L 186.433343 -241.07706 
L 184.953215 -242.910624 
L 183.473087 -244.644226 
L 181.992959 -246.276137 
L 180.512831 -247.80473 
L 179.032703 -249.228482 
L 177.552575 -250.545973 
L 176.072447 -251.755891 
L 174.59232 -252.857029 
L 173.112192 -253.848289 
L 171.632064 -254.728684 
L 170.151936 -255.497335 
L 168.671808 -256.153477 
L 167.19168 -256.696456 
L 165.711552 -257.12573 
L 164.231424 -257.440871 
L 162.751296 -257.641565 
L 161.271168 -257.727613 
L 159.79104 -257.698928 
L 158.310913 -257.555539 
L 156.830785 -257.297589 
L 155.350657 -256.925335 
L 153.870529 -256.439148 
L 152.390401 -255.839513 
L 150.910273 -255.127028 
L 149.430145 -254.302402 
L 147.950017 -253.366458 
L 146.469889 -252.320128 
L 144.989761 -251.164457 
L 143.509633 -249.900595 
L 142.029505 -248.529802 
L 140.549378 -247.053446 
L 139.06925 -245.472997 
L 137.589122 -243.790031 
L 136.108994 -242.006226 
L 134.628866 -240.123359 
L 133.148738 -238.143309 
L 131.66861 -236.068048 
L 130.188482 -233.899645 
L 128.708354 -231.640261 
L 127.228226 -229.29215 
L 125.748098 -226.857651 
L 124.267971 -224.339191 
L 122.787843 -221.739281 
L 121.307715 -219.060512 
L 119.827587 -216.305555 
L 118.347459 -213.477156 
L 116.867331 -210.578134 
L 115.387203 -207.611378 
L 113.907075 -204.579848 
L 112.426947 -201.486563 
L 110.946819 -198.334608 
L 109.466691 -195.127125 
L 107.986563 -191.867311 
L 106.506436 -188.67 
L 105.026308 -188.67 
L 103.54618 -188.67 
L 102.066052 -188.67 
L 100.585924 -188.67 
L 99.105796 -188.67 
L 97.625668 -188.67 
L 96.14554 -188.67 
L 94.665412 -188.67 
L 93.185284 -188.67 
L 91.705156 -188.67 
L 90.225029 -188.67 
L 88.744901 -188.67 
L 87.264773 -188.67 
z
" id="m120ffe6f12" style="stroke:#bf00bf;stroke-opacity:0.5;"/>
    </defs>
    <g clip-path="url(#p775887248f)">
     <use style="fill:#bf00bf;fill-opacity:0.5;stroke:#bf00bf;stroke-opacity:0.5;" x="0" xlink:href="#m120ffe6f12" y="335.37"/>
    </g>
   </g>
   <g id="matplotlib.axis_1">
    <g id="xtick_1">
     <g id="line2d_1">
      <path clip-path="url(#p775887248f)" d="M 87.264773 286.2 
L 87.264773 7.2 
" style="fill:none;stroke:#b0b0b0;stroke-linecap:square;stroke-width:0.8;"/>
     </g>
     <g id="line2d_2">
      <defs>
       <path d="M 0 0 
L 0 3.5 
" id="m223723bb34" style="stroke:#000000;stroke-width:0.8;"/>
      </defs>
      <g>
       <use style="stroke:#000000;stroke-width:0.8;" x="87.264773" xlink:href="#m223723bb34" y="286.2"/>
      </g>
     </g>
     <g id="text_1">
      <!-- 0.0 -->
      <defs>
       <path d="M 31.78125 66.40625 
Q 24.171875 66.40625 20.328125 58.90625 
Q 16.5 51.421875 16.5 36.375 
Q 16.5 21.390625 20.328125 13.890625 
Q 24.171875 6.390625 31.78125 6.390625 
Q 39.453125 6.390625 43.28125 13.890625 
Q 47.125 21.390625 47.125 36.375 
Q 47.125 51.421875 43.28125 58.90625 
Q 39.453125 66.40625 31.78125 66.40625 
z
M 31.78125 74.21875 
Q 44.046875 74.21875 50.515625 64.515625 
Q 56.984375 54.828125 56.984375 36.375 
Q 56.984375 17.96875 50.515625 8.265625 
Q 44.046875 -1.421875 31.78125 -1.421875 
Q 19.53125 -1.421875 13.0625 8.265625 
Q 6.59375 17.96875 6.59375 36.375 
Q 6.59375 54.828125 13.0625 64.515625 
Q 19.53125 74.21875 31.78125 74.21875 
z
" id="DejaVuSans-48"/>
       <path d="M 10.6875 12.40625 
L 21 12.40625 
L 21 0 
L 10.6875 0 
z
" id="DejaVuSans-46"/>
      </defs>
      <g transform="translate(74.542273 305.3575)scale(0.16 -0.16)">
       <use xlink:href="#DejaVuSans-48"/>
       <use x="63.623047" xlink:href="#DejaVuSans-46"/>
       <use x="95.410156" xlink:href="#DejaVuSans-48"/>
      </g>
     </g>
    </g>
    <g id="xtick_2">
     <g id="line2d_3">
      <path clip-path="url(#p775887248f)" d="M 146.173864 286.2 
L 146.173864 7.2 
" style="fill:none;stroke:#b0b0b0;stroke-linecap:square;stroke-width:0.8;"/>
     </g>
     <g id="line2d_4">
      <g>
       <use style="stroke:#000000;stroke-width:0.8;" x="146.173864" xlink:href="#m223723bb34" y="286.2"/>
      </g>
     </g>
     <g id="text_2">
      <!-- 0.2 -->
      <defs>
       <path d="M 19.1875 8.296875 
L 53.609375 8.296875 
L 53.609375 0 
L 7.328125 0 
L 7.328125 8.296875 
Q 12.9375 14.109375 22.625 23.890625 
Q 32.328125 33.6875 34.8125 36.53125 
Q 39.546875 41.84375 41.421875 45.53125 
Q 43.3125 49.21875 43.3125 52.78125 
Q 43.3125 58.59375 39.234375 62.25 
Q 35.15625 65.921875 28.609375 65.921875 
Q 23.96875 65.921875 18.8125 64.3125 
Q 13.671875 62.703125 7.8125 59.421875 
L 7.8125 69.390625 
Q 13.765625 71.78125 18.9375 73 
Q 24.125 74.21875 28.421875 74.21875 
Q 39.75 74.21875 46.484375 68.546875 
Q 53.21875 62.890625 53.21875 53.421875 
Q 53.21875 48.921875 51.53125 44.890625 
Q 49.859375 40.875 45.40625 35.40625 
Q 44.1875 33.984375 37.640625 27.21875 
Q 31.109375 20.453125 19.1875 8.296875 
z
" id="DejaVuSans-50"/>
      </defs>
      <g transform="translate(133.451364 305.3575)scale(0.16 -0.16)">
       <use xlink:href="#DejaVuSans-48"/>
       <use x="63.623047" xlink:href="#DejaVuSans-46"/>
       <use x="95.410156" xlink:href="#DejaVuSans-50"/>
      </g>
     </g>
    </g>
    <g id="xtick_3">
     <g id="line2d_5">
      <path clip-path="url(#p775887248f)" d="M 205.082955 286.2 
L 205.082955 7.2 
" style="fill:none;stroke:#b0b0b0;stroke-linecap:square;stroke-width:0.8;"/>
     </g>
     <g id="line2d_6">
      <g>
       <use style="stroke:#000000;stroke-width:0.8;" x="205.082955" xlink:href="#m223723bb34" y="286.2"/>
      </g>
     </g>
     <g id="text_3">
      <!-- 0.4 -->
      <defs>
       <path d="M 37.796875 64.3125 
L 12.890625 25.390625 
L 37.796875 25.390625 
z
M 35.203125 72.90625 
L 47.609375 72.90625 
L 47.609375 25.390625 
L 58.015625 25.390625 
L 58.015625 17.1875 
L 47.609375 17.1875 
L 47.609375 0 
L 37.796875 0 
L 37.796875 17.1875 
L 4.890625 17.1875 
L 4.890625 26.703125 
z
" id="DejaVuSans-52"/>
      </defs>
      <g transform="translate(192.360455 305.3575)scale(0.16 -0.16)">
       <use xlink:href="#DejaVuSans-48"/>
       <use x="63.623047" xlink:href="#DejaVuSans-46"/>
       <use x="95.410156" xlink:href="#DejaVuSans-52"/>
      </g>
     </g>
    </g>
    <g id="xtick_4">
     <g id="line2d_7">
      <path clip-path="url(#p775887248f)" d="M 263.992045 286.2 
L 263.992045 7.2 
" style="fill:none;stroke:#b0b0b0;stroke-linecap:square;stroke-width:0.8;"/>
     </g>
     <g id="line2d_8">
      <g>
       <use style="stroke:#000000;stroke-width:0.8;" x="263.992045" xlink:href="#m223723bb34" y="286.2"/>
      </g>
     </g>
     <g id="text_4">
      <!-- 0.6 -->
      <defs>
       <path d="M 33.015625 40.375 
Q 26.375 40.375 22.484375 35.828125 
Q 18.609375 31.296875 18.609375 23.390625 
Q 18.609375 15.53125 22.484375 10.953125 
Q 26.375 6.390625 33.015625 6.390625 
Q 39.65625 6.390625 43.53125 10.953125 
Q 47.40625 15.53125 47.40625 23.390625 
Q 47.40625 31.296875 43.53125 35.828125 
Q 39.65625 40.375 33.015625 40.375 
z
M 52.59375 71.296875 
L 52.59375 62.3125 
Q 48.875 64.0625 45.09375 64.984375 
Q 41.3125 65.921875 37.59375 65.921875 
Q 27.828125 65.921875 22.671875 59.328125 
Q 17.53125 52.734375 16.796875 39.40625 
Q 19.671875 43.65625 24.015625 45.921875 
Q 28.375 48.1875 33.59375 48.1875 
Q 44.578125 48.1875 50.953125 41.515625 
Q 57.328125 34.859375 57.328125 23.390625 
Q 57.328125 12.15625 50.6875 5.359375 
Q 44.046875 -1.421875 33.015625 -1.421875 
Q 20.359375 -1.421875 13.671875 8.265625 
Q 6.984375 17.96875 6.984375 36.375 
Q 6.984375 53.65625 15.1875 63.9375 
Q 23.390625 74.21875 37.203125 74.21875 
Q 40.921875 74.21875 44.703125 73.484375 
Q 48.484375 72.75 52.59375 71.296875 
z
" id="DejaVuSans-54"/>
      </defs>
      <g transform="translate(251.269545 305.3575)scale(0.16 -0.16)">
       <use xlink:href="#DejaVuSans-48"/>
       <use x="63.623047" xlink:href="#DejaVuSans-46"/>
       <use x="95.410156" xlink:href="#DejaVuSans-54"/>
      </g>
     </g>
    </g>
    <g id="xtick_5">
     <g id="line2d_9">
      <path clip-path="url(#p775887248f)" d="M 322.901136 286.2 
L 322.901136 7.2 
" style="fill:none;stroke:#b0b0b0;stroke-linecap:square;stroke-width:0.8;"/>
     </g>
     <g id="line2d_10">
      <g>
       <use style="stroke:#000000;stroke-width:0.8;" x="322.901136" xlink:href="#m223723bb34" y="286.2"/>
      </g>
     </g>
     <g id="text_5">
      <!-- 0.8 -->
      <defs>
       <path d="M 31.78125 34.625 
Q 24.75 34.625 20.71875 30.859375 
Q 16.703125 27.09375 16.703125 20.515625 
Q 16.703125 13.921875 20.71875 10.15625 
Q 24.75 6.390625 31.78125 6.390625 
Q 38.8125 6.390625 42.859375 10.171875 
Q 46.921875 13.96875 46.921875 20.515625 
Q 46.921875 27.09375 42.890625 30.859375 
Q 38.875 34.625 31.78125 34.625 
z
M 21.921875 38.8125 
Q 15.578125 40.375 12.03125 44.71875 
Q 8.5 49.078125 8.5 55.328125 
Q 8.5 64.0625 14.71875 69.140625 
Q 20.953125 74.21875 31.78125 74.21875 
Q 42.671875 74.21875 48.875 69.140625 
Q 55.078125 64.0625 55.078125 55.328125 
Q 55.078125 49.078125 51.53125 44.71875 
Q 48 40.375 41.703125 38.8125 
Q 48.828125 37.15625 52.796875 32.3125 
Q 56.78125 27.484375 56.78125 20.515625 
Q 56.78125 9.90625 50.3125 4.234375 
Q 43.84375 -1.421875 31.78125 -1.421875 
Q 19.734375 -1.421875 13.25 4.234375 
Q 6.78125 9.90625 6.78125 20.515625 
Q 6.78125 27.484375 10.78125 32.3125 
Q 14.796875 37.15625 21.921875 38.8125 
z
M 18.3125 54.390625 
Q 18.3125 48.734375 21.84375 45.5625 
Q 25.390625 42.390625 31.78125 42.390625 
Q 38.140625 42.390625 41.71875 45.5625 
Q 45.3125 48.734375 45.3125 54.390625 
Q 45.3125 60.0625 41.71875 63.234375 
Q 38.140625 66.40625 31.78125 66.40625 
Q 25.390625 66.40625 21.84375 63.234375 
Q 18.3125 60.0625 18.3125 54.390625 
z
" id="DejaVuSans-56"/>
      </defs>
      <g transform="translate(310.178636 305.3575)scale(0.16 -0.16)">
       <use xlink:href="#DejaVuSans-48"/>
       <use x="63.623047" xlink:href="#DejaVuSans-46"/>
       <use x="95.410156" xlink:href="#DejaVuSans-56"/>
      </g>
     </g>
    </g>
    <g id="xtick_6">
     <g id="line2d_11">
      <path clip-path="url(#p775887248f)" d="M 381.810227 286.2 
L 381.810227 7.2 
" style="fill:none;stroke:#b0b0b0;stroke-linecap:square;stroke-width:0.8;"/>
     </g>
     <g id="line2d_12">
      <g>
       <use style="stroke:#000000;stroke-width:0.8;" x="381.810227" xlink:href="#m223723bb34" y="286.2"/>
      </g>
     </g>
     <g id="text_6">
      <!-- 1.0 -->
      <defs>
       <path d="M 12.40625 8.296875 
L 28.515625 8.296875 
L 28.515625 63.921875 
L 10.984375 60.40625 
L 10.984375 69.390625 
L 28.421875 72.90625 
L 38.28125 72.90625 
L 38.28125 8.296875 
L 54.390625 8.296875 
L 54.390625 0 
L 12.40625 0 
z
" id="DejaVuSans-49"/>
      </defs>
      <g transform="translate(369.087727 305.3575)scale(0.16 -0.16)">
       <use xlink:href="#DejaVuSans-49"/>
       <use x="63.623047" xlink:href="#DejaVuSans-46"/>
       <use x="95.410156" xlink:href="#DejaVuSans-48"/>
      </g>
     </g>
    </g>
    <g id="text_7">
     <!-- Tempo (s) -->
     <defs>
      <path d="M -0.296875 72.90625 
L 61.375 72.90625 
L 61.375 64.59375 
L 35.5 64.59375 
L 35.5 0 
L 25.59375 0 
L 25.59375 64.59375 
L -0.296875 64.59375 
z
" id="DejaVuSans-84"/>
      <path d="M 56.203125 29.59375 
L 56.203125 25.203125 
L 14.890625 25.203125 
Q 15.484375 15.921875 20.484375 11.0625 
Q 25.484375 6.203125 34.421875 6.203125 
Q 39.59375 6.203125 44.453125 7.46875 
Q 49.3125 8.734375 54.109375 11.28125 
L 54.109375 2.78125 
Q 49.265625 0.734375 44.1875 -0.34375 
Q 39.109375 -1.421875 33.890625 -1.421875 
Q 20.796875 -1.421875 13.15625 6.1875 
Q 5.515625 13.8125 5.515625 26.8125 
Q 5.515625 40.234375 12.765625 48.109375 
Q 20.015625 56 32.328125 56 
Q 43.359375 56 49.78125 48.890625 
Q 56.203125 41.796875 56.203125 29.59375 
z
M 47.21875 32.234375 
Q 47.125 39.59375 43.09375 43.984375 
Q 39.0625 48.390625 32.421875 48.390625 
Q 24.90625 48.390625 20.390625 44.140625 
Q 15.875 39.890625 15.1875 32.171875 
z
" id="DejaVuSans-101"/>
      <path d="M 52 44.1875 
Q 55.375 50.25 60.0625 53.125 
Q 64.75 56 71.09375 56 
Q 79.640625 56 84.28125 50.015625 
Q 88.921875 44.046875 88.921875 33.015625 
L 88.921875 0 
L 79.890625 0 
L 79.890625 32.71875 
Q 79.890625 40.578125 77.09375 44.375 
Q 74.3125 48.1875 68.609375 48.1875 
Q 61.625 48.1875 57.5625 43.546875 
Q 53.515625 38.921875 53.515625 30.90625 
L 53.515625 0 
L 44.484375 0 
L 44.484375 32.71875 
Q 44.484375 40.625 41.703125 44.40625 
Q 38.921875 48.1875 33.109375 48.1875 
Q 26.21875 48.1875 22.15625 43.53125 
Q 18.109375 38.875 18.109375 30.90625 
L 18.109375 0 
L 9.078125 0 
L 9.078125 54.6875 
L 18.109375 54.6875 
L 18.109375 46.1875 
Q 21.1875 51.21875 25.484375 53.609375 
Q 29.78125 56 35.6875 56 
Q 41.65625 56 45.828125 52.96875 
Q 50 49.953125 52 44.1875 
z
" id="DejaVuSans-109"/>
      <path d="M 18.109375 8.203125 
L 18.109375 -20.796875 
L 9.078125 -20.796875 
L 9.078125 54.6875 
L 18.109375 54.6875 
L 18.109375 46.390625 
Q 20.953125 51.265625 25.265625 53.625 
Q 29.59375 56 35.59375 56 
Q 45.5625 56 51.78125 48.09375 
Q 58.015625 40.1875 58.015625 27.296875 
Q 58.015625 14.40625 51.78125 6.484375 
Q 45.5625 -1.421875 35.59375 -1.421875 
Q 29.59375 -1.421875 25.265625 0.953125 
Q 20.953125 3.328125 18.109375 8.203125 
z
M 48.6875 27.296875 
Q 48.6875 37.203125 44.609375 42.84375 
Q 40.53125 48.484375 33.40625 48.484375 
Q 26.265625 48.484375 22.1875 42.84375 
Q 18.109375 37.203125 18.109375 27.296875 
Q 18.109375 17.390625 22.1875 11.75 
Q 26.265625 6.109375 33.40625 6.109375 
Q 40.53125 6.109375 44.609375 11.75 
Q 48.6875 17.390625 48.6875 27.296875 
z
" id="DejaVuSans-112"/>
      <path d="M 30.609375 48.390625 
Q 23.390625 48.390625 19.1875 42.75 
Q 14.984375 37.109375 14.984375 27.296875 
Q 14.984375 17.484375 19.15625 11.84375 
Q 23.34375 6.203125 30.609375 6.203125 
Q 37.796875 6.203125 41.984375 11.859375 
Q 46.1875 17.53125 46.1875 27.296875 
Q 46.1875 37.015625 41.984375 42.703125 
Q 37.796875 48.390625 30.609375 48.390625 
z
M 30.609375 56 
Q 42.328125 56 49.015625 48.375 
Q 55.71875 40.765625 55.71875 27.296875 
Q 55.71875 13.875 49.015625 6.21875 
Q 42.328125 -1.421875 30.609375 -1.421875 
Q 18.84375 -1.421875 12.171875 6.21875 
Q 5.515625 13.875 5.515625 27.296875 
Q 5.515625 40.765625 12.171875 48.375 
Q 18.84375 56 30.609375 56 
z
" id="DejaVuSans-111"/>
      <path id="DejaVuSans-32"/>
      <path d="M 31 75.875 
Q 24.46875 64.65625 21.28125 53.65625 
Q 18.109375 42.671875 18.109375 31.390625 
Q 18.109375 20.125 21.3125 9.0625 
Q 24.515625 -2 31 -13.1875 
L 23.1875 -13.1875 
Q 15.875 -1.703125 12.234375 9.375 
Q 8.59375 20.453125 8.59375 31.390625 
Q 8.59375 42.28125 12.203125 53.3125 
Q 15.828125 64.359375 23.1875 75.875 
z
" id="DejaVuSans-40"/>
      <path d="M 44.28125 53.078125 
L 44.28125 44.578125 
Q 40.484375 46.53125 36.375 47.5 
Q 32.28125 48.484375 27.875 48.484375 
Q 21.1875 48.484375 17.84375 46.4375 
Q 14.5 44.390625 14.5 40.28125 
Q 14.5 37.15625 16.890625 35.375 
Q 19.28125 33.59375 26.515625 31.984375 
L 29.59375 31.296875 
Q 39.15625 29.25 43.1875 25.515625 
Q 47.21875 21.78125 47.21875 15.09375 
Q 47.21875 7.46875 41.1875 3.015625 
Q 35.15625 -1.421875 24.609375 -1.421875 
Q 20.21875 -1.421875 15.453125 -0.5625 
Q 10.6875 0.296875 5.421875 2 
L 5.421875 11.28125 
Q 10.40625 8.6875 15.234375 7.390625 
Q 20.0625 6.109375 24.8125 6.109375 
Q 31.15625 6.109375 34.5625 8.28125 
Q 37.984375 10.453125 37.984375 14.40625 
Q 37.984375 18.0625 35.515625 20.015625 
Q 33.0625 21.96875 24.703125 23.78125 
L 21.578125 24.515625 
Q 13.234375 26.265625 9.515625 29.90625 
Q 5.8125 33.546875 5.8125 39.890625 
Q 5.8125 47.609375 11.28125 51.796875 
Q 16.75 56 26.8125 56 
Q 31.78125 56 36.171875 55.265625 
Q 40.578125 54.546875 44.28125 53.078125 
z
" id="DejaVuSans-115"/>
      <path d="M 8.015625 75.875 
L 15.828125 75.875 
Q 23.140625 64.359375 26.78125 53.3125 
Q 30.421875 42.28125 30.421875 31.390625 
Q 30.421875 20.453125 26.78125 9.375 
Q 23.140625 -1.703125 15.828125 -13.1875 
L 8.015625 -13.1875 
Q 14.5 -2 17.703125 9.0625 
Q 20.90625 20.125 20.90625 31.390625 
Q 20.90625 42.671875 17.703125 53.65625 
Q 14.5 64.65625 8.015625 75.875 
z
" id="DejaVuSans-41"/>
     </defs>
     <g transform="translate(195.37 324.8425)scale(0.16 -0.16)">
      <use xlink:href="#DejaVuSans-84"/>
      <use x="44.083984" xlink:href="#DejaVuSans-101"/>
      <use x="105.607422" xlink:href="#DejaVuSans-109"/>
      <use x="203.019531" xlink:href="#DejaVuSans-112"/>
      <use x="266.496094" xlink:href="#DejaVuSans-111"/>
      <use x="327.677734" xlink:href="#DejaVuSans-32"/>
      <use x="359.464844" xlink:href="#DejaVuSans-40"/>
      <use x="398.478516" xlink:href="#DejaVuSans-115"/>
      <use x="450.578125" xlink:href="#DejaVuSans-41"/>
     </g>
    </g>
   </g>
   <g id="matplotlib.axis_2">
    <g id="ytick_1">
     <g id="line2d_13">
      <path clip-path="url(#p775887248f)" d="M 72.5375 262.953018 
L 396.5375 262.953018 
" style="fill:none;stroke:#b0b0b0;stroke-linecap:square;stroke-width:0.8;"/>
     </g>
     <g id="line2d_14">
      <defs>
       <path d="M 0 0 
L -3.5 0 
" id="m684ae02b88" style="stroke:#000000;stroke-width:0.8;"/>
      </defs>
      <g>
       <use style="stroke:#000000;stroke-width:0.8;" x="72.5375" xlink:href="#m684ae02b88" y="262.953018"/>
      </g>
     </g>
     <g id="text_8">
      <!-- −1.5 -->
      <defs>
       <path d="M 10.59375 35.5 
L 73.1875 35.5 
L 73.1875 27.203125 
L 10.59375 27.203125 
z
" id="DejaVuSans-8722"/>
       <path d="M 10.796875 72.90625 
L 49.515625 72.90625 
L 49.515625 64.59375 
L 19.828125 64.59375 
L 19.828125 46.734375 
Q 21.96875 47.46875 24.109375 47.828125 
Q 26.265625 48.1875 28.421875 48.1875 
Q 40.625 48.1875 47.75 41.5 
Q 54.890625 34.8125 54.890625 23.390625 
Q 54.890625 11.625 47.5625 5.09375 
Q 40.234375 -1.421875 26.90625 -1.421875 
Q 22.3125 -1.421875 17.546875 -0.640625 
Q 12.796875 0.140625 7.71875 1.703125 
L 7.71875 11.625 
Q 12.109375 9.234375 16.796875 8.0625 
Q 21.484375 6.890625 26.703125 6.890625 
Q 35.15625 6.890625 40.078125 11.328125 
Q 45.015625 15.765625 45.015625 23.390625 
Q 45.015625 31 40.078125 35.4375 
Q 35.15625 39.890625 26.703125 39.890625 
Q 22.75 39.890625 18.8125 39.015625 
Q 14.890625 38.140625 10.796875 36.28125 
z
" id="DejaVuSans-53"/>
      </defs>
      <g transform="translate(26.685 269.031768)scale(0.16 -0.16)">
       <use xlink:href="#DejaVuSans-8722"/>
       <use x="83.789062" xlink:href="#DejaVuSans-49"/>
       <use x="147.412109" xlink:href="#DejaVuSans-46"/>
       <use x="179.199219" xlink:href="#DejaVuSans-53"/>
      </g>
     </g>
    </g>
    <g id="ytick_2">
     <g id="line2d_15">
      <path clip-path="url(#p775887248f)" d="M 72.5375 224.202012 
L 396.5375 224.202012 
" style="fill:none;stroke:#b0b0b0;stroke-linecap:square;stroke-width:0.8;"/>
     </g>
     <g id="line2d_16">
      <g>
       <use style="stroke:#000000;stroke-width:0.8;" x="72.5375" xlink:href="#m684ae02b88" y="224.202012"/>
      </g>
     </g>
     <g id="text_9">
      <!-- −1.0 -->
      <g transform="translate(26.685 230.280762)scale(0.16 -0.16)">
       <use xlink:href="#DejaVuSans-8722"/>
       <use x="83.789062" xlink:href="#DejaVuSans-49"/>
       <use x="147.412109" xlink:href="#DejaVuSans-46"/>
       <use x="179.199219" xlink:href="#DejaVuSans-48"/>
      </g>
     </g>
    </g>
    <g id="ytick_3">
     <g id="line2d_17">
      <path clip-path="url(#p775887248f)" d="M 72.5375 185.451006 
L 396.5375 185.451006 
" style="fill:none;stroke:#b0b0b0;stroke-linecap:square;stroke-width:0.8;"/>
     </g>
     <g id="line2d_18">
      <g>
       <use style="stroke:#000000;stroke-width:0.8;" x="72.5375" xlink:href="#m684ae02b88" y="185.451006"/>
      </g>
     </g>
     <g id="text_10">
      <!-- −0.5 -->
      <g transform="translate(26.685 191.529756)scale(0.16 -0.16)">
       <use xlink:href="#DejaVuSans-8722"/>
       <use x="83.789062" xlink:href="#DejaVuSans-48"/>
       <use x="147.412109" xlink:href="#DejaVuSans-46"/>
       <use x="179.199219" xlink:href="#DejaVuSans-53"/>
      </g>
     </g>
    </g>
    <g id="ytick_4">
     <g id="line2d_19">
      <path clip-path="url(#p775887248f)" d="M 72.5375 146.7 
L 396.5375 146.7 
" style="fill:none;stroke:#b0b0b0;stroke-linecap:square;stroke-width:0.8;"/>
     </g>
     <g id="line2d_20">
      <g>
       <use style="stroke:#000000;stroke-width:0.8;" x="72.5375" xlink:href="#m684ae02b88" y="146.7"/>
      </g>
     </g>
     <g id="text_11">
      <!-- 0.0 -->
      <g transform="translate(40.0925 152.77875)scale(0.16 -0.16)">
       <use xlink:href="#DejaVuSans-48"/>
       <use x="63.623047" xlink:href="#DejaVuSans-46"/>
       <use x="95.410156" xlink:href="#DejaVuSans-48"/>
      </g>
     </g>
    </g>
    <g id="ytick_5">
     <g id="line2d_21">
      <path clip-path="url(#p775887248f)" d="M 72.5375 107.948994 
L 396.5375 107.948994 
" style="fill:none;stroke:#b0b0b0;stroke-linecap:square;stroke-width:0.8;"/>
     </g>
     <g id="line2d_22">
      <g>
       <use style="stroke:#000000;stroke-width:0.8;" x="72.5375" xlink:href="#m684ae02b88" y="107.948994"/>
      </g>
     </g>
     <g id="text_12">
      <!-- 0.5 -->
      <g transform="translate(40.0925 114.027744)scale(0.16 -0.16)">
       <use xlink:href="#DejaVuSans-48"/>
       <use x="63.623047" xlink:href="#DejaVuSans-46"/>
       <use x="95.410156" xlink:href="#DejaVuSans-53"/>
      </g>
     </g>
    </g>
    <g id="ytick_6">
     <g id="line2d_23">
      <path clip-path="url(#p775887248f)" d="M 72.5375 69.197988 
L 396.5375 69.197988 
" style="fill:none;stroke:#b0b0b0;stroke-linecap:square;stroke-width:0.8;"/>
     </g>
     <g id="line2d_24">
      <g>
       <use style="stroke:#000000;stroke-width:0.8;" x="72.5375" xlink:href="#m684ae02b88" y="69.197988"/>
      </g>
     </g>
     <g id="text_13">
      <!-- 1.0 -->
      <g transform="translate(40.0925 75.276738)scale(0.16 -0.16)">
       <use xlink:href="#DejaVuSans-49"/>
       <use x="63.623047" xlink:href="#DejaVuSans-46"/>
       <use x="95.410156" xlink:href="#DejaVuSans-48"/>
      </g>
     </g>
    </g>
    <g id="ytick_7">
     <g id="line2d_25">
      <path clip-path="url(#p775887248f)" d="M 72.5375 30.446982 
L 396.5375 30.446982 
" style="fill:none;stroke:#b0b0b0;stroke-linecap:square;stroke-width:0.8;"/>
     </g>
     <g id="line2d_26">
      <g>
       <use style="stroke:#000000;stroke-width:0.8;" x="72.5375" xlink:href="#m684ae02b88" y="30.446982"/>
      </g>
     </g>
     <g id="text_14">
      <!-- 1.5 -->
      <g transform="translate(40.0925 36.525732)scale(0.16 -0.16)">
       <use xlink:href="#DejaVuSans-49"/>
       <use x="63.623047" xlink:href="#DejaVuSans-46"/>
       <use x="95.410156" xlink:href="#DejaVuSans-53"/>
      </g>
     </g>
    </g>
    <g id="text_15">
     <!-- Tensão (V) -->
     <defs>
      <path d="M 54.890625 33.015625 
L 54.890625 0 
L 45.90625 0 
L 45.90625 32.71875 
Q 45.90625 40.484375 42.875 44.328125 
Q 39.84375 48.1875 33.796875 48.1875 
Q 26.515625 48.1875 22.3125 43.546875 
Q 18.109375 38.921875 18.109375 30.90625 
L 18.109375 0 
L 9.078125 0 
L 9.078125 54.6875 
L 18.109375 54.6875 
L 18.109375 46.1875 
Q 21.34375 51.125 25.703125 53.5625 
Q 30.078125 56 35.796875 56 
Q 45.21875 56 50.046875 50.171875 
Q 54.890625 44.34375 54.890625 33.015625 
z
" id="DejaVuSans-110"/>
      <path d="M 34.28125 27.484375 
Q 23.390625 27.484375 19.1875 25 
Q 14.984375 22.515625 14.984375 16.5 
Q 14.984375 11.71875 18.140625 8.90625 
Q 21.296875 6.109375 26.703125 6.109375 
Q 34.1875 6.109375 38.703125 11.40625 
Q 43.21875 16.703125 43.21875 25.484375 
L 43.21875 27.484375 
z
M 52.203125 31.203125 
L 52.203125 0 
L 43.21875 0 
L 43.21875 8.296875 
Q 40.140625 3.328125 35.546875 0.953125 
Q 30.953125 -1.421875 24.3125 -1.421875 
Q 15.921875 -1.421875 10.953125 3.296875 
Q 6 8.015625 6 15.921875 
Q 6 25.140625 12.171875 29.828125 
Q 18.359375 34.515625 30.609375 34.515625 
L 43.21875 34.515625 
L 43.21875 35.40625 
Q 43.21875 41.609375 39.140625 45 
Q 35.0625 48.390625 27.6875 48.390625 
Q 23 48.390625 18.546875 47.265625 
Q 14.109375 46.140625 10.015625 43.890625 
L 10.015625 52.203125 
Q 14.9375 54.109375 19.578125 55.046875 
Q 24.21875 56 28.609375 56 
Q 40.484375 56 46.34375 49.84375 
Q 52.203125 43.703125 52.203125 31.203125 
z
M 28.8125 66.890625 
L 26.015625 69.578125 
Q 24.953125 70.5625 24.140625 71.015625 
Q 23.34375 71.484375 22.703125 71.484375 
Q 20.84375 71.484375 19.96875 69.703125 
Q 19.09375 67.921875 18.984375 63.921875 
L 12.890625 63.921875 
Q 12.984375 70.515625 15.46875 74.09375 
Q 17.96875 77.6875 22.40625 77.6875 
Q 24.265625 77.6875 25.828125 77 
Q 27.390625 76.3125 29.203125 74.703125 
L 31.984375 72.015625 
Q 33.046875 71.046875 33.859375 70.578125 
Q 34.671875 70.125 35.296875 70.125 
Q 37.15625 70.125 38.03125 71.90625 
Q 38.90625 73.6875 39.015625 77.6875 
L 45.109375 77.6875 
Q 45.015625 71.09375 42.515625 67.5 
Q 40.03125 63.921875 35.59375 63.921875 
Q 33.734375 63.921875 32.171875 64.59375 
Q 30.609375 65.28125 28.8125 66.890625 
z
" id="DejaVuSans-227"/>
      <path d="M 28.609375 0 
L 0.78125 72.90625 
L 11.078125 72.90625 
L 34.1875 11.53125 
L 57.328125 72.90625 
L 67.578125 72.90625 
L 39.796875 0 
z
" id="DejaVuSans-86"/>
     </defs>
     <g transform="translate(19.3575 188.44125)rotate(-90)scale(0.16 -0.16)">
      <use xlink:href="#DejaVuSans-84"/>
      <use x="44.083984" xlink:href="#DejaVuSans-101"/>
      <use x="105.607422" xlink:href="#DejaVuSans-110"/>
      <use x="168.986328" xlink:href="#DejaVuSans-115"/>
      <use x="221.085938" xlink:href="#DejaVuSans-227"/>
      <use x="282.365234" xlink:href="#DejaVuSans-111"/>
      <use x="343.546875" xlink:href="#DejaVuSans-32"/>
      <use x="375.333984" xlink:href="#DejaVuSans-40"/>
      <use x="414.347656" xlink:href="#DejaVuSans-86"/>
      <use x="482.755859" xlink:href="#DejaVuSans-41"/>
     </g>
    </g>
   </g>
   <g id="line2d_27">
    <path clip-path="url(#p775887248f)" d="M 87.264773 146.7 
L 97.625668 121.21483 
L 103.54618 107.130809 
L 109.466691 93.677096 
L 113.907075 84.129847 
L 118.347459 75.143566 
L 122.787843 66.798819 
L 125.748098 61.629266 
L 128.708354 56.798829 
L 131.66861 52.326765 
L 134.628866 48.2309 
L 137.589122 44.527562 
L 140.549378 41.231513 
L 143.509633 38.355892 
L 146.469889 35.912163 
L 149.430145 33.910067 
L 152.390401 32.357584 
L 155.350657 31.260904 
L 156.830785 30.884928 
L 158.310913 30.624398 
L 159.79104 30.479575 
L 161.271168 30.450604 
L 162.751296 30.537512 
L 164.231424 30.740213 
L 165.711552 31.058506 
L 168.671808 32.040481 
L 171.632064 33.479522 
L 174.59232 35.369894 
L 177.552575 37.70406 
L 180.512831 40.472716 
L 183.473087 43.664825 
L 186.433343 47.267662 
L 189.393599 51.266866 
L 192.353854 55.646494 
L 195.31411 60.389088 
L 198.274366 65.475743 
L 201.234622 70.886182 
L 205.675006 79.561423 
L 210.115389 88.838591 
L 214.555773 98.634512 
L 220.476285 112.35032 
L 227.876924 130.238047 
L 248.598715 181.04968 
L 254.519227 194.765488 
L 258.959611 204.561409 
L 263.399994 213.838577 
L 267.840378 222.513818 
L 270.800634 227.924257 
L 273.76089 233.010912 
L 276.721146 237.753506 
L 279.681401 242.133134 
L 282.641657 246.132338 
L 285.601913 249.735175 
L 288.562169 252.927284 
L 291.522425 255.69594 
L 294.48268 258.030106 
L 297.442936 259.920478 
L 300.403192 261.359519 
L 303.363448 262.341494 
L 304.843576 262.659787 
L 306.323704 262.862488 
L 307.803832 262.949396 
L 309.28396 262.920425 
L 310.764087 262.775602 
L 312.244215 262.515072 
L 313.724343 262.139096 
L 316.684599 261.042416 
L 319.644855 259.489933 
L 322.605111 257.487837 
L 325.565367 255.044108 
L 328.525622 252.168487 
L 331.485878 248.872438 
L 334.446134 245.1691 
L 337.40639 241.073235 
L 340.366646 236.601171 
L 343.326902 231.770734 
L 346.287157 226.601181 
L 350.727541 218.256434 
L 355.167925 209.270153 
L 359.608309 199.722904 
L 364.048692 189.700281 
L 369.969204 175.753136 
L 377.369844 157.695188 
L 381.810227 146.7 
L 381.810227 146.7 
" style="fill:none;stroke:#1f77b4;stroke-dasharray:14.8,6.4;stroke-dashoffset:0;stroke-opacity:0.8;stroke-width:4;"/>
   </g>
   <g id="line2d_28">
    <path clip-path="url(#p775887248f)" d="M 87.264773 146.7 
L 106.506436 146.7 
L 115.387203 127.758622 
L 119.827587 119.064445 
L 124.267971 111.030809 
L 127.228226 106.07785 
L 130.188482 101.470355 
L 133.148738 97.226691 
L 136.108994 93.363774 
L 139.06925 89.897003 
L 142.029505 86.840198 
L 144.989761 84.205543 
L 147.950017 82.003542 
L 150.910273 80.242972 
L 153.870529 78.930852 
L 156.830785 78.072411 
L 158.310913 77.814461 
L 159.79104 77.671072 
L 161.271168 77.642387 
L 162.751296 77.728435 
L 164.231424 77.929129 
L 165.711552 78.24427 
L 168.671808 79.216523 
L 171.632064 80.641316 
L 174.59232 82.512971 
L 177.552575 84.824027 
L 180.512831 87.56527 
L 183.473087 90.725774 
L 186.433343 94.29294 
L 189.393599 98.252547 
L 192.353854 102.588813 
L 195.31411 107.284451 
L 198.274366 112.320743 
L 201.234622 117.677613 
L 205.675006 126.266961 
L 210.115389 135.452275 
L 214.555773 145.151207 
L 216.035901 146.7 
L 381.810227 146.7 
L 381.810227 146.7 
" style="fill:none;stroke:#bf00bf;stroke-linecap:square;stroke-width:4;"/>
   </g>
   <g id="line2d_29">
    <path clip-path="url(#p775887248f)" d="M 72.5375 130.193527 
L 396.5375 130.193527 
" style="fill:none;stroke:#ff0000;stroke-dasharray:14.8,6.4;stroke-dashoffset:0;stroke-opacity:0.7;stroke-width:4;"/>
   </g>
   <g id="line2d_30">
    <path clip-path="url(#p775887248f)" d="M 72.5375 146.7 
L 396.5375 146.7 
" style="fill:none;stroke:#000000;stroke-linecap:square;"/>
   </g>
   <g id="line2d_31">
    <path clip-path="url(#p775887248f)" d="M 106.55601 286.2 
L 106.55601 7.2 
" style="fill:none;stroke:#ff0000;stroke-dasharray:4,6.6;stroke-dashoffset:0;stroke-width:4;"/>
   </g>
   <g id="line2d_32">
    <path clip-path="url(#p775887248f)" d="M 215.246263 286.2 
L 215.246263 7.2 
" style="fill:none;stroke:#000000;stroke-dasharray:4,6.6;stroke-dashoffset:0;stroke-width:4;"/>
   </g>
   <g id="patch_3">
    <path d="M 72.5375 286.2 
L 72.5375 7.2 
" style="fill:none;stroke:#000000;stroke-linecap:square;stroke-linejoin:miter;stroke-width:0.8;"/>
   </g>
   <g id="patch_4">
    <path d="M 396.5375 286.2 
L 396.5375 7.2 
" style="fill:none;stroke:#000000;stroke-linecap:square;stroke-linejoin:miter;stroke-width:0.8;"/>
   </g>
   <g id="patch_5">
    <path d="M 72.5375 286.2 
L 396.5375 286.2 
" style="fill:none;stroke:#000000;stroke-linecap:square;stroke-linejoin:miter;stroke-width:0.8;"/>
   </g>
   <g id="patch_6">
    <path d="M 72.5375 7.2 
L 396.5375 7.2 
" style="fill:none;stroke:#000000;stroke-linecap:square;stroke-linejoin:miter;stroke-width:0.8;"/>
   </g>
   <g id="legend_1">
    <g id="patch_7">
     <path d="M 407.7375 215.945 
L 579.2575 215.945 
Q 582.4575 215.945 582.4575 212.745 
L 582.4575 80.655 
Q 582.4575 77.455 579.2575 77.455 
L 407.7375 77.455 
Q 404.5375 77.455 404.5375 80.655 
L 404.5375 212.745 
Q 404.5375 215.945 407.7375 215.945 
z
" style="fill:#ffffff;opacity:0.8;stroke:#cccccc;stroke-linejoin:miter;"/>
    </g>
    <g id="line2d_33">
     <path d="M 410.9375 90.4125 
L 442.9375 90.4125 
" style="fill:none;stroke:#1f77b4;stroke-dasharray:14.8,6.4;stroke-dashoffset:0;stroke-opacity:0.8;stroke-width:4;"/>
    </g>
    <g id="line2d_34"/>
    <g id="text_16">
     <!-- $V_{in}(t)$ -->
     <defs>
      <path d="M 9.421875 54.6875 
L 18.40625 54.6875 
L 18.40625 0 
L 9.421875 0 
z
M 9.421875 75.984375 
L 18.40625 75.984375 
L 18.40625 64.59375 
L 9.421875 64.59375 
z
" id="DejaVuSans-105"/>
      <path d="M 18.3125 70.21875 
L 18.3125 54.6875 
L 36.8125 54.6875 
L 36.8125 47.703125 
L 18.3125 47.703125 
L 18.3125 18.015625 
Q 18.3125 11.328125 20.140625 9.421875 
Q 21.96875 7.515625 27.59375 7.515625 
L 36.8125 7.515625 
L 36.8125 0 
L 27.59375 0 
Q 17.1875 0 13.234375 3.875 
Q 9.28125 7.765625 9.28125 18.015625 
L 9.28125 47.703125 
L 2.6875 47.703125 
L 2.6875 54.6875 
L 9.28125 54.6875 
L 9.28125 70.21875 
z
" id="DejaVuSans-116"/>
     </defs>
     <g transform="translate(455.7375 96.0125)scale(0.16 -0.16)">
      <use transform="translate(0 0.125)" xlink:href="#DejaVuSans-86"/>
      <use transform="translate(69.365234 -16.28125)scale(0.7)" xlink:href="#DejaVuSans-105"/>
      <use transform="translate(88.813477 -16.28125)scale(0.7)" xlink:href="#DejaVuSans-110"/>
      <use transform="translate(135.913086 0.125)" xlink:href="#DejaVuSans-40"/>
      <use transform="translate(174.926758 0.125)" xlink:href="#DejaVuSans-116"/>
      <use transform="translate(214.135742 0.125)" xlink:href="#DejaVuSans-41"/>
     </g>
    </g>
    <g id="line2d_35">
     <path d="M 410.9375 113.8975 
L 442.9375 113.8975 
" style="fill:none;stroke:#bf00bf;stroke-linecap:square;stroke-width:4;"/>
    </g>
    <g id="line2d_36"/>
    <g id="text_17">
     <!-- $V_{out}(t)$ -->
     <defs>
      <path d="M 8.5 21.578125 
L 8.5 54.6875 
L 17.484375 54.6875 
L 17.484375 21.921875 
Q 17.484375 14.15625 20.5 10.265625 
Q 23.53125 6.390625 29.59375 6.390625 
Q 36.859375 6.390625 41.078125 11.03125 
Q 45.3125 15.671875 45.3125 23.6875 
L 45.3125 54.6875 
L 54.296875 54.6875 
L 54.296875 0 
L 45.3125 0 
L 45.3125 8.40625 
Q 42.046875 3.421875 37.71875 1 
Q 33.40625 -1.421875 27.6875 -1.421875 
Q 18.265625 -1.421875 13.375 4.4375 
Q 8.5 10.296875 8.5 21.578125 
z
M 31.109375 56 
z
" id="DejaVuSans-117"/>
     </defs>
     <g transform="translate(455.7375 119.4975)scale(0.16 -0.16)">
      <use transform="translate(0 0.125)" xlink:href="#DejaVuSans-86"/>
      <use transform="translate(69.365234 -16.28125)scale(0.7)" xlink:href="#DejaVuSans-111"/>
      <use transform="translate(112.192383 -16.28125)scale(0.7)" xlink:href="#DejaVuSans-117"/>
      <use transform="translate(156.557617 -16.28125)scale(0.7)" xlink:href="#DejaVuSans-116"/>
      <use transform="translate(186.738281 0.125)" xlink:href="#DejaVuSans-40"/>
      <use transform="translate(225.751953 0.125)" xlink:href="#DejaVuSans-116"/>
      <use transform="translate(264.960938 0.125)" xlink:href="#DejaVuSans-41"/>
     </g>
    </g>
    <g id="line2d_37">
     <path d="M 410.9375 139.465 
L 442.9375 139.465 
" style="fill:none;stroke:#ff0000;stroke-dasharray:14.8,6.4;stroke-dashoffset:0;stroke-opacity:0.7;stroke-width:4;"/>
    </g>
    <g id="line2d_38"/>
    <g id="text_18">
     <!-- $V^{out}_{dc}$ -->
     <defs>
      <path d="M 45.40625 46.390625 
L 45.40625 75.984375 
L 54.390625 75.984375 
L 54.390625 0 
L 45.40625 0 
L 45.40625 8.203125 
Q 42.578125 3.328125 38.25 0.953125 
Q 33.9375 -1.421875 27.875 -1.421875 
Q 17.96875 -1.421875 11.734375 6.484375 
Q 5.515625 14.40625 5.515625 27.296875 
Q 5.515625 40.1875 11.734375 48.09375 
Q 17.96875 56 27.875 56 
Q 33.9375 56 38.25 53.625 
Q 42.578125 51.265625 45.40625 46.390625 
z
M 14.796875 27.296875 
Q 14.796875 17.390625 18.875 11.75 
Q 22.953125 6.109375 30.078125 6.109375 
Q 37.203125 6.109375 41.296875 11.75 
Q 45.40625 17.390625 45.40625 27.296875 
Q 45.40625 37.203125 41.296875 42.84375 
Q 37.203125 48.484375 30.078125 48.484375 
Q 22.953125 48.484375 18.875 42.84375 
Q 14.796875 37.203125 14.796875 27.296875 
z
" id="DejaVuSans-100"/>
      <path d="M 48.78125 52.59375 
L 48.78125 44.1875 
Q 44.96875 46.296875 41.140625 47.34375 
Q 37.3125 48.390625 33.40625 48.390625 
Q 24.65625 48.390625 19.8125 42.84375 
Q 14.984375 37.3125 14.984375 27.296875 
Q 14.984375 17.28125 19.8125 11.734375 
Q 24.65625 6.203125 33.40625 6.203125 
Q 37.3125 6.203125 41.140625 7.25 
Q 44.96875 8.296875 48.78125 10.40625 
L 48.78125 2.09375 
Q 45.015625 0.34375 40.984375 -0.53125 
Q 36.96875 -1.421875 32.421875 -1.421875 
Q 20.0625 -1.421875 12.78125 6.34375 
Q 5.515625 14.109375 5.515625 27.296875 
Q 5.515625 40.671875 12.859375 48.328125 
Q 20.21875 56 33.015625 56 
Q 37.15625 56 41.109375 55.140625 
Q 45.0625 54.296875 48.78125 52.59375 
z
" id="DejaVuSans-99"/>
     </defs>
     <g transform="translate(455.7375 145.065)scale(0.16 -0.16)">
      <use transform="translate(0 0.50625)" xlink:href="#DejaVuSans-86"/>
      <use transform="translate(69.365234 39.846875)scale(0.7)" xlink:href="#DejaVuSans-111"/>
      <use transform="translate(112.192383 39.846875)scale(0.7)" xlink:href="#DejaVuSans-117"/>
      <use transform="translate(156.557617 39.846875)scale(0.7)" xlink:href="#DejaVuSans-116"/>
      <use transform="translate(69.365234 -26.8375)scale(0.7)" xlink:href="#DejaVuSans-100"/>
      <use transform="translate(113.798828 -26.8375)scale(0.7)" xlink:href="#DejaVuSans-99"/>
     </g>
    </g>
    <g id="line2d_39">
     <path d="M 410.9375 169.705 
L 442.9375 169.705 
" style="fill:none;stroke:#ff0000;stroke-dasharray:4,6.6;stroke-dashoffset:0;stroke-width:4;"/>
    </g>
    <g id="line2d_40"/>
    <g id="text_19">
     <!-- $t_1=\frac{\arcsin(V_c/V_0)}{\omega}$ -->
     <defs>
      <path d="M 10.59375 45.40625 
L 73.1875 45.40625 
L 73.1875 37.203125 
L 10.59375 37.203125 
z
M 10.59375 25.484375 
L 73.1875 25.484375 
L 73.1875 17.1875 
L 10.59375 17.1875 
z
" id="DejaVuSans-61"/>
      <path d="M 39.09375 0 
L 30.59375 0 
L 30.09375 4.40625 
Q 24.09375 -1 15.203125 -1 
Q 9.796875 -1 6.640625 1.796875 
Q 3.5 4.59375 3.5 10.09375 
Q 3.5 17.296875 9.84375 22 
Q 16.203125 26.703125 30.203125 29.40625 
L 30.203125 32.703125 
Q 30.203125 35.59375 27.84375 37.390625 
Q 25.5 39.203125 21.703125 39.203125 
Q 14.09375 39.203125 10.90625 30.203125 
L 9.40625 30.203125 
L 4.5 33.296875 
Q 5.796875 40.09375 10.59375 43.1875 
Q 15.40625 46.296875 21.90625 46.296875 
Q 29.296875 46.296875 33.6875 42.640625 
Q 38.09375 39 38.09375 32.59375 
L 38.09375 7.59375 
Q 38.09375 4.703125 39.09375 0 
z
M 30.203125 13.203125 
L 30.203125 22.203125 
Q 21.59375 20.796875 16.40625 17.90625 
Q 11.40625 15.296875 11.40625 11.203125 
Q 11.40625 6.09375 17.203125 6.09375 
Q 23.90625 6.09375 30.203125 13.203125 
z
" id="STIXGeneral-Regular-120250"/>
      <path d="M 32.796875 37.703125 
L 30.796875 37.703125 
Q 29.796875 39.203125 26.90625 39.203125 
Q 22.59375 39.203125 19.25 35 
Q 15.90625 30.796875 14.203125 23.40625 
L 14.203125 0 
L 6.296875 0 
L 6.296875 44 
L 13.296875 46.40625 
L 14.203125 45.90625 
L 14.40625 39.5 
Q 19.203125 46.296875 27.09375 46.296875 
Q 30.796875 46.296875 32.796875 44.703125 
z
" id="STIXGeneral-Regular-120267"/>
      <path d="M 36.703125 16.59375 
L 43.203125 13.203125 
Q 40 5.90625 34.703125 2.40625 
Q 29.796875 -1 23.203125 -1 
Q 15.796875 -1 10.703125 3 
Q 2.296875 9.5 2.296875 21.59375 
Q 2.296875 32.5 8.546875 39.390625 
Q 14.796875 46.296875 24.203125 46.296875 
Q 29.703125 46.296875 34.203125 44 
Q 38.703125 41.703125 41.09375 37.09375 
L 36.703125 31.703125 
L 35.09375 31.703125 
Q 31.90625 39.203125 23.796875 39.203125 
Q 18.09375 39.203125 14.140625 34.703125 
Q 10.203125 30.203125 10.203125 22.203125 
Q 10.203125 14.796875 14.09375 10.4375 
Q 18 6.09375 23.796875 6.09375 
Q 31.90625 6.09375 36.703125 16.59375 
z
" id="STIXGeneral-Regular-120252"/>
      <path d="M 33 32.09375 
L 31.5 32.09375 
Q 28.703125 36.5 25.890625 37.890625 
Q 23.09375 39.296875 19.203125 39.296875 
Q 16 39.296875 14.390625 37.6875 
Q 12.796875 36.09375 12.796875 34.203125 
Q 12.796875 31.703125 14.890625 29.953125 
Q 17 28.203125 21.203125 26.5 
Q 29.5 23 32.25 20.09375 
Q 35 17.203125 35 11.796875 
Q 35 5.203125 28.90625 1.40625 
Q 25.09375 -1 18.90625 -1 
Q 14.40625 -1 11.34375 0.296875 
Q 8.296875 1.59375 5 4.5 
L 5 14.796875 
L 6.5 14.796875 
Q 10.40625 6.09375 19.5 6.09375 
Q 22.703125 6.09375 24.890625 7.546875 
Q 27.09375 9 27.09375 11.796875 
Q 27.09375 13.796875 25.25 15.25 
Q 23.40625 16.703125 18.5 18.90625 
Q 10.90625 22.296875 7.90625 25.59375 
Q 4.90625 28.90625 4.90625 33.796875 
Q 4.90625 39 8.90625 42.640625 
Q 12.90625 46.296875 19.40625 46.296875 
Q 28 46.296875 33 41 
z
" id="STIXGeneral-Regular-120268"/>
      <path d="M 15.59375 58.59375 
L 6.40625 58.59375 
L 6.40625 67.90625 
L 15.59375 67.90625 
z
M 15.203125 0 
L 6.90625 0 
L 6.90625 44 
L 14.296875 46.40625 
L 15.203125 45.90625 
z
" id="STIXGeneral-Regular-120258"/>
      <path d="M 42.40625 0 
L 34.5 0 
L 34.5 30.40625 
Q 34.5 39.203125 26.296875 39.203125 
Q 23.40625 39.203125 19.5 36.703125 
Q 15.59375 34.203125 14.203125 30.203125 
L 14.203125 0 
L 6.296875 0 
L 6.296875 44 
L 12.796875 46.40625 
L 13.703125 45.90625 
L 13.90625 40.203125 
Q 17.59375 43.796875 21.046875 45.046875 
Q 24.5 46.296875 29 46.296875 
Q 31.90625 46.296875 34.90625 44.9375 
Q 37.90625 43.59375 39.703125 41.796875 
Q 42.40625 38.203125 42.40625 32.09375 
z
" id="STIXGeneral-Regular-120263"/>
      <path d="M 25.390625 72.90625 
L 33.6875 72.90625 
L 8.296875 -9.28125 
L 0 -9.28125 
z
" id="DejaVuSans-47"/>
      <path d="M 26.859375 -1.421875 
Q 6.59375 -1.421875 6.59375 27.59375 
Q 6.59375 39.0625 14.15625 54.6875 
L 23.828125 54.6875 
Q 16.84375 39.0625 16.84375 27.34375 
Q 16.84375 6.203125 27.6875 6.203125 
Q 37.59375 6.203125 37.59375 32.46875 
L 45.90625 32.46875 
Q 45.90625 6.203125 55.8125 6.203125 
Q 66.65625 6.203125 66.65625 27.34375 
Q 66.65625 39.0625 59.671875 54.6875 
L 69.34375 54.6875 
Q 76.90625 39.0625 76.90625 27.59375 
Q 76.90625 -1.421875 56.640625 -1.421875 
Q 43.359375 -1.421875 41.75 13.1875 
Q 39.75 -1.421875 26.859375 -1.421875 
z
" id="DejaVuSans-969"/>
     </defs>
     <g transform="translate(455.7375 175.305)scale(0.16 -0.16)">
      <use transform="translate(0 0.909531)" xlink:href="#DejaVuSans-116"/>
      <use transform="translate(40.166016 -15.496719)scale(0.7)" xlink:href="#DejaVuSans-49"/>
      <use transform="translate(106.918945 0.909531)" xlink:href="#DejaVuSans-61"/>
      <use transform="translate(210.19043 56.8875)scale(0.7)" xlink:href="#STIXGeneral-Regular-120250"/>
      <use transform="translate(241.550421 56.8875)scale(0.7)" xlink:href="#STIXGeneral-Regular-120267"/>
      <use transform="translate(265.070415 56.8875)scale(0.7)" xlink:href="#STIXGeneral-Regular-120252"/>
      <use transform="translate(296.990408 56.8875)scale(0.7)" xlink:href="#STIXGeneral-Regular-120268"/>
      <use transform="translate(324.220404 56.8875)scale(0.7)" xlink:href="#STIXGeneral-Regular-120258"/>
      <use transform="translate(339.620393 56.8875)scale(0.7)" xlink:href="#STIXGeneral-Regular-120263"/>
      <use transform="translate(373.710391 56.8875)scale(0.7)" xlink:href="#DejaVuSans-40"/>
      <use transform="translate(401.019962 56.8875)scale(0.7)" xlink:href="#DejaVuSans-86"/>
      <use transform="translate(449.575626 45.403125)scale(0.49)" xlink:href="#DejaVuSans-99"/>
      <use transform="translate(478.430118 56.8875)scale(0.7)" xlink:href="#DejaVuSans-47"/>
      <use transform="translate(502.014102 56.8875)scale(0.7)" xlink:href="#DejaVuSans-86"/>
      <use transform="translate(550.569766 45.403125)scale(0.49)" xlink:href="#DejaVuSans-48"/>
      <use transform="translate(583.659122 56.8875)scale(0.7)" xlink:href="#DejaVuSans-41"/>
      <use transform="translate(381.19043 -24.824844)scale(0.7)" xlink:href="#DejaVuSans-969"/>
      <path d="M 210.19043 19.706406 
L 210.19043 25.956406 
L 610.968692 25.956406 
L 610.968692 19.706406 
L 210.19043 19.706406 
z
"/>
     </g>
    </g>
    <g id="line2d_41">
     <path d="M 410.9375 199.625 
L 442.9375 199.625 
" style="fill:none;stroke:#000000;stroke-dasharray:4,6.6;stroke-dashoffset:0;stroke-width:4;"/>
    </g>
    <g id="line2d_42"/>
    <g id="text_20">
     <!-- $t_2=\frac{\pi-\arcsin(V_c/V_0)}{\omega}$ -->
     <defs>
      <path d="M 3.609375 54.6875 
L 56 54.6875 
L 56 45.703125 
L 49.125 45.703125 
L 49.125 12.109375 
Q 49.125 8.59375 50.3125 7.046875 
Q 51.515625 5.515625 54.203125 5.515625 
Q 54.9375 5.515625 56 5.640625 
Q 57.078125 5.765625 57.421875 5.8125 
L 57.421875 -0.6875 
Q 55.71875 -1.3125 53.90625 -1.609375 
Q 52.09375 -1.90625 50.296875 -1.90625 
Q 44.4375 -1.90625 42.1875 1.296875 
Q 39.9375 4.5 39.9375 13.09375 
L 39.9375 45.703125 
L 19.78125 45.703125 
L 19.78125 0 
L 10.59375 0 
L 10.59375 45.703125 
L 3.609375 45.703125 
z
" id="DejaVuSans-960"/>
     </defs>
     <g transform="translate(455.7375 205.225)scale(0.16 -0.16)">
      <use transform="translate(0 0.909531)" xlink:href="#DejaVuSans-116"/>
      <use transform="translate(40.166016 -15.496719)scale(0.7)" xlink:href="#DejaVuSans-50"/>
      <use transform="translate(106.918945 0.909531)" xlink:href="#DejaVuSans-61"/>
      <use transform="translate(210.19043 56.8875)scale(0.7)" xlink:href="#DejaVuSans-960"/>
      <use transform="translate(265.97168 56.8875)scale(0.7)" xlink:href="#DejaVuSans-8722"/>
      <use transform="translate(338.261719 56.8875)scale(0.7)" xlink:href="#STIXGeneral-Regular-120250"/>
      <use transform="translate(369.62171 56.8875)scale(0.7)" xlink:href="#STIXGeneral-Regular-120267"/>
      <use transform="translate(393.141704 56.8875)scale(0.7)" xlink:href="#STIXGeneral-Regular-120252"/>
      <use transform="translate(425.061697 56.8875)scale(0.7)" xlink:href="#STIXGeneral-Regular-120268"/>
      <use transform="translate(452.291693 56.8875)scale(0.7)" xlink:href="#STIXGeneral-Regular-120258"/>
      <use transform="translate(467.691682 56.8875)scale(0.7)" xlink:href="#STIXGeneral-Regular-120263"/>
      <use transform="translate(501.78168 56.8875)scale(0.7)" xlink:href="#DejaVuSans-40"/>
      <use transform="translate(529.091251 56.8875)scale(0.7)" xlink:href="#DejaVuSans-86"/>
      <use transform="translate(577.646915 45.403125)scale(0.49)" xlink:href="#DejaVuSans-99"/>
      <use transform="translate(606.501407 56.8875)scale(0.7)" xlink:href="#DejaVuSans-47"/>
      <use transform="translate(630.085391 56.8875)scale(0.7)" xlink:href="#DejaVuSans-86"/>
      <use transform="translate(678.641055 45.403125)scale(0.49)" xlink:href="#DejaVuSans-48"/>
      <use transform="translate(711.730411 56.8875)scale(0.7)" xlink:href="#DejaVuSans-41"/>
      <use transform="translate(445.19043 -24.824844)scale(0.7)" xlink:href="#DejaVuSans-969"/>
      <path d="M 210.19043 19.706406 
L 210.19043 25.956406 
L 739.039981 25.956406 
L 739.039981 19.706406 
L 210.19043 19.706406 
z
"/>
     </g>
    </g>
   </g>
  </g>
 </g>
 <defs>
  <clipPath id="p775887248f">
   <rect height="279" width="324" x="72.5375" y="7.2"/>
  </clipPath>
 </defs>
</svg>
