<?xml version="1.0" encoding="utf-8" standalone="no"?>
<!DOCTYPE svg PUBLIC "-//W3C//DTD SVG 1.1//EN"
  "http://www.w3.org/Graphics/SVG/1.1/DTD/svg11.dtd">
<!-- Created with matplotlib (https://matplotlib.org/) -->
<svg height="732.49pt" version="1.1" viewBox="0 0 998.45 732.49" width="998.45pt" xmlns="http://www.w3.org/2000/svg" xmlns:xlink="http://www.w3.org/1999/xlink">
 <metadata>
  <rdf:RDF xmlns:cc="http://creativecommons.org/ns#" xmlns:dc="http://purl.org/dc/elements/1.1/" xmlns:rdf="http://www.w3.org/1999/02/22-rdf-syntax-ns#">
   <cc:Work>
    <dc:type rdf:resource="http://purl.org/dc/dcmitype/StillImage"/>
    <dc:date>2021-04-05T11:07:24.580271</dc:date>
    <dc:format>image/svg+xml</dc:format>
    <dc:creator>
     <cc:Agent>
      <dc:title>Matplotlib v3.3.2, https://matplotlib.org/</dc:title>
     </cc:Agent>
    </dc:creator>
   </cc:Work>
  </rdf:RDF>
 </metadata>
 <defs>
  <style type="text/css">*{stroke-linecap:butt;stroke-linejoin:round;}</style>
 </defs>
 <g id="figure_1">
  <g id="patch_1">
   <path d="M 0 732.49 
L 998.45 732.49 
L 998.45 -0 
L 0 -0 
z
" style="fill:none;"/>
  </g>
  <g id="axes_1">
   <g id="patch_2">
    <path d="M 69.31 365.501008 
L 519.89 365.501008 
L 519.89 75.16 
L 69.31 75.16 
z
" style="fill:#ffffff;"/>
   </g>
   <g id="line2d_1">
    <path clip-path="url(#pb74f0e67c3)" d="M 388.470346 365.501008 
L 388.470346 75.16 
" style="fill:none;stroke:#0000ff;stroke-dasharray:14.8,6.4;stroke-dashoffset:0;stroke-opacity:0.7;stroke-width:4;"/>
   </g>
   <g id="matplotlib.axis_1">
    <g id="xtick_1">
     <g id="line2d_2">
      <path clip-path="url(#pb74f0e67c3)" d="M 106.853459 365.501008 
L 106.853459 75.16 
" style="fill:none;stroke:#b0b0b0;stroke-linecap:square;stroke-width:0.8;"/>
     </g>
     <g id="line2d_3">
      <defs>
       <path d="M 0 0 
L 0 3.5 
" id="m3921b44002" style="stroke:#000000;stroke-width:0.8;"/>
      </defs>
      <g>
       <use style="stroke:#000000;stroke-width:0.8;" x="106.853459" xlink:href="#m3921b44002" y="365.501008"/>
      </g>
     </g>
    </g>
    <g id="xtick_2">
     <g id="line2d_4">
      <path clip-path="url(#pb74f0e67c3)" d="M 169.43564 365.501008 
L 169.43564 75.16 
" style="fill:none;stroke:#b0b0b0;stroke-linecap:square;stroke-width:0.8;"/>
     </g>
     <g id="line2d_5">
      <g>
       <use style="stroke:#000000;stroke-width:0.8;" x="169.43564" xlink:href="#m3921b44002" y="365.501008"/>
      </g>
     </g>
    </g>
    <g id="xtick_3">
     <g id="line2d_6">
      <path clip-path="url(#pb74f0e67c3)" d="M 232.01782 365.501008 
L 232.01782 75.16 
" style="fill:none;stroke:#b0b0b0;stroke-linecap:square;stroke-width:0.8;"/>
     </g>
     <g id="line2d_7">
      <g>
       <use style="stroke:#000000;stroke-width:0.8;" x="232.01782" xlink:href="#m3921b44002" y="365.501008"/>
      </g>
     </g>
    </g>
    <g id="xtick_4">
     <g id="line2d_8">
      <path clip-path="url(#pb74f0e67c3)" d="M 294.6 365.501008 
L 294.6 75.16 
" style="fill:none;stroke:#b0b0b0;stroke-linecap:square;stroke-width:0.8;"/>
     </g>
     <g id="line2d_9">
      <g>
       <use style="stroke:#000000;stroke-width:0.8;" x="294.6" xlink:href="#m3921b44002" y="365.501008"/>
      </g>
     </g>
    </g>
    <g id="xtick_5">
     <g id="line2d_10">
      <path clip-path="url(#pb74f0e67c3)" d="M 357.18218 365.501008 
L 357.18218 75.16 
" style="fill:none;stroke:#b0b0b0;stroke-linecap:square;stroke-width:0.8;"/>
     </g>
     <g id="line2d_11">
      <g>
       <use style="stroke:#000000;stroke-width:0.8;" x="357.18218" xlink:href="#m3921b44002" y="365.501008"/>
      </g>
     </g>
    </g>
    <g id="xtick_6">
     <g id="line2d_12">
      <path clip-path="url(#pb74f0e67c3)" d="M 419.76436 365.501008 
L 419.76436 75.16 
" style="fill:none;stroke:#b0b0b0;stroke-linecap:square;stroke-width:0.8;"/>
     </g>
     <g id="line2d_13">
      <g>
       <use style="stroke:#000000;stroke-width:0.8;" x="419.76436" xlink:href="#m3921b44002" y="365.501008"/>
      </g>
     </g>
    </g>
    <g id="xtick_7">
     <g id="line2d_14">
      <path clip-path="url(#pb74f0e67c3)" d="M 482.346541 365.501008 
L 482.346541 75.16 
" style="fill:none;stroke:#b0b0b0;stroke-linecap:square;stroke-width:0.8;"/>
     </g>
     <g id="line2d_15">
      <g>
       <use style="stroke:#000000;stroke-width:0.8;" x="482.346541" xlink:href="#m3921b44002" y="365.501008"/>
      </g>
     </g>
    </g>
   </g>
   <g id="matplotlib.axis_2">
    <g id="ytick_1">
     <g id="line2d_16">
      <path clip-path="url(#pb74f0e67c3)" d="M 69.31 336.470525 
L 519.89 336.470525 
" style="fill:none;stroke:#b0b0b0;stroke-linecap:square;stroke-width:0.8;"/>
     </g>
     <g id="line2d_17">
      <defs>
       <path d="M 0 0 
L -3.5 0 
" id="mbfa992543a" style="stroke:#000000;stroke-width:0.8;"/>
      </defs>
      <g>
       <use style="stroke:#000000;stroke-width:0.8;" x="69.31" xlink:href="#mbfa992543a" y="336.470525"/>
      </g>
     </g>
     <g id="text_1">
      <!-- −6 -->
      <g transform="translate(38.7225 342.549275)scale(0.16 -0.16)">
       <defs>
        <path d="M 10.59375 35.5 
L 73.1875 35.5 
L 73.1875 27.203125 
L 10.59375 27.203125 
z
" id="DejaVuSans-8722"/>
        <path d="M 33.015625 40.375 
Q 26.375 40.375 22.484375 35.828125 
Q 18.609375 31.296875 18.609375 23.390625 
Q 18.609375 15.53125 22.484375 10.953125 
Q 26.375 6.390625 33.015625 6.390625 
Q 39.65625 6.390625 43.53125 10.953125 
Q 47.40625 15.53125 47.40625 23.390625 
Q 47.40625 31.296875 43.53125 35.828125 
Q 39.65625 40.375 33.015625 40.375 
z
M 52.59375 71.296875 
L 52.59375 62.3125 
Q 48.875 64.0625 45.09375 64.984375 
Q 41.3125 65.921875 37.59375 65.921875 
Q 27.828125 65.921875 22.671875 59.328125 
Q 17.53125 52.734375 16.796875 39.40625 
Q 19.671875 43.65625 24.015625 45.921875 
Q 28.375 48.1875 33.59375 48.1875 
Q 44.578125 48.1875 50.953125 41.515625 
Q 57.328125 34.859375 57.328125 23.390625 
Q 57.328125 12.15625 50.6875 5.359375 
Q 44.046875 -1.421875 33.015625 -1.421875 
Q 20.359375 -1.421875 13.671875 8.265625 
Q 6.984375 17.96875 6.984375 36.375 
Q 6.984375 53.65625 15.1875 63.9375 
Q 23.390625 74.21875 37.203125 74.21875 
Q 40.921875 74.21875 44.703125 73.484375 
Q 48.484375 72.75 52.59375 71.296875 
z
" id="DejaVuSans-54"/>
       </defs>
       <use xlink:href="#DejaVuSans-8722"/>
       <use x="83.789062" xlink:href="#DejaVuSans-54"/>
      </g>
     </g>
    </g>
    <g id="ytick_2">
     <g id="line2d_18">
      <path clip-path="url(#pb74f0e67c3)" d="M 69.31 297.757185 
L 519.89 297.757185 
" style="fill:none;stroke:#b0b0b0;stroke-linecap:square;stroke-width:0.8;"/>
     </g>
     <g id="line2d_19">
      <g>
       <use style="stroke:#000000;stroke-width:0.8;" x="69.31" xlink:href="#mbfa992543a" y="297.757185"/>
      </g>
     </g>
     <g id="text_2">
      <!-- −4 -->
      <g transform="translate(38.7225 303.835935)scale(0.16 -0.16)">
       <defs>
        <path d="M 37.796875 64.3125 
L 12.890625 25.390625 
L 37.796875 25.390625 
z
M 35.203125 72.90625 
L 47.609375 72.90625 
L 47.609375 25.390625 
L 58.015625 25.390625 
L 58.015625 17.1875 
L 47.609375 17.1875 
L 47.609375 0 
L 37.796875 0 
L 37.796875 17.1875 
L 4.890625 17.1875 
L 4.890625 26.703125 
z
" id="DejaVuSans-52"/>
       </defs>
       <use xlink:href="#DejaVuSans-8722"/>
       <use x="83.789062" xlink:href="#DejaVuSans-52"/>
      </g>
     </g>
    </g>
    <g id="ytick_3">
     <g id="line2d_20">
      <path clip-path="url(#pb74f0e67c3)" d="M 69.31 259.043844 
L 519.89 259.043844 
" style="fill:none;stroke:#b0b0b0;stroke-linecap:square;stroke-width:0.8;"/>
     </g>
     <g id="line2d_21">
      <g>
       <use style="stroke:#000000;stroke-width:0.8;" x="69.31" xlink:href="#mbfa992543a" y="259.043844"/>
      </g>
     </g>
     <g id="text_3">
      <!-- −2 -->
      <g transform="translate(38.7225 265.122594)scale(0.16 -0.16)">
       <defs>
        <path d="M 19.1875 8.296875 
L 53.609375 8.296875 
L 53.609375 0 
L 7.328125 0 
L 7.328125 8.296875 
Q 12.9375 14.109375 22.625 23.890625 
Q 32.328125 33.6875 34.8125 36.53125 
Q 39.546875 41.84375 41.421875 45.53125 
Q 43.3125 49.21875 43.3125 52.78125 
Q 43.3125 58.59375 39.234375 62.25 
Q 35.15625 65.921875 28.609375 65.921875 
Q 23.96875 65.921875 18.8125 64.3125 
Q 13.671875 62.703125 7.8125 59.421875 
L 7.8125 69.390625 
Q 13.765625 71.78125 18.9375 73 
Q 24.125 74.21875 28.421875 74.21875 
Q 39.75 74.21875 46.484375 68.546875 
Q 53.21875 62.890625 53.21875 53.421875 
Q 53.21875 48.921875 51.53125 44.890625 
Q 49.859375 40.875 45.40625 35.40625 
Q 44.1875 33.984375 37.640625 27.21875 
Q 31.109375 20.453125 19.1875 8.296875 
z
" id="DejaVuSans-50"/>
       </defs>
       <use xlink:href="#DejaVuSans-8722"/>
       <use x="83.789062" xlink:href="#DejaVuSans-50"/>
      </g>
     </g>
    </g>
    <g id="ytick_4">
     <g id="line2d_22">
      <path clip-path="url(#pb74f0e67c3)" d="M 69.31 220.330504 
L 519.89 220.330504 
" style="fill:none;stroke:#b0b0b0;stroke-linecap:square;stroke-width:0.8;"/>
     </g>
     <g id="line2d_23">
      <g>
       <use style="stroke:#000000;stroke-width:0.8;" x="69.31" xlink:href="#mbfa992543a" y="220.330504"/>
      </g>
     </g>
     <g id="text_4">
      <!-- 0 -->
      <g transform="translate(52.13 226.409254)scale(0.16 -0.16)">
       <defs>
        <path d="M 31.78125 66.40625 
Q 24.171875 66.40625 20.328125 58.90625 
Q 16.5 51.421875 16.5 36.375 
Q 16.5 21.390625 20.328125 13.890625 
Q 24.171875 6.390625 31.78125 6.390625 
Q 39.453125 6.390625 43.28125 13.890625 
Q 47.125 21.390625 47.125 36.375 
Q 47.125 51.421875 43.28125 58.90625 
Q 39.453125 66.40625 31.78125 66.40625 
z
M 31.78125 74.21875 
Q 44.046875 74.21875 50.515625 64.515625 
Q 56.984375 54.828125 56.984375 36.375 
Q 56.984375 17.96875 50.515625 8.265625 
Q 44.046875 -1.421875 31.78125 -1.421875 
Q 19.53125 -1.421875 13.0625 8.265625 
Q 6.59375 17.96875 6.59375 36.375 
Q 6.59375 54.828125 13.0625 64.515625 
Q 19.53125 74.21875 31.78125 74.21875 
z
" id="DejaVuSans-48"/>
       </defs>
       <use xlink:href="#DejaVuSans-48"/>
      </g>
     </g>
    </g>
    <g id="ytick_5">
     <g id="line2d_24">
      <path clip-path="url(#pb74f0e67c3)" d="M 69.31 181.617164 
L 519.89 181.617164 
" style="fill:none;stroke:#b0b0b0;stroke-linecap:square;stroke-width:0.8;"/>
     </g>
     <g id="line2d_25">
      <g>
       <use style="stroke:#000000;stroke-width:0.8;" x="69.31" xlink:href="#mbfa992543a" y="181.617164"/>
      </g>
     </g>
     <g id="text_5">
      <!-- 2 -->
      <g transform="translate(52.13 187.695914)scale(0.16 -0.16)">
       <use xlink:href="#DejaVuSans-50"/>
      </g>
     </g>
    </g>
    <g id="ytick_6">
     <g id="line2d_26">
      <path clip-path="url(#pb74f0e67c3)" d="M 69.31 142.903823 
L 519.89 142.903823 
" style="fill:none;stroke:#b0b0b0;stroke-linecap:square;stroke-width:0.8;"/>
     </g>
     <g id="line2d_27">
      <g>
       <use style="stroke:#000000;stroke-width:0.8;" x="69.31" xlink:href="#mbfa992543a" y="142.903823"/>
      </g>
     </g>
     <g id="text_6">
      <!-- 4 -->
      <g transform="translate(52.13 148.982573)scale(0.16 -0.16)">
       <use xlink:href="#DejaVuSans-52"/>
      </g>
     </g>
    </g>
    <g id="ytick_7">
     <g id="line2d_28">
      <path clip-path="url(#pb74f0e67c3)" d="M 69.31 104.190483 
L 519.89 104.190483 
" style="fill:none;stroke:#b0b0b0;stroke-linecap:square;stroke-width:0.8;"/>
     </g>
     <g id="line2d_29">
      <g>
       <use style="stroke:#000000;stroke-width:0.8;" x="69.31" xlink:href="#mbfa992543a" y="104.190483"/>
      </g>
     </g>
     <g id="text_7">
      <!-- 6 -->
      <g transform="translate(52.13 110.269233)scale(0.16 -0.16)">
       <use xlink:href="#DejaVuSans-54"/>
      </g>
     </g>
    </g>
    <g id="text_8">
     <!-- Corrente (mA) -->
     <g transform="translate(31.395 277.170504)rotate(-90)scale(0.16 -0.16)">
      <defs>
       <path d="M 64.40625 67.28125 
L 64.40625 56.890625 
Q 59.421875 61.53125 53.78125 63.8125 
Q 48.140625 66.109375 41.796875 66.109375 
Q 29.296875 66.109375 22.65625 58.46875 
Q 16.015625 50.828125 16.015625 36.375 
Q 16.015625 21.96875 22.65625 14.328125 
Q 29.296875 6.6875 41.796875 6.6875 
Q 48.140625 6.6875 53.78125 8.984375 
Q 59.421875 11.28125 64.40625 15.921875 
L 64.40625 5.609375 
Q 59.234375 2.09375 53.4375 0.328125 
Q 47.65625 -1.421875 41.21875 -1.421875 
Q 24.65625 -1.421875 15.125 8.703125 
Q 5.609375 18.84375 5.609375 36.375 
Q 5.609375 53.953125 15.125 64.078125 
Q 24.65625 74.21875 41.21875 74.21875 
Q 47.75 74.21875 53.53125 72.484375 
Q 59.328125 70.75 64.40625 67.28125 
z
" id="DejaVuSans-67"/>
       <path d="M 30.609375 48.390625 
Q 23.390625 48.390625 19.1875 42.75 
Q 14.984375 37.109375 14.984375 27.296875 
Q 14.984375 17.484375 19.15625 11.84375 
Q 23.34375 6.203125 30.609375 6.203125 
Q 37.796875 6.203125 41.984375 11.859375 
Q 46.1875 17.53125 46.1875 27.296875 
Q 46.1875 37.015625 41.984375 42.703125 
Q 37.796875 48.390625 30.609375 48.390625 
z
M 30.609375 56 
Q 42.328125 56 49.015625 48.375 
Q 55.71875 40.765625 55.71875 27.296875 
Q 55.71875 13.875 49.015625 6.21875 
Q 42.328125 -1.421875 30.609375 -1.421875 
Q 18.84375 -1.421875 12.171875 6.21875 
Q 5.515625 13.875 5.515625 27.296875 
Q 5.515625 40.765625 12.171875 48.375 
Q 18.84375 56 30.609375 56 
z
" id="DejaVuSans-111"/>
       <path d="M 41.109375 46.296875 
Q 39.59375 47.171875 37.8125 47.578125 
Q 36.03125 48 33.890625 48 
Q 26.265625 48 22.1875 43.046875 
Q 18.109375 38.09375 18.109375 28.8125 
L 18.109375 0 
L 9.078125 0 
L 9.078125 54.6875 
L 18.109375 54.6875 
L 18.109375 46.1875 
Q 20.953125 51.171875 25.484375 53.578125 
Q 30.03125 56 36.53125 56 
Q 37.453125 56 38.578125 55.875 
Q 39.703125 55.765625 41.0625 55.515625 
z
" id="DejaVuSans-114"/>
       <path d="M 56.203125 29.59375 
L 56.203125 25.203125 
L 14.890625 25.203125 
Q 15.484375 15.921875 20.484375 11.0625 
Q 25.484375 6.203125 34.421875 6.203125 
Q 39.59375 6.203125 44.453125 7.46875 
Q 49.3125 8.734375 54.109375 11.28125 
L 54.109375 2.78125 
Q 49.265625 0.734375 44.1875 -0.34375 
Q 39.109375 -1.421875 33.890625 -1.421875 
Q 20.796875 -1.421875 13.15625 6.1875 
Q 5.515625 13.8125 5.515625 26.8125 
Q 5.515625 40.234375 12.765625 48.109375 
Q 20.015625 56 32.328125 56 
Q 43.359375 56 49.78125 48.890625 
Q 56.203125 41.796875 56.203125 29.59375 
z
M 47.21875 32.234375 
Q 47.125 39.59375 43.09375 43.984375 
Q 39.0625 48.390625 32.421875 48.390625 
Q 24.90625 48.390625 20.390625 44.140625 
Q 15.875 39.890625 15.1875 32.171875 
z
" id="DejaVuSans-101"/>
       <path d="M 54.890625 33.015625 
L 54.890625 0 
L 45.90625 0 
L 45.90625 32.71875 
Q 45.90625 40.484375 42.875 44.328125 
Q 39.84375 48.1875 33.796875 48.1875 
Q 26.515625 48.1875 22.3125 43.546875 
Q 18.109375 38.921875 18.109375 30.90625 
L 18.109375 0 
L 9.078125 0 
L 9.078125 54.6875 
L 18.109375 54.6875 
L 18.109375 46.1875 
Q 21.34375 51.125 25.703125 53.5625 
Q 30.078125 56 35.796875 56 
Q 45.21875 56 50.046875 50.171875 
Q 54.890625 44.34375 54.890625 33.015625 
z
" id="DejaVuSans-110"/>
       <path d="M 18.3125 70.21875 
L 18.3125 54.6875 
L 36.8125 54.6875 
L 36.8125 47.703125 
L 18.3125 47.703125 
L 18.3125 18.015625 
Q 18.3125 11.328125 20.140625 9.421875 
Q 21.96875 7.515625 27.59375 7.515625 
L 36.8125 7.515625 
L 36.8125 0 
L 27.59375 0 
Q 17.1875 0 13.234375 3.875 
Q 9.28125 7.765625 9.28125 18.015625 
L 9.28125 47.703125 
L 2.6875 47.703125 
L 2.6875 54.6875 
L 9.28125 54.6875 
L 9.28125 70.21875 
z
" id="DejaVuSans-116"/>
       <path id="DejaVuSans-32"/>
       <path d="M 31 75.875 
Q 24.46875 64.65625 21.28125 53.65625 
Q 18.109375 42.671875 18.109375 31.390625 
Q 18.109375 20.125 21.3125 9.0625 
Q 24.515625 -2 31 -13.1875 
L 23.1875 -13.1875 
Q 15.875 -1.703125 12.234375 9.375 
Q 8.59375 20.453125 8.59375 31.390625 
Q 8.59375 42.28125 12.203125 53.3125 
Q 15.828125 64.359375 23.1875 75.875 
z
" id="DejaVuSans-40"/>
       <path d="M 52 44.1875 
Q 55.375 50.25 60.0625 53.125 
Q 64.75 56 71.09375 56 
Q 79.640625 56 84.28125 50.015625 
Q 88.921875 44.046875 88.921875 33.015625 
L 88.921875 0 
L 79.890625 0 
L 79.890625 32.71875 
Q 79.890625 40.578125 77.09375 44.375 
Q 74.3125 48.1875 68.609375 48.1875 
Q 61.625 48.1875 57.5625 43.546875 
Q 53.515625 38.921875 53.515625 30.90625 
L 53.515625 0 
L 44.484375 0 
L 44.484375 32.71875 
Q 44.484375 40.625 41.703125 44.40625 
Q 38.921875 48.1875 33.109375 48.1875 
Q 26.21875 48.1875 22.15625 43.53125 
Q 18.109375 38.875 18.109375 30.90625 
L 18.109375 0 
L 9.078125 0 
L 9.078125 54.6875 
L 18.109375 54.6875 
L 18.109375 46.1875 
Q 21.1875 51.21875 25.484375 53.609375 
Q 29.78125 56 35.6875 56 
Q 41.65625 56 45.828125 52.96875 
Q 50 49.953125 52 44.1875 
z
" id="DejaVuSans-109"/>
       <path d="M 34.1875 63.1875 
L 20.796875 26.90625 
L 47.609375 26.90625 
z
M 28.609375 72.90625 
L 39.796875 72.90625 
L 67.578125 0 
L 57.328125 0 
L 50.6875 18.703125 
L 17.828125 18.703125 
L 11.1875 0 
L 0.78125 0 
z
" id="DejaVuSans-65"/>
       <path d="M 8.015625 75.875 
L 15.828125 75.875 
Q 23.140625 64.359375 26.78125 53.3125 
Q 30.421875 42.28125 30.421875 31.390625 
Q 30.421875 20.453125 26.78125 9.375 
Q 23.140625 -1.703125 15.828125 -13.1875 
L 8.015625 -13.1875 
Q 14.5 -2 17.703125 9.0625 
Q 20.90625 20.125 20.90625 31.390625 
Q 20.90625 42.671875 17.703125 53.65625 
Q 14.5 64.65625 8.015625 75.875 
z
" id="DejaVuSans-41"/>
      </defs>
      <use xlink:href="#DejaVuSans-67"/>
      <use x="69.824219" xlink:href="#DejaVuSans-111"/>
      <use x="131.005859" xlink:href="#DejaVuSans-114"/>
      <use x="170.369141" xlink:href="#DejaVuSans-114"/>
      <use x="209.232422" xlink:href="#DejaVuSans-101"/>
      <use x="270.755859" xlink:href="#DejaVuSans-110"/>
      <use x="334.134766" xlink:href="#DejaVuSans-116"/>
      <use x="373.34375" xlink:href="#DejaVuSans-101"/>
      <use x="434.867188" xlink:href="#DejaVuSans-32"/>
      <use x="466.654297" xlink:href="#DejaVuSans-40"/>
      <use x="505.667969" xlink:href="#DejaVuSans-109"/>
      <use x="603.080078" xlink:href="#DejaVuSans-65"/>
      <use x="671.488281" xlink:href="#DejaVuSans-41"/>
     </g>
    </g>
   </g>
   <g id="line2d_30">
    <path clip-path="url(#pb74f0e67c3)" d="M 69.31 568.741522 
L 437.717027 -1 
L 437.717027 -1 
" style="fill:none;stroke:#ff0000;stroke-linecap:square;stroke-width:4;"/>
   </g>
   <g id="line2d_31">
    <path clip-path="url(#pb74f0e67c3)" d="M 200.729654 365.501008 
L 200.729654 75.16 
" style="fill:none;stroke:#0000ff;stroke-dasharray:14.8,6.4;stroke-dashoffset:0;stroke-opacity:0.7;stroke-width:4;"/>
   </g>
   <g id="line2d_32">
    <path clip-path="url(#pb74f0e67c3)" d="M 294.6 365.501008 
L 294.6 75.16 
" style="fill:none;stroke:#000000;stroke-linecap:square;"/>
   </g>
   <g id="line2d_33">
    <path clip-path="url(#pb74f0e67c3)" d="M 69.31 220.330504 
L 519.89 220.330504 
" style="fill:none;stroke:#000000;stroke-linecap:square;"/>
   </g>
   <g id="patch_3">
    <path d="M 69.31 365.501008 
L 69.31 75.16 
" style="fill:none;stroke:#000000;stroke-linecap:square;stroke-linejoin:miter;stroke-width:0.8;"/>
   </g>
   <g id="patch_4">
    <path d="M 519.89 365.501008 
L 519.89 75.16 
" style="fill:none;stroke:#000000;stroke-linecap:square;stroke-linejoin:miter;stroke-width:0.8;"/>
   </g>
   <g id="patch_5">
    <path d="M 69.31 365.501008 
L 519.89 365.501008 
" style="fill:none;stroke:#000000;stroke-linecap:square;stroke-linejoin:miter;stroke-width:0.8;"/>
   </g>
   <g id="patch_6">
    <path d="M 69.31 75.16 
L 519.89 75.16 
" style="fill:none;stroke:#000000;stroke-linecap:square;stroke-linejoin:miter;stroke-width:0.8;"/>
   </g>
   <g id="line2d_34">
    <path clip-path="url(#pb74f0e67c3)" d="M 69.31 75.16 
L 519.89 75.16 
" style="fill:none;stroke:#ff0000;stroke-dasharray:14.8,6.4;stroke-dashoffset:0;stroke-opacity:0.7;stroke-width:4;"/>
   </g>
   <g id="line2d_35">
    <path clip-path="url(#pb74f0e67c3)" d="M 69.31 365.501008 
L 519.89 365.501008 
" style="fill:none;stroke:#ff0000;stroke-dasharray:14.8,6.4;stroke-dashoffset:0;stroke-opacity:0.7;stroke-width:4;"/>
   </g>
   <g id="line2d_36">
    <path clip-path="url(#pb74f0e67c3)" d="M 519.89 568.741522 
L 151.482973 -1 
L 151.482973 -1 
" style="fill:none;stroke:#1f77b4;stroke-linecap:square;stroke-width:4;"/>
   </g>
   <g id="legend_1">
    <g id="patch_7">
     <path d="M 80.51 262.855504 
L 208.03 262.855504 
Q 211.23 262.855504 211.23 259.655504 
L 211.23 181.005504 
Q 211.23 177.805504 208.03 177.805504 
L 80.51 177.805504 
Q 77.31 177.805504 77.31 181.005504 
L 77.31 259.655504 
Q 77.31 262.855504 80.51 262.855504 
z
" style="fill:#ffffff;opacity:0.8;stroke:#cccccc;stroke-linejoin:miter;"/>
    </g>
    <g id="line2d_37">
     <path d="M 83.71 190.763004 
L 115.71 190.763004 
" style="fill:none;stroke:#ff0000;stroke-linecap:square;stroke-width:4;"/>
    </g>
    <g id="line2d_38"/>
    <g id="text_9">
     <!-- $I(V)$ -->
     <g transform="translate(128.51 196.363004)scale(0.16 -0.16)">
      <defs>
       <path d="M 9.8125 72.90625 
L 19.671875 72.90625 
L 19.671875 0 
L 9.8125 0 
z
" id="DejaVuSans-73"/>
       <path d="M 28.609375 0 
L 0.78125 72.90625 
L 11.078125 72.90625 
L 34.1875 11.53125 
L 57.328125 72.90625 
L 67.578125 72.90625 
L 39.796875 0 
z
" id="DejaVuSans-86"/>
      </defs>
      <use transform="translate(0 0.125)" xlink:href="#DejaVuSans-73"/>
      <use transform="translate(29.492188 0.125)" xlink:href="#DejaVuSans-40"/>
      <use transform="translate(68.505859 0.125)" xlink:href="#DejaVuSans-86"/>
      <use transform="translate(136.914062 0.125)" xlink:href="#DejaVuSans-41"/>
     </g>
    </g>
    <g id="line2d_39">
     <path d="M 83.71 219.370504 
L 115.71 219.370504 
" style="fill:none;stroke:#1f77b4;stroke-linecap:square;stroke-width:4;"/>
    </g>
    <g id="line2d_40"/>
    <g id="text_10">
     <!-- $I= \frac{V_{in}-V_{out}}{R_1}$ -->
     <g transform="translate(128.51 224.970504)scale(0.16 -0.16)">
      <defs>
       <path d="M 10.59375 45.40625 
L 73.1875 45.40625 
L 73.1875 37.203125 
L 10.59375 37.203125 
z
M 10.59375 25.484375 
L 73.1875 25.484375 
L 73.1875 17.1875 
L 10.59375 17.1875 
z
" id="DejaVuSans-61"/>
       <path d="M 9.421875 54.6875 
L 18.40625 54.6875 
L 18.40625 0 
L 9.421875 0 
z
M 9.421875 75.984375 
L 18.40625 75.984375 
L 18.40625 64.59375 
L 9.421875 64.59375 
z
" id="DejaVuSans-105"/>
       <path d="M 8.5 21.578125 
L 8.5 54.6875 
L 17.484375 54.6875 
L 17.484375 21.921875 
Q 17.484375 14.15625 20.5 10.265625 
Q 23.53125 6.390625 29.59375 6.390625 
Q 36.859375 6.390625 41.078125 11.03125 
Q 45.3125 15.671875 45.3125 23.6875 
L 45.3125 54.6875 
L 54.296875 54.6875 
L 54.296875 0 
L 45.3125 0 
L 45.3125 8.40625 
Q 42.046875 3.421875 37.71875 1 
Q 33.40625 -1.421875 27.6875 -1.421875 
Q 18.265625 -1.421875 13.375 4.4375 
Q 8.5 10.296875 8.5 21.578125 
z
M 31.109375 56 
z
" id="DejaVuSans-117"/>
       <path d="M 44.390625 34.1875 
Q 47.5625 33.109375 50.5625 29.59375 
Q 53.5625 26.078125 56.59375 19.921875 
L 66.609375 0 
L 56 0 
L 46.6875 18.703125 
Q 43.0625 26.03125 39.671875 28.421875 
Q 36.28125 30.8125 30.421875 30.8125 
L 19.671875 30.8125 
L 19.671875 0 
L 9.8125 0 
L 9.8125 72.90625 
L 32.078125 72.90625 
Q 44.578125 72.90625 50.734375 67.671875 
Q 56.890625 62.453125 56.890625 51.90625 
Q 56.890625 45.015625 53.6875 40.46875 
Q 50.484375 35.9375 44.390625 34.1875 
z
M 19.671875 64.796875 
L 19.671875 38.921875 
L 32.078125 38.921875 
Q 39.203125 38.921875 42.84375 42.21875 
Q 46.484375 45.515625 46.484375 51.90625 
Q 46.484375 58.296875 42.84375 61.546875 
Q 39.203125 64.796875 32.078125 64.796875 
z
" id="DejaVuSans-82"/>
       <path d="M 12.40625 8.296875 
L 28.515625 8.296875 
L 28.515625 63.921875 
L 10.984375 60.40625 
L 10.984375 69.390625 
L 28.421875 72.90625 
L 38.28125 72.90625 
L 38.28125 8.296875 
L 54.390625 8.296875 
L 54.390625 0 
L 12.40625 0 
z
" id="DejaVuSans-49"/>
      </defs>
      <use transform="translate(0 0.987656)" xlink:href="#DejaVuSans-73"/>
      <use transform="translate(48.974609 0.987656)" xlink:href="#DejaVuSans-61"/>
      <use transform="translate(152.246094 56.965625)scale(0.7)" xlink:href="#DejaVuSans-86"/>
      <use transform="translate(200.801758 45.48125)scale(0.49)" xlink:href="#DejaVuSans-105"/>
      <use transform="translate(214.415527 45.48125)scale(0.49)" xlink:href="#DejaVuSans-110"/>
      <use transform="translate(261.022949 56.965625)scale(0.7)" xlink:href="#DejaVuSans-8722"/>
      <use transform="translate(333.312988 56.965625)scale(0.7)" xlink:href="#DejaVuSans-86"/>
      <use transform="translate(381.868652 45.48125)scale(0.49)" xlink:href="#DejaVuSans-111"/>
      <use transform="translate(411.847656 45.48125)scale(0.49)" xlink:href="#DejaVuSans-117"/>
      <use transform="translate(442.90332 45.48125)scale(0.49)" xlink:href="#DejaVuSans-116"/>
      <use transform="translate(267.246094 -37.499844)scale(0.7)" xlink:href="#DejaVuSans-82"/>
      <use transform="translate(316.553711 -48.984219)scale(0.49)" xlink:href="#DejaVuSans-49"/>
      <path d="M 152.246094 19.784531 
L 152.246094 26.034531 
L 464.029785 26.034531 
L 464.029785 19.784531 
L 152.246094 19.784531 
z
"/>
     </g>
    </g>
    <g id="line2d_41"/>
    <g id="line2d_42">
     <defs>
      <path d="M 0 -3 
L -0.673542 -0.927051 
L -2.85317 -0.927051 
L -1.089814 0.354102 
L -1.763356 2.427051 
L -0 1.145898 
L 1.763356 2.427051 
L 1.089814 0.354102 
L 2.85317 -0.927051 
L 0.673542 -0.927051 
z
" id="mb8407ec1e9" style="stroke:#000000;stroke-linejoin:bevel;"/>
     </defs>
     <g>
      <use style="stroke:#000000;stroke-linejoin:bevel;" x="99.71" xlink:href="#mb8407ec1e9" y="247.528004"/>
     </g>
    </g>
    <g id="text_11">
     <!-- $V_{in}$ -->
     <g transform="translate(128.51 253.128004)scale(0.16 -0.16)">
      <use transform="translate(0 0.09375)" xlink:href="#DejaVuSans-86"/>
      <use transform="translate(69.365234 -16.3125)scale(0.7)" xlink:href="#DejaVuSans-105"/>
      <use transform="translate(88.813477 -16.3125)scale(0.7)" xlink:href="#DejaVuSans-110"/>
     </g>
    </g>
   </g>
   <g id="line2d_43">
    <defs>
     <path d="M 0 5 
C 1.326016 5 2.597899 4.473168 3.535534 3.535534 
C 4.473168 2.597899 5 1.326016 5 0 
C 5 -1.326016 4.473168 -2.597899 3.535534 -3.535534 
C 2.597899 -4.473168 1.326016 -5 0 -5 
C -1.326016 -5 -2.597899 -4.473168 -3.535534 -3.535534 
C -4.473168 -2.597899 -5 -1.326016 -5 0 
C -5 1.326016 -4.473168 2.597899 -3.535534 3.535534 
C -2.597899 4.473168 -1.326016 5 0 5 
z
" id="mf0561e78d7" style="stroke:#0000ff;"/>
    </defs>
    <g clip-path="url(#pb74f0e67c3)">
     <use style="fill:#0000ff;stroke:#0000ff;" x="294.6" xlink:href="#mf0561e78d7" y="220.330504"/>
    </g>
   </g>
   <g id="line2d_44">
    <g clip-path="url(#pb74f0e67c3)">
     <use style="stroke:#000000;stroke-linejoin:bevel;" x="294.6" xlink:href="#mb8407ec1e9" y="220.330504"/>
    </g>
   </g>
  </g>
  <g id="axes_2">
   <g id="patch_8">
    <path d="M 540.67 365.501008 
L 991.25 365.501008 
L 991.25 75.16 
L 540.67 75.16 
z
" style="fill:#ffffff;"/>
   </g>
   <g id="matplotlib.axis_3">
    <g id="xtick_8">
     <g id="line2d_45">
      <path clip-path="url(#p3a319dc739)" d="M 561.150909 365.501008 
L 561.150909 75.16 
" style="fill:none;stroke:#b0b0b0;stroke-linecap:square;stroke-width:0.8;"/>
     </g>
     <g id="line2d_46">
      <g>
       <use style="stroke:#000000;stroke-width:0.8;" x="561.150909" xlink:href="#m3921b44002" y="365.501008"/>
      </g>
     </g>
    </g>
    <g id="xtick_9">
     <g id="line2d_47">
      <path clip-path="url(#p3a319dc739)" d="M 612.353182 365.501008 
L 612.353182 75.16 
" style="fill:none;stroke:#b0b0b0;stroke-linecap:square;stroke-width:0.8;"/>
     </g>
     <g id="line2d_48">
      <g>
       <use style="stroke:#000000;stroke-width:0.8;" x="612.353182" xlink:href="#m3921b44002" y="365.501008"/>
      </g>
     </g>
    </g>
    <g id="xtick_10">
     <g id="line2d_49">
      <path clip-path="url(#p3a319dc739)" d="M 663.555455 365.501008 
L 663.555455 75.16 
" style="fill:none;stroke:#b0b0b0;stroke-linecap:square;stroke-width:0.8;"/>
     </g>
     <g id="line2d_50">
      <g>
       <use style="stroke:#000000;stroke-width:0.8;" x="663.555455" xlink:href="#m3921b44002" y="365.501008"/>
      </g>
     </g>
    </g>
    <g id="xtick_11">
     <g id="line2d_51">
      <path clip-path="url(#p3a319dc739)" d="M 714.757727 365.501008 
L 714.757727 75.16 
" style="fill:none;stroke:#b0b0b0;stroke-linecap:square;stroke-width:0.8;"/>
     </g>
     <g id="line2d_52">
      <g>
       <use style="stroke:#000000;stroke-width:0.8;" x="714.757727" xlink:href="#m3921b44002" y="365.501008"/>
      </g>
     </g>
    </g>
    <g id="xtick_12">
     <g id="line2d_53">
      <path clip-path="url(#p3a319dc739)" d="M 765.96 365.501008 
L 765.96 75.16 
" style="fill:none;stroke:#b0b0b0;stroke-linecap:square;stroke-width:0.8;"/>
     </g>
     <g id="line2d_54">
      <g>
       <use style="stroke:#000000;stroke-width:0.8;" x="765.96" xlink:href="#m3921b44002" y="365.501008"/>
      </g>
     </g>
    </g>
    <g id="xtick_13">
     <g id="line2d_55">
      <path clip-path="url(#p3a319dc739)" d="M 817.162273 365.501008 
L 817.162273 75.16 
" style="fill:none;stroke:#b0b0b0;stroke-linecap:square;stroke-width:0.8;"/>
     </g>
     <g id="line2d_56">
      <g>
       <use style="stroke:#000000;stroke-width:0.8;" x="817.162273" xlink:href="#m3921b44002" y="365.501008"/>
      </g>
     </g>
    </g>
    <g id="xtick_14">
     <g id="line2d_57">
      <path clip-path="url(#p3a319dc739)" d="M 868.364545 365.501008 
L 868.364545 75.16 
" style="fill:none;stroke:#b0b0b0;stroke-linecap:square;stroke-width:0.8;"/>
     </g>
     <g id="line2d_58">
      <g>
       <use style="stroke:#000000;stroke-width:0.8;" x="868.364545" xlink:href="#m3921b44002" y="365.501008"/>
      </g>
     </g>
    </g>
    <g id="xtick_15">
     <g id="line2d_59">
      <path clip-path="url(#p3a319dc739)" d="M 919.566818 365.501008 
L 919.566818 75.16 
" style="fill:none;stroke:#b0b0b0;stroke-linecap:square;stroke-width:0.8;"/>
     </g>
     <g id="line2d_60">
      <g>
       <use style="stroke:#000000;stroke-width:0.8;" x="919.566818" xlink:href="#m3921b44002" y="365.501008"/>
      </g>
     </g>
    </g>
    <g id="xtick_16">
     <g id="line2d_61">
      <path clip-path="url(#p3a319dc739)" d="M 970.769091 365.501008 
L 970.769091 75.16 
" style="fill:none;stroke:#b0b0b0;stroke-linecap:square;stroke-width:0.8;"/>
     </g>
     <g id="line2d_62">
      <g>
       <use style="stroke:#000000;stroke-width:0.8;" x="970.769091" xlink:href="#m3921b44002" y="365.501008"/>
      </g>
     </g>
    </g>
   </g>
   <g id="matplotlib.axis_4">
    <g id="ytick_8">
     <g id="line2d_63">
      <path clip-path="url(#p3a319dc739)" d="M 540.67 336.470525 
L 991.25 336.470525 
" style="fill:none;stroke:#b0b0b0;stroke-linecap:square;stroke-width:0.8;"/>
     </g>
     <g id="line2d_64">
      <g>
       <use style="stroke:#000000;stroke-width:0.8;" x="540.67" xlink:href="#mbfa992543a" y="336.470525"/>
      </g>
     </g>
    </g>
    <g id="ytick_9">
     <g id="line2d_65">
      <path clip-path="url(#p3a319dc739)" d="M 540.67 297.757185 
L 991.25 297.757185 
" style="fill:none;stroke:#b0b0b0;stroke-linecap:square;stroke-width:0.8;"/>
     </g>
     <g id="line2d_66">
      <g>
       <use style="stroke:#000000;stroke-width:0.8;" x="540.67" xlink:href="#mbfa992543a" y="297.757185"/>
      </g>
     </g>
    </g>
    <g id="ytick_10">
     <g id="line2d_67">
      <path clip-path="url(#p3a319dc739)" d="M 540.67 259.043844 
L 991.25 259.043844 
" style="fill:none;stroke:#b0b0b0;stroke-linecap:square;stroke-width:0.8;"/>
     </g>
     <g id="line2d_68">
      <g>
       <use style="stroke:#000000;stroke-width:0.8;" x="540.67" xlink:href="#mbfa992543a" y="259.043844"/>
      </g>
     </g>
    </g>
    <g id="ytick_11">
     <g id="line2d_69">
      <path clip-path="url(#p3a319dc739)" d="M 540.67 220.330504 
L 991.25 220.330504 
" style="fill:none;stroke:#b0b0b0;stroke-linecap:square;stroke-width:0.8;"/>
     </g>
     <g id="line2d_70">
      <g>
       <use style="stroke:#000000;stroke-width:0.8;" x="540.67" xlink:href="#mbfa992543a" y="220.330504"/>
      </g>
     </g>
    </g>
    <g id="ytick_12">
     <g id="line2d_71">
      <path clip-path="url(#p3a319dc739)" d="M 540.67 181.617164 
L 991.25 181.617164 
" style="fill:none;stroke:#b0b0b0;stroke-linecap:square;stroke-width:0.8;"/>
     </g>
     <g id="line2d_72">
      <g>
       <use style="stroke:#000000;stroke-width:0.8;" x="540.67" xlink:href="#mbfa992543a" y="181.617164"/>
      </g>
     </g>
    </g>
    <g id="ytick_13">
     <g id="line2d_73">
      <path clip-path="url(#p3a319dc739)" d="M 540.67 142.903823 
L 991.25 142.903823 
" style="fill:none;stroke:#b0b0b0;stroke-linecap:square;stroke-width:0.8;"/>
     </g>
     <g id="line2d_74">
      <g>
       <use style="stroke:#000000;stroke-width:0.8;" x="540.67" xlink:href="#mbfa992543a" y="142.903823"/>
      </g>
     </g>
    </g>
    <g id="ytick_14">
     <g id="line2d_75">
      <path clip-path="url(#p3a319dc739)" d="M 540.67 104.190483 
L 991.25 104.190483 
" style="fill:none;stroke:#b0b0b0;stroke-linecap:square;stroke-width:0.8;"/>
     </g>
     <g id="line2d_76">
      <g>
       <use style="stroke:#000000;stroke-width:0.8;" x="540.67" xlink:href="#mbfa992543a" y="104.190483"/>
      </g>
     </g>
    </g>
   </g>
   <g id="line2d_77">
    <path clip-path="url(#p3a319dc739)" d="M 561.150909 220.330504 
L 569.38444 184.049383 
L 573.501206 166.632398 
L 577.617972 150.070785 
L 581.734737 134.628359 
L 585.851503 120.551107 
L 587.909886 114.095446 
L 589.968269 108.063269 
L 592.026651 102.478622 
L 594.085034 97.363767 
L 596.143417 92.739094 
L 598.2018 88.623038 
L 600.260183 85.032006 
L 602.318566 81.980314 
L 604.376948 79.480126 
L 606.435331 77.541409 
L 608.493714 76.171891 
L 610.552097 75.377032 
L 612.61048 75.16 
L 614.668862 75.52166 
L 616.727245 76.460571 
L 618.785628 77.972989 
L 620.844011 80.052886 
L 622.902394 82.691971 
L 624.960777 85.879724 
L 627.019159 89.603436 
L 629.077542 93.848266 
L 631.135925 98.59729 
L 633.194308 103.831579 
L 635.252691 109.530267 
L 637.311074 115.670636 
L 639.369456 122.228211 
L 643.486222 136.488855 
L 647.602988 152.085037 
L 651.719753 168.768319 
L 657.894902 195.246526 
L 674.361964 267.58283 
L 678.47873 284.49695 
L 682.595496 300.388944 
L 686.712261 315.005664 
L 688.770644 321.762139 
L 690.829027 328.114277 
L 692.88741 334.036758 
L 694.945793 339.505972 
L 697.004175 344.500117 
L 699.062558 348.999287 
L 701.120941 352.985545 
L 703.179324 356.443 
L 705.237707 359.357872 
L 707.29609 361.71854 
L 709.354472 363.515593 
L 711.412855 364.741869 
L 713.471238 365.392478 
L 715.529621 365.464828 
L 717.588004 364.95863 
L 719.646386 363.875902 
L 721.704769 362.22096 
L 723.763152 360.000401 
L 725.821535 357.223077 
L 727.879918 353.900059 
L 729.938301 350.044593 
L 731.996683 345.672049 
L 734.055066 340.799856 
L 736.113449 335.447438 
L 738.171832 329.63613 
L 740.230215 323.389097 
L 742.288598 316.731243 
L 746.405363 302.290761 
L 750.522129 286.544712 
L 754.638894 269.743917 
L 760.814043 243.154057 
L 775.222723 179.629926 
L 779.339488 162.401232 
L 783.456254 146.09531 
L 787.57302 130.971901 
L 791.689785 117.271911 
L 793.748168 111.024878 
L 795.806551 105.21357 
L 797.864934 99.861151 
L 799.923317 94.988959 
L 801.981699 90.616415 
L 804.040082 86.760949 
L 806.098465 83.437931 
L 808.156848 80.660607 
L 810.215231 78.440048 
L 812.273614 76.785106 
L 814.331996 75.702377 
L 816.390379 75.19618 
L 818.448762 75.26853 
L 820.507145 75.919139 
L 822.565528 77.145415 
L 824.62391 78.942468 
L 826.682293 81.303136 
L 828.740676 84.218008 
L 830.799059 87.675463 
L 832.857442 91.661721 
L 834.915825 96.16089 
L 836.974207 101.155036 
L 839.03259 106.62425 
L 841.090973 112.546731 
L 843.149356 118.898869 
L 847.266122 132.789221 
L 851.382887 148.074043 
L 855.499653 164.509859 
L 859.616418 181.834858 
L 865.791567 208.883084 
L 876.083481 254.388057 
L 880.200247 271.892689 
L 884.317012 288.575971 
L 888.433778 304.172153 
L 892.550544 318.432797 
L 894.608926 324.990371 
L 896.667309 331.130741 
L 898.725692 336.829429 
L 900.784075 342.063718 
L 902.842458 346.812742 
L 904.900841 351.057571 
L 906.959223 354.781284 
L 909.017606 357.969037 
L 911.075989 360.608122 
L 913.134372 362.688019 
L 915.192755 364.200437 
L 917.251138 365.139348 
L 919.30952 365.501008 
L 921.367903 365.283976 
L 923.426286 364.489117 
L 925.484669 363.119599 
L 927.543052 361.180882 
L 929.601434 358.680694 
L 931.659817 355.629002 
L 933.7182 352.03797 
L 935.776583 347.921914 
L 937.834966 343.297241 
L 939.893349 338.182386 
L 941.951731 332.597739 
L 944.010114 326.565562 
L 946.068497 320.109901 
L 950.185263 306.032649 
L 954.302028 290.590223 
L 958.418794 274.02861 
L 962.53556 256.611625 
L 968.710708 229.491866 
L 970.769091 220.330504 
L 970.769091 220.330504 
" style="fill:none;stroke:#1f77b4;stroke-linecap:square;stroke-width:4;"/>
   </g>
   <g id="line2d_78">
    <path clip-path="url(#p3a319dc739)" d="M 540.67 75.16 
L 991.25 75.16 
" style="fill:none;stroke:#ff0000;stroke-dasharray:14.8,6.4;stroke-dashoffset:0;stroke-opacity:0.7;stroke-width:4;"/>
   </g>
   <g id="line2d_79">
    <path clip-path="url(#p3a319dc739)" d="M 540.67 365.501008 
L 991.25 365.501008 
" style="fill:none;stroke:#ff0000;stroke-dasharray:14.8,6.4;stroke-dashoffset:0;stroke-opacity:0.7;stroke-width:4;"/>
   </g>
   <g id="line2d_80">
    <path clip-path="url(#p3a319dc739)" d="M 540.67 220.330504 
L 991.25 220.330504 
" style="fill:none;stroke:#000000;stroke-linecap:square;"/>
   </g>
   <g id="line2d_81">
    <g clip-path="url(#p3a319dc739)">
     <use style="fill:#0000ff;stroke:#0000ff;" x="561.150909" xlink:href="#mf0561e78d7" y="220.330504"/>
    </g>
   </g>
   <g id="patch_9">
    <path d="M 540.67 365.501008 
L 540.67 75.16 
" style="fill:none;stroke:#000000;stroke-linecap:square;stroke-linejoin:miter;stroke-width:0.8;"/>
   </g>
   <g id="patch_10">
    <path d="M 991.25 365.501008 
L 991.25 75.16 
" style="fill:none;stroke:#000000;stroke-linecap:square;stroke-linejoin:miter;stroke-width:0.8;"/>
   </g>
   <g id="patch_11">
    <path d="M 540.67 365.501008 
L 991.25 365.501008 
" style="fill:none;stroke:#000000;stroke-linecap:square;stroke-linejoin:miter;stroke-width:0.8;"/>
   </g>
   <g id="patch_12">
    <path d="M 540.67 75.16 
L 991.25 75.16 
" style="fill:none;stroke:#000000;stroke-linecap:square;stroke-linejoin:miter;stroke-width:0.8;"/>
   </g>
   <g id="legend_2">
    <g id="patch_13">
     <path d="M 900.69 111.445 
L 980.05 111.445 
Q 983.25 111.445 983.25 108.245 
L 983.25 86.36 
Q 983.25 83.16 980.05 83.16 
L 900.69 83.16 
Q 897.49 83.16 897.49 86.36 
L 897.49 108.245 
Q 897.49 111.445 900.69 111.445 
z
" style="fill:#ffffff;opacity:0.8;stroke:#cccccc;stroke-linejoin:miter;"/>
    </g>
    <g id="line2d_82">
     <path d="M 903.89 96.1175 
L 935.89 96.1175 
" style="fill:none;stroke:#1f77b4;stroke-linecap:square;stroke-width:4;"/>
    </g>
    <g id="line2d_83"/>
    <g id="text_12">
     <!-- $I(V)$ -->
     <g transform="translate(948.69 101.7175)scale(0.16 -0.16)">
      <use transform="translate(0 0.125)" xlink:href="#DejaVuSans-73"/>
      <use transform="translate(29.492188 0.125)" xlink:href="#DejaVuSans-40"/>
      <use transform="translate(68.505859 0.125)" xlink:href="#DejaVuSans-86"/>
      <use transform="translate(136.914062 0.125)" xlink:href="#DejaVuSans-41"/>
     </g>
    </g>
   </g>
  </g>
  <g id="axes_3">
   <g id="patch_14">
    <path d="M 69.31 683.32 
L 519.89 683.32 
L 519.89 392.978992 
L 69.31 392.978992 
z
" style="fill:#ffffff;"/>
   </g>
   <g id="matplotlib.axis_5">
    <g id="xtick_17">
     <g id="line2d_84">
      <path clip-path="url(#pc3c0546d37)" d="M 106.853459 683.32 
L 106.853459 392.978992 
" style="fill:none;stroke:#b0b0b0;stroke-linecap:square;stroke-width:0.8;"/>
     </g>
     <g id="line2d_85">
      <g>
       <use style="stroke:#000000;stroke-width:0.8;" x="106.853459" xlink:href="#m3921b44002" y="683.32"/>
      </g>
     </g>
     <g id="text_13">
      <!-- −1.5 -->
      <g transform="translate(87.427209 702.4775)scale(0.16 -0.16)">
       <defs>
        <path d="M 10.6875 12.40625 
L 21 12.40625 
L 21 0 
L 10.6875 0 
z
" id="DejaVuSans-46"/>
        <path d="M 10.796875 72.90625 
L 49.515625 72.90625 
L 49.515625 64.59375 
L 19.828125 64.59375 
L 19.828125 46.734375 
Q 21.96875 47.46875 24.109375 47.828125 
Q 26.265625 48.1875 28.421875 48.1875 
Q 40.625 48.1875 47.75 41.5 
Q 54.890625 34.8125 54.890625 23.390625 
Q 54.890625 11.625 47.5625 5.09375 
Q 40.234375 -1.421875 26.90625 -1.421875 
Q 22.3125 -1.421875 17.546875 -0.640625 
Q 12.796875 0.140625 7.71875 1.703125 
L 7.71875 11.625 
Q 12.109375 9.234375 16.796875 8.0625 
Q 21.484375 6.890625 26.703125 6.890625 
Q 35.15625 6.890625 40.078125 11.328125 
Q 45.015625 15.765625 45.015625 23.390625 
Q 45.015625 31 40.078125 35.4375 
Q 35.15625 39.890625 26.703125 39.890625 
Q 22.75 39.890625 18.8125 39.015625 
Q 14.890625 38.140625 10.796875 36.28125 
z
" id="DejaVuSans-53"/>
       </defs>
       <use xlink:href="#DejaVuSans-8722"/>
       <use x="83.789062" xlink:href="#DejaVuSans-49"/>
       <use x="147.412109" xlink:href="#DejaVuSans-46"/>
       <use x="179.199219" xlink:href="#DejaVuSans-53"/>
      </g>
     </g>
    </g>
    <g id="xtick_18">
     <g id="line2d_86">
      <path clip-path="url(#pc3c0546d37)" d="M 169.43564 683.32 
L 169.43564 392.978992 
" style="fill:none;stroke:#b0b0b0;stroke-linecap:square;stroke-width:0.8;"/>
     </g>
     <g id="line2d_87">
      <g>
       <use style="stroke:#000000;stroke-width:0.8;" x="169.43564" xlink:href="#m3921b44002" y="683.32"/>
      </g>
     </g>
     <g id="text_14">
      <!-- −1.0 -->
      <g transform="translate(150.00939 702.4775)scale(0.16 -0.16)">
       <use xlink:href="#DejaVuSans-8722"/>
       <use x="83.789062" xlink:href="#DejaVuSans-49"/>
       <use x="147.412109" xlink:href="#DejaVuSans-46"/>
       <use x="179.199219" xlink:href="#DejaVuSans-48"/>
      </g>
     </g>
    </g>
    <g id="xtick_19">
     <g id="line2d_88">
      <path clip-path="url(#pc3c0546d37)" d="M 232.01782 683.32 
L 232.01782 392.978992 
" style="fill:none;stroke:#b0b0b0;stroke-linecap:square;stroke-width:0.8;"/>
     </g>
     <g id="line2d_89">
      <g>
       <use style="stroke:#000000;stroke-width:0.8;" x="232.01782" xlink:href="#m3921b44002" y="683.32"/>
      </g>
     </g>
     <g id="text_15">
      <!-- −0.5 -->
      <g transform="translate(212.59157 702.4775)scale(0.16 -0.16)">
       <use xlink:href="#DejaVuSans-8722"/>
       <use x="83.789062" xlink:href="#DejaVuSans-48"/>
       <use x="147.412109" xlink:href="#DejaVuSans-46"/>
       <use x="179.199219" xlink:href="#DejaVuSans-53"/>
      </g>
     </g>
    </g>
    <g id="xtick_20">
     <g id="line2d_90">
      <path clip-path="url(#pc3c0546d37)" d="M 294.6 683.32 
L 294.6 392.978992 
" style="fill:none;stroke:#b0b0b0;stroke-linecap:square;stroke-width:0.8;"/>
     </g>
     <g id="line2d_91">
      <g>
       <use style="stroke:#000000;stroke-width:0.8;" x="294.6" xlink:href="#m3921b44002" y="683.32"/>
      </g>
     </g>
     <g id="text_16">
      <!-- 0.0 -->
      <g transform="translate(281.8775 702.4775)scale(0.16 -0.16)">
       <use xlink:href="#DejaVuSans-48"/>
       <use x="63.623047" xlink:href="#DejaVuSans-46"/>
       <use x="95.410156" xlink:href="#DejaVuSans-48"/>
      </g>
     </g>
    </g>
    <g id="xtick_21">
     <g id="line2d_92">
      <path clip-path="url(#pc3c0546d37)" d="M 357.18218 683.32 
L 357.18218 392.978992 
" style="fill:none;stroke:#b0b0b0;stroke-linecap:square;stroke-width:0.8;"/>
     </g>
     <g id="line2d_93">
      <g>
       <use style="stroke:#000000;stroke-width:0.8;" x="357.18218" xlink:href="#m3921b44002" y="683.32"/>
      </g>
     </g>
     <g id="text_17">
      <!-- 0.5 -->
      <g transform="translate(344.45968 702.4775)scale(0.16 -0.16)">
       <use xlink:href="#DejaVuSans-48"/>
       <use x="63.623047" xlink:href="#DejaVuSans-46"/>
       <use x="95.410156" xlink:href="#DejaVuSans-53"/>
      </g>
     </g>
    </g>
    <g id="xtick_22">
     <g id="line2d_94">
      <path clip-path="url(#pc3c0546d37)" d="M 419.76436 683.32 
L 419.76436 392.978992 
" style="fill:none;stroke:#b0b0b0;stroke-linecap:square;stroke-width:0.8;"/>
     </g>
     <g id="line2d_95">
      <g>
       <use style="stroke:#000000;stroke-width:0.8;" x="419.76436" xlink:href="#m3921b44002" y="683.32"/>
      </g>
     </g>
     <g id="text_18">
      <!-- 1.0 -->
      <g transform="translate(407.04186 702.4775)scale(0.16 -0.16)">
       <use xlink:href="#DejaVuSans-49"/>
       <use x="63.623047" xlink:href="#DejaVuSans-46"/>
       <use x="95.410156" xlink:href="#DejaVuSans-48"/>
      </g>
     </g>
    </g>
    <g id="xtick_23">
     <g id="line2d_96">
      <path clip-path="url(#pc3c0546d37)" d="M 482.346541 683.32 
L 482.346541 392.978992 
" style="fill:none;stroke:#b0b0b0;stroke-linecap:square;stroke-width:0.8;"/>
     </g>
     <g id="line2d_97">
      <g>
       <use style="stroke:#000000;stroke-width:0.8;" x="482.346541" xlink:href="#m3921b44002" y="683.32"/>
      </g>
     </g>
     <g id="text_19">
      <!-- 1.5 -->
      <g transform="translate(469.624041 702.4775)scale(0.16 -0.16)">
       <use xlink:href="#DejaVuSans-49"/>
       <use x="63.623047" xlink:href="#DejaVuSans-46"/>
       <use x="95.410156" xlink:href="#DejaVuSans-53"/>
      </g>
     </g>
    </g>
    <g id="text_20">
     <!-- Tensão (V) -->
     <g transform="translate(252.85875 721.9625)scale(0.16 -0.16)">
      <defs>
       <path d="M -0.296875 72.90625 
L 61.375 72.90625 
L 61.375 64.59375 
L 35.5 64.59375 
L 35.5 0 
L 25.59375 0 
L 25.59375 64.59375 
L -0.296875 64.59375 
z
" id="DejaVuSans-84"/>
       <path d="M 44.28125 53.078125 
L 44.28125 44.578125 
Q 40.484375 46.53125 36.375 47.5 
Q 32.28125 48.484375 27.875 48.484375 
Q 21.1875 48.484375 17.84375 46.4375 
Q 14.5 44.390625 14.5 40.28125 
Q 14.5 37.15625 16.890625 35.375 
Q 19.28125 33.59375 26.515625 31.984375 
L 29.59375 31.296875 
Q 39.15625 29.25 43.1875 25.515625 
Q 47.21875 21.78125 47.21875 15.09375 
Q 47.21875 7.46875 41.1875 3.015625 
Q 35.15625 -1.421875 24.609375 -1.421875 
Q 20.21875 -1.421875 15.453125 -0.5625 
Q 10.6875 0.296875 5.421875 2 
L 5.421875 11.28125 
Q 10.40625 8.6875 15.234375 7.390625 
Q 20.0625 6.109375 24.8125 6.109375 
Q 31.15625 6.109375 34.5625 8.28125 
Q 37.984375 10.453125 37.984375 14.40625 
Q 37.984375 18.0625 35.515625 20.015625 
Q 33.0625 21.96875 24.703125 23.78125 
L 21.578125 24.515625 
Q 13.234375 26.265625 9.515625 29.90625 
Q 5.8125 33.546875 5.8125 39.890625 
Q 5.8125 47.609375 11.28125 51.796875 
Q 16.75 56 26.8125 56 
Q 31.78125 56 36.171875 55.265625 
Q 40.578125 54.546875 44.28125 53.078125 
z
" id="DejaVuSans-115"/>
       <path d="M 34.28125 27.484375 
Q 23.390625 27.484375 19.1875 25 
Q 14.984375 22.515625 14.984375 16.5 
Q 14.984375 11.71875 18.140625 8.90625 
Q 21.296875 6.109375 26.703125 6.109375 
Q 34.1875 6.109375 38.703125 11.40625 
Q 43.21875 16.703125 43.21875 25.484375 
L 43.21875 27.484375 
z
M 52.203125 31.203125 
L 52.203125 0 
L 43.21875 0 
L 43.21875 8.296875 
Q 40.140625 3.328125 35.546875 0.953125 
Q 30.953125 -1.421875 24.3125 -1.421875 
Q 15.921875 -1.421875 10.953125 3.296875 
Q 6 8.015625 6 15.921875 
Q 6 25.140625 12.171875 29.828125 
Q 18.359375 34.515625 30.609375 34.515625 
L 43.21875 34.515625 
L 43.21875 35.40625 
Q 43.21875 41.609375 39.140625 45 
Q 35.0625 48.390625 27.6875 48.390625 
Q 23 48.390625 18.546875 47.265625 
Q 14.109375 46.140625 10.015625 43.890625 
L 10.015625 52.203125 
Q 14.9375 54.109375 19.578125 55.046875 
Q 24.21875 56 28.609375 56 
Q 40.484375 56 46.34375 49.84375 
Q 52.203125 43.703125 52.203125 31.203125 
z
M 28.8125 66.890625 
L 26.015625 69.578125 
Q 24.953125 70.5625 24.140625 71.015625 
Q 23.34375 71.484375 22.703125 71.484375 
Q 20.84375 71.484375 19.96875 69.703125 
Q 19.09375 67.921875 18.984375 63.921875 
L 12.890625 63.921875 
Q 12.984375 70.515625 15.46875 74.09375 
Q 17.96875 77.6875 22.40625 77.6875 
Q 24.265625 77.6875 25.828125 77 
Q 27.390625 76.3125 29.203125 74.703125 
L 31.984375 72.015625 
Q 33.046875 71.046875 33.859375 70.578125 
Q 34.671875 70.125 35.296875 70.125 
Q 37.15625 70.125 38.03125 71.90625 
Q 38.90625 73.6875 39.015625 77.6875 
L 45.109375 77.6875 
Q 45.015625 71.09375 42.515625 67.5 
Q 40.03125 63.921875 35.59375 63.921875 
Q 33.734375 63.921875 32.171875 64.59375 
Q 30.609375 65.28125 28.8125 66.890625 
z
" id="DejaVuSans-227"/>
      </defs>
      <use xlink:href="#DejaVuSans-84"/>
      <use x="44.083984" xlink:href="#DejaVuSans-101"/>
      <use x="105.607422" xlink:href="#DejaVuSans-110"/>
      <use x="168.986328" xlink:href="#DejaVuSans-115"/>
      <use x="221.085938" xlink:href="#DejaVuSans-227"/>
      <use x="282.365234" xlink:href="#DejaVuSans-111"/>
      <use x="343.546875" xlink:href="#DejaVuSans-32"/>
      <use x="375.333984" xlink:href="#DejaVuSans-40"/>
      <use x="414.347656" xlink:href="#DejaVuSans-86"/>
      <use x="482.755859" xlink:href="#DejaVuSans-41"/>
     </g>
    </g>
   </g>
   <g id="matplotlib.axis_6">
    <g id="ytick_15">
     <g id="line2d_98">
      <path clip-path="url(#pc3c0546d37)" d="M 69.31 670.122681 
L 519.89 670.122681 
" style="fill:none;stroke:#b0b0b0;stroke-linecap:square;stroke-width:0.8;"/>
     </g>
     <g id="line2d_99">
      <g>
       <use style="stroke:#000000;stroke-width:0.8;" x="69.31" xlink:href="#mbfa992543a" y="670.122681"/>
      </g>
     </g>
     <g id="text_21">
      <!-- 0.00 -->
      <g transform="translate(26.685 676.201431)scale(0.16 -0.16)">
       <use xlink:href="#DejaVuSans-48"/>
       <use x="63.623047" xlink:href="#DejaVuSans-46"/>
       <use x="95.410156" xlink:href="#DejaVuSans-48"/>
       <use x="159.033203" xlink:href="#DejaVuSans-48"/>
      </g>
     </g>
    </g>
    <g id="ytick_16">
     <g id="line2d_100">
      <path clip-path="url(#pc3c0546d37)" d="M 69.31 637.129385 
L 519.89 637.129385 
" style="fill:none;stroke:#b0b0b0;stroke-linecap:square;stroke-width:0.8;"/>
     </g>
     <g id="line2d_101">
      <g>
       <use style="stroke:#000000;stroke-width:0.8;" x="69.31" xlink:href="#mbfa992543a" y="637.129385"/>
      </g>
     </g>
     <g id="text_22">
      <!-- 0.25 -->
      <g transform="translate(26.685 643.208135)scale(0.16 -0.16)">
       <use xlink:href="#DejaVuSans-48"/>
       <use x="63.623047" xlink:href="#DejaVuSans-46"/>
       <use x="95.410156" xlink:href="#DejaVuSans-50"/>
       <use x="159.033203" xlink:href="#DejaVuSans-53"/>
      </g>
     </g>
    </g>
    <g id="ytick_17">
     <g id="line2d_102">
      <path clip-path="url(#pc3c0546d37)" d="M 69.31 604.136089 
L 519.89 604.136089 
" style="fill:none;stroke:#b0b0b0;stroke-linecap:square;stroke-width:0.8;"/>
     </g>
     <g id="line2d_103">
      <g>
       <use style="stroke:#000000;stroke-width:0.8;" x="69.31" xlink:href="#mbfa992543a" y="604.136089"/>
      </g>
     </g>
     <g id="text_23">
      <!-- 0.50 -->
      <g transform="translate(26.685 610.214839)scale(0.16 -0.16)">
       <use xlink:href="#DejaVuSans-48"/>
       <use x="63.623047" xlink:href="#DejaVuSans-46"/>
       <use x="95.410156" xlink:href="#DejaVuSans-53"/>
       <use x="159.033203" xlink:href="#DejaVuSans-48"/>
      </g>
     </g>
    </g>
    <g id="ytick_18">
     <g id="line2d_104">
      <path clip-path="url(#pc3c0546d37)" d="M 69.31 571.142792 
L 519.89 571.142792 
" style="fill:none;stroke:#b0b0b0;stroke-linecap:square;stroke-width:0.8;"/>
     </g>
     <g id="line2d_105">
      <g>
       <use style="stroke:#000000;stroke-width:0.8;" x="69.31" xlink:href="#mbfa992543a" y="571.142792"/>
      </g>
     </g>
     <g id="text_24">
      <!-- 0.75 -->
      <g transform="translate(26.685 577.221542)scale(0.16 -0.16)">
       <defs>
        <path d="M 8.203125 72.90625 
L 55.078125 72.90625 
L 55.078125 68.703125 
L 28.609375 0 
L 18.3125 0 
L 43.21875 64.59375 
L 8.203125 64.59375 
z
" id="DejaVuSans-55"/>
       </defs>
       <use xlink:href="#DejaVuSans-48"/>
       <use x="63.623047" xlink:href="#DejaVuSans-46"/>
       <use x="95.410156" xlink:href="#DejaVuSans-55"/>
       <use x="159.033203" xlink:href="#DejaVuSans-53"/>
      </g>
     </g>
    </g>
    <g id="ytick_19">
     <g id="line2d_106">
      <path clip-path="url(#pc3c0546d37)" d="M 69.31 538.149496 
L 519.89 538.149496 
" style="fill:none;stroke:#b0b0b0;stroke-linecap:square;stroke-width:0.8;"/>
     </g>
     <g id="line2d_107">
      <g>
       <use style="stroke:#000000;stroke-width:0.8;" x="69.31" xlink:href="#mbfa992543a" y="538.149496"/>
      </g>
     </g>
     <g id="text_25">
      <!-- 1.00 -->
      <g transform="translate(26.685 544.228246)scale(0.16 -0.16)">
       <use xlink:href="#DejaVuSans-49"/>
       <use x="63.623047" xlink:href="#DejaVuSans-46"/>
       <use x="95.410156" xlink:href="#DejaVuSans-48"/>
       <use x="159.033203" xlink:href="#DejaVuSans-48"/>
      </g>
     </g>
    </g>
    <g id="ytick_20">
     <g id="line2d_108">
      <path clip-path="url(#pc3c0546d37)" d="M 69.31 505.1562 
L 519.89 505.1562 
" style="fill:none;stroke:#b0b0b0;stroke-linecap:square;stroke-width:0.8;"/>
     </g>
     <g id="line2d_109">
      <g>
       <use style="stroke:#000000;stroke-width:0.8;" x="69.31" xlink:href="#mbfa992543a" y="505.1562"/>
      </g>
     </g>
     <g id="text_26">
      <!-- 1.25 -->
      <g transform="translate(26.685 511.23495)scale(0.16 -0.16)">
       <use xlink:href="#DejaVuSans-49"/>
       <use x="63.623047" xlink:href="#DejaVuSans-46"/>
       <use x="95.410156" xlink:href="#DejaVuSans-50"/>
       <use x="159.033203" xlink:href="#DejaVuSans-53"/>
      </g>
     </g>
    </g>
    <g id="ytick_21">
     <g id="line2d_110">
      <path clip-path="url(#pc3c0546d37)" d="M 69.31 472.162903 
L 519.89 472.162903 
" style="fill:none;stroke:#b0b0b0;stroke-linecap:square;stroke-width:0.8;"/>
     </g>
     <g id="line2d_111">
      <g>
       <use style="stroke:#000000;stroke-width:0.8;" x="69.31" xlink:href="#mbfa992543a" y="472.162903"/>
      </g>
     </g>
     <g id="text_27">
      <!-- 1.50 -->
      <g transform="translate(26.685 478.241653)scale(0.16 -0.16)">
       <use xlink:href="#DejaVuSans-49"/>
       <use x="63.623047" xlink:href="#DejaVuSans-46"/>
       <use x="95.410156" xlink:href="#DejaVuSans-53"/>
       <use x="159.033203" xlink:href="#DejaVuSans-48"/>
      </g>
     </g>
    </g>
    <g id="ytick_22">
     <g id="line2d_112">
      <path clip-path="url(#pc3c0546d37)" d="M 69.31 439.169607 
L 519.89 439.169607 
" style="fill:none;stroke:#b0b0b0;stroke-linecap:square;stroke-width:0.8;"/>
     </g>
     <g id="line2d_113">
      <g>
       <use style="stroke:#000000;stroke-width:0.8;" x="69.31" xlink:href="#mbfa992543a" y="439.169607"/>
      </g>
     </g>
     <g id="text_28">
      <!-- 1.75 -->
      <g transform="translate(26.685 445.248357)scale(0.16 -0.16)">
       <use xlink:href="#DejaVuSans-49"/>
       <use x="63.623047" xlink:href="#DejaVuSans-46"/>
       <use x="95.410156" xlink:href="#DejaVuSans-55"/>
       <use x="159.033203" xlink:href="#DejaVuSans-53"/>
      </g>
     </g>
    </g>
    <g id="ytick_23">
     <g id="line2d_114">
      <path clip-path="url(#pc3c0546d37)" d="M 69.31 406.176311 
L 519.89 406.176311 
" style="fill:none;stroke:#b0b0b0;stroke-linecap:square;stroke-width:0.8;"/>
     </g>
     <g id="line2d_115">
      <g>
       <use style="stroke:#000000;stroke-width:0.8;" x="69.31" xlink:href="#mbfa992543a" y="406.176311"/>
      </g>
     </g>
     <g id="text_29">
      <!-- 2.00 -->
      <g transform="translate(26.685 412.255061)scale(0.16 -0.16)">
       <use xlink:href="#DejaVuSans-50"/>
       <use x="63.623047" xlink:href="#DejaVuSans-46"/>
       <use x="95.410156" xlink:href="#DejaVuSans-48"/>
       <use x="159.033203" xlink:href="#DejaVuSans-48"/>
      </g>
     </g>
    </g>
    <g id="text_30">
     <!-- Tempo (s) -->
     <g transform="translate(19.3575 577.316996)rotate(-90)scale(0.16 -0.16)">
      <defs>
       <path d="M 18.109375 8.203125 
L 18.109375 -20.796875 
L 9.078125 -20.796875 
L 9.078125 54.6875 
L 18.109375 54.6875 
L 18.109375 46.390625 
Q 20.953125 51.265625 25.265625 53.625 
Q 29.59375 56 35.59375 56 
Q 45.5625 56 51.78125 48.09375 
Q 58.015625 40.1875 58.015625 27.296875 
Q 58.015625 14.40625 51.78125 6.484375 
Q 45.5625 -1.421875 35.59375 -1.421875 
Q 29.59375 -1.421875 25.265625 0.953125 
Q 20.953125 3.328125 18.109375 8.203125 
z
M 48.6875 27.296875 
Q 48.6875 37.203125 44.609375 42.84375 
Q 40.53125 48.484375 33.40625 48.484375 
Q 26.265625 48.484375 22.1875 42.84375 
Q 18.109375 37.203125 18.109375 27.296875 
Q 18.109375 17.390625 22.1875 11.75 
Q 26.265625 6.109375 33.40625 6.109375 
Q 40.53125 6.109375 44.609375 11.75 
Q 48.6875 17.390625 48.6875 27.296875 
z
" id="DejaVuSans-112"/>
      </defs>
      <use xlink:href="#DejaVuSans-84"/>
      <use x="44.083984" xlink:href="#DejaVuSans-101"/>
      <use x="105.607422" xlink:href="#DejaVuSans-109"/>
      <use x="203.019531" xlink:href="#DejaVuSans-112"/>
      <use x="266.496094" xlink:href="#DejaVuSans-111"/>
      <use x="327.677734" xlink:href="#DejaVuSans-32"/>
      <use x="359.464844" xlink:href="#DejaVuSans-40"/>
      <use x="398.478516" xlink:href="#DejaVuSans-115"/>
      <use x="450.578125" xlink:href="#DejaVuSans-41"/>
     </g>
    </g>
   </g>
   <g id="line2d_116">
    <path clip-path="url(#pc3c0546d37)" d="M 294.6 670.122681 
L 323.749343 663.490863 
L 340.031434 659.511772 
L 350.016836 656.859045 
L 359.119488 654.206317 
L 367.19439 651.55359 
L 374.112916 648.900863 
L 377.103328 647.574499 
L 379.764858 646.248135 
L 382.086896 644.921772 
L 384.060186 643.595408 
L 385.67686 642.269044 
L 386.930476 640.942681 
L 387.816035 639.616317 
L 388.330008 638.289953 
L 388.470346 636.96359 
L 388.236489 635.637226 
L 387.629369 634.310862 
L 386.651407 632.984499 
L 385.306501 631.658135 
L 383.600013 630.331771 
L 381.538744 629.005408 
L 379.130912 627.679044 
L 376.386115 626.35268 
L 373.315294 625.026317 
L 366.245798 622.373589 
L 358.035036 619.720862 
L 348.813799 617.068135 
L 338.728976 614.415407 
L 322.337059 610.436316 
L 299.044241 605.130862 
L 269.707894 598.499043 
L 253.108607 594.519952 
L 242.832504 591.867225 
L 233.381021 589.214497 
L 224.904712 586.56177 
L 217.538599 583.909043 
L 214.309278 582.582679 
L 211.400019 581.256315 
L 208.82242 579.929952 
L 206.586755 578.603588 
L 204.701937 577.277224 
L 203.175479 575.950861 
L 202.013466 574.624497 
L 201.22053 573.298133 
L 200.799832 571.97177 
L 200.753049 570.645406 
L 201.080367 569.319042 
L 201.780482 567.992679 
L 202.850603 566.666315 
L 204.286464 565.339951 
L 206.082341 564.013588 
L 208.231076 562.687224 
L 210.724102 561.36086 
L 213.551482 560.034497 
L 216.701946 558.708133 
L 223.92065 556.055406 
L 232.265225 553.402678 
L 241.602749 550.749951 
L 251.78448 548.097224 
L 268.282138 544.118133 
L 291.636557 538.812678 
L 320.917862 532.18086 
L 337.41552 528.201769 
L 347.597251 525.549041 
L 356.934775 522.896314 
L 365.27935 520.243586 
L 372.498054 517.590859 
L 375.648518 516.264495 
L 378.475898 514.938132 
L 380.968924 513.611768 
L 383.117659 512.285404 
L 384.913536 510.959041 
L 386.349397 509.632677 
L 387.419518 508.306313 
L 388.119633 506.97995 
L 388.446951 505.653586 
L 388.400168 504.327222 
L 387.97947 503.000859 
L 387.186534 501.674495 
L 386.024521 500.348131 
L 384.498063 499.021768 
L 382.613245 497.695404 
L 380.37758 496.36904 
L 377.799981 495.042677 
L 374.890722 493.716313 
L 371.661401 492.389949 
L 364.295288 489.737222 
L 355.818979 487.084495 
L 346.367496 484.431767 
L 336.091393 481.77904 
L 319.492106 477.799949 
L 296.081906 472.494494 
L 266.862941 465.862676 
L 250.471024 461.883585 
L 240.386201 459.230858 
L 231.164964 456.57813 
L 222.954202 453.925403 
L 215.884706 451.272676 
L 212.813885 449.946312 
L 210.069088 448.619948 
L 207.661256 447.293584 
L 205.599987 445.967221 
L 203.893499 444.640857 
L 202.548593 443.314493 
L 201.570631 441.98813 
L 200.963511 440.661766 
L 200.729654 439.335402 
L 200.869992 438.009039 
L 201.383965 436.682675 
L 202.269524 435.356311 
L 203.52314 434.029948 
L 205.139814 432.703584 
L 207.113104 431.37722 
L 209.435142 430.050857 
L 212.096672 428.724493 
L 215.087084 427.398129 
L 218.394458 426.071766 
L 225.906144 423.419038 
L 234.512074 420.766311 
L 244.075162 418.113584 
L 254.443074 415.460856 
L 271.139853 411.481765 
L 294.6 406.176311 
L 294.6 406.176311 
" style="fill:none;stroke:#ff0000;stroke-linecap:square;stroke-width:4;"/>
   </g>
   <g id="line2d_117">
    <path clip-path="url(#pc3c0546d37)" d="M 294.6 670.122681 
L 352.898686 663.490863 
L 385.462867 659.511772 
L 405.433672 656.859045 
L 423.638975 654.206317 
L 439.78878 651.55359 
L 453.625832 648.900863 
L 459.606657 647.574499 
L 464.929717 646.248135 
L 469.573792 644.921772 
L 473.520371 643.595408 
L 476.753721 642.269044 
L 479.260952 640.942681 
L 481.032071 639.616317 
L 482.060017 638.289953 
L 482.340692 636.96359 
L 481.872978 635.637226 
L 480.658738 634.310862 
L 478.702814 632.984499 
L 476.013002 631.658135 
L 472.600025 630.331771 
L 468.477488 629.005408 
L 463.661823 627.679044 
L 458.172229 626.35268 
L 452.030588 625.026317 
L 445.261382 623.699953 
L 429.950608 621.047226 
L 412.483795 618.394498 
L 393.139178 615.741771 
L 372.224903 613.089044 
L 338.644682 609.109953 
L 279.795707 602.478134 
L 233.491275 597.172679 
L 201.154861 593.193588 
L 181.387877 590.540861 
L 163.424281 587.888134 
L 147.55022 585.235406 
L 140.477198 583.909043 
L 134.018556 582.582679 
L 128.200038 581.256315 
L 123.04484 579.929952 
L 118.57351 578.603588 
L 114.803874 577.277224 
L 111.750958 575.950861 
L 109.426931 574.624497 
L 107.841059 573.298133 
L 106.999663 571.97177 
L 106.906097 570.645406 
L 107.560734 569.319042 
L 108.960964 567.992679 
L 111.101206 566.666315 
L 113.972928 565.339951 
L 117.564682 564.013588 
L 121.862151 562.687224 
L 126.848204 561.36086 
L 132.502964 560.034497 
L 138.803891 558.708133 
L 145.725867 557.381769 
L 161.320228 554.729042 
L 179.037641 552.076315 
L 198.595879 549.423587 
L 219.683393 546.77086 
L 253.441907 542.791769 
L 369.516607 529.528132 
L 390.604121 526.875405 
L 410.162359 524.222677 
L 427.879772 521.56995 
L 443.474133 518.917223 
L 450.396109 517.590859 
L 456.697036 516.264495 
L 462.351796 514.938132 
L 467.337849 513.611768 
L 471.635318 512.285404 
L 475.227072 510.959041 
L 478.098794 509.632677 
L 480.239036 508.306313 
L 481.639266 506.97995 
L 482.293903 505.653586 
L 482.200337 504.327222 
L 481.358941 503.000859 
L 479.773069 501.674495 
L 477.449042 500.348131 
L 474.396126 499.021768 
L 470.62649 497.695404 
L 466.15516 496.36904 
L 460.999962 495.042677 
L 455.181444 493.716313 
L 448.722802 492.389949 
L 433.990576 489.737222 
L 417.037958 487.084495 
L 398.134991 484.431767 
L 377.582786 481.77904 
L 344.384213 477.799949 
L 297.563812 472.494494 
L 239.125882 465.862676 
L 206.342049 461.883585 
L 186.172401 459.230858 
L 167.729928 456.57813 
L 151.308404 453.925403 
L 137.169412 451.272676 
L 131.027771 449.946312 
L 125.538177 448.619948 
L 120.722512 447.293584 
L 116.599975 445.967221 
L 113.186998 444.640857 
L 110.497186 443.314493 
L 108.541262 441.98813 
L 107.327022 440.661766 
L 106.859308 439.335402 
L 107.139983 438.009039 
L 108.167929 436.682675 
L 109.939048 435.356311 
L 112.446279 434.029948 
L 115.679629 432.703584 
L 119.626208 431.37722 
L 124.270283 430.050857 
L 129.593343 428.724493 
L 135.574168 427.398129 
L 142.188916 426.071766 
L 157.212288 423.419038 
L 174.424148 420.766311 
L 193.550324 418.113584 
L 214.286148 415.460856 
L 247.679706 411.481765 
L 294.6 406.176311 
L 294.6 406.176311 
" style="fill:none;stroke:#1f77b4;stroke-dasharray:14.8,6.4;stroke-dashoffset:0;stroke-opacity:0.8;stroke-width:4;"/>
   </g>
   <g id="line2d_118">
    <path clip-path="url(#pc3c0546d37)" d="M 388.470346 683.32 
L 388.470346 392.978992 
" style="fill:none;stroke:#0000ff;stroke-dasharray:14.8,6.4;stroke-dashoffset:0;stroke-opacity:0.7;stroke-width:4;"/>
   </g>
   <g id="line2d_119">
    <path clip-path="url(#pc3c0546d37)" d="M 200.729654 683.32 
L 200.729654 392.978992 
" style="fill:none;stroke:#0000ff;stroke-dasharray:14.8,6.4;stroke-dashoffset:0;stroke-opacity:0.7;stroke-width:4;"/>
   </g>
   <g id="line2d_120">
    <path clip-path="url(#pc3c0546d37)" d="M 294.6 683.32 
L 294.6 392.978992 
" style="fill:none;stroke:#008000;stroke-dasharray:25.6,6.4,4,6.4;stroke-dashoffset:0;stroke-opacity:0.7;stroke-width:4;"/>
   </g>
   <g id="line2d_121">
    <path clip-path="url(#pc3c0546d37)" d="M 294.6 683.32 
L 294.6 392.978992 
" style="fill:none;stroke:#ff0000;stroke-dasharray:14.8,6.4;stroke-dashoffset:0;stroke-opacity:0.7;stroke-width:4;"/>
   </g>
   <g id="line2d_122">
    <path clip-path="url(#pc3c0546d37)" d="M 294.6 683.32 
L 294.6 392.978992 
" style="fill:none;stroke:#000000;stroke-linecap:square;"/>
   </g>
   <g id="line2d_123">
    <g clip-path="url(#pc3c0546d37)">
     <use style="fill:#0000ff;stroke:#0000ff;" x="294.6" xlink:href="#mf0561e78d7" y="670.122681"/>
    </g>
   </g>
   <g id="line2d_124">
    <defs>
     <path d="M 0 -5 
L -1.12257 -1.545085 
L -4.755283 -1.545085 
L -1.816356 0.59017 
L -2.938926 4.045085 
L -0 1.90983 
L 2.938926 4.045085 
L 1.816356 0.59017 
L 4.755283 -1.545085 
L 1.12257 -1.545085 
z
" id="md44b29c1d5" style="stroke:#000000;stroke-linejoin:bevel;"/>
    </defs>
    <g clip-path="url(#pc3c0546d37)">
     <use style="stroke:#000000;stroke-linejoin:bevel;" x="294.6" xlink:href="#md44b29c1d5" y="670.122681"/>
    </g>
   </g>
   <g id="patch_15">
    <path d="M 69.31 683.32 
L 69.31 392.978992 
" style="fill:none;stroke:#000000;stroke-linecap:square;stroke-linejoin:miter;stroke-width:0.8;"/>
   </g>
   <g id="patch_16">
    <path d="M 519.89 683.32 
L 519.89 392.978992 
" style="fill:none;stroke:#000000;stroke-linecap:square;stroke-linejoin:miter;stroke-width:0.8;"/>
   </g>
   <g id="patch_17">
    <path d="M 69.31 683.32 
L 519.89 683.32 
" style="fill:none;stroke:#000000;stroke-linecap:square;stroke-linejoin:miter;stroke-width:0.8;"/>
   </g>
   <g id="patch_18">
    <path d="M 69.31 392.978992 
L 519.89 392.978992 
" style="fill:none;stroke:#000000;stroke-linecap:square;stroke-linejoin:miter;stroke-width:0.8;"/>
   </g>
   <g id="legend_3">
    <g id="patch_19">
     <path d="M 416.85 506.988992 
L 508.69 506.988992 
Q 511.89 506.988992 511.89 503.788992 
L 511.89 404.178992 
Q 511.89 400.978992 508.69 400.978992 
L 416.85 400.978992 
Q 413.65 400.978992 413.65 404.178992 
L 413.65 503.788992 
Q 413.65 506.988992 416.85 506.988992 
z
" style="fill:#ffffff;opacity:0.8;stroke:#cccccc;stroke-linejoin:miter;"/>
    </g>
    <g id="line2d_125">
     <path d="M 420.05 413.936492 
L 452.05 413.936492 
" style="fill:none;stroke:#ff0000;stroke-linecap:square;stroke-width:4;"/>
    </g>
    <g id="line2d_126"/>
    <g id="text_31">
     <!-- $V_2(t)$ -->
     <g transform="translate(464.85 419.536492)scale(0.16 -0.16)">
      <use transform="translate(0 0.125)" xlink:href="#DejaVuSans-86"/>
      <use transform="translate(69.365234 -16.28125)scale(0.7)" xlink:href="#DejaVuSans-50"/>
      <use transform="translate(116.635742 0.125)" xlink:href="#DejaVuSans-40"/>
      <use transform="translate(155.649414 0.125)" xlink:href="#DejaVuSans-116"/>
      <use transform="translate(194.858398 0.125)" xlink:href="#DejaVuSans-41"/>
     </g>
    </g>
    <g id="line2d_127">
     <path d="M 420.05 437.421492 
L 452.05 437.421492 
" style="fill:none;stroke:#1f77b4;stroke-dasharray:14.8,6.4;stroke-dashoffset:0;stroke-opacity:0.8;stroke-width:4;"/>
    </g>
    <g id="line2d_128"/>
    <g id="text_32">
     <!-- $V_{in}(t)$ -->
     <g transform="translate(464.85 443.021492)scale(0.16 -0.16)">
      <use transform="translate(0 0.125)" xlink:href="#DejaVuSans-86"/>
      <use transform="translate(69.365234 -16.28125)scale(0.7)" xlink:href="#DejaVuSans-105"/>
      <use transform="translate(88.813477 -16.28125)scale(0.7)" xlink:href="#DejaVuSans-110"/>
      <use transform="translate(135.913086 0.125)" xlink:href="#DejaVuSans-40"/>
      <use transform="translate(174.926758 0.125)" xlink:href="#DejaVuSans-116"/>
      <use transform="translate(214.135742 0.125)" xlink:href="#DejaVuSans-41"/>
     </g>
    </g>
    <g id="line2d_129">
     <path d="M 420.05 463.468992 
L 452.05 463.468992 
" style="fill:none;stroke:#008000;stroke-dasharray:25.6,6.4,4,6.4;stroke-dashoffset:0;stroke-opacity:0.7;stroke-width:4;"/>
    </g>
    <g id="line2d_130"/>
    <g id="text_33">
     <!-- $V^{in}_{dc}$ -->
     <g transform="translate(464.85 469.068992)scale(0.16 -0.16)">
      <defs>
       <path d="M 45.40625 46.390625 
L 45.40625 75.984375 
L 54.390625 75.984375 
L 54.390625 0 
L 45.40625 0 
L 45.40625 8.203125 
Q 42.578125 3.328125 38.25 0.953125 
Q 33.9375 -1.421875 27.875 -1.421875 
Q 17.96875 -1.421875 11.734375 6.484375 
Q 5.515625 14.40625 5.515625 27.296875 
Q 5.515625 40.1875 11.734375 48.09375 
Q 17.96875 56 27.875 56 
Q 33.9375 56 38.25 53.625 
Q 42.578125 51.265625 45.40625 46.390625 
z
M 14.796875 27.296875 
Q 14.796875 17.390625 18.875 11.75 
Q 22.953125 6.109375 30.078125 6.109375 
Q 37.203125 6.109375 41.296875 11.75 
Q 45.40625 17.390625 45.40625 27.296875 
Q 45.40625 37.203125 41.296875 42.84375 
Q 37.203125 48.484375 30.078125 48.484375 
Q 22.953125 48.484375 18.875 42.84375 
Q 14.796875 37.203125 14.796875 27.296875 
z
" id="DejaVuSans-100"/>
       <path d="M 48.78125 52.59375 
L 48.78125 44.1875 
Q 44.96875 46.296875 41.140625 47.34375 
Q 37.3125 48.390625 33.40625 48.390625 
Q 24.65625 48.390625 19.8125 42.84375 
Q 14.984375 37.3125 14.984375 27.296875 
Q 14.984375 17.28125 19.8125 11.734375 
Q 24.65625 6.203125 33.40625 6.203125 
Q 37.3125 6.203125 41.140625 7.25 
Q 44.96875 8.296875 48.78125 10.40625 
L 48.78125 2.09375 
Q 45.015625 0.34375 40.984375 -0.53125 
Q 36.96875 -1.421875 32.421875 -1.421875 
Q 20.0625 -1.421875 12.78125 6.34375 
Q 5.515625 14.109375 5.515625 27.296875 
Q 5.515625 40.671875 12.859375 48.328125 
Q 20.21875 56 33.015625 56 
Q 37.15625 56 41.109375 55.140625 
Q 45.0625 54.296875 48.78125 52.59375 
z
" id="DejaVuSans-99"/>
      </defs>
      <use transform="translate(0 0.465625)" xlink:href="#DejaVuSans-86"/>
      <use transform="translate(69.365234 38.810938)scale(0.7)" xlink:href="#DejaVuSans-105"/>
      <use transform="translate(88.813477 38.810938)scale(0.7)" xlink:href="#DejaVuSans-110"/>
      <use transform="translate(69.365234 -26.878125)scale(0.7)" xlink:href="#DejaVuSans-100"/>
      <use transform="translate(113.798828 -26.878125)scale(0.7)" xlink:href="#DejaVuSans-99"/>
     </g>
    </g>
    <g id="line2d_131">
     <path d="M 420.05 490.348992 
L 452.05 490.348992 
" style="fill:none;stroke:#ff0000;stroke-dasharray:14.8,6.4;stroke-dashoffset:0;stroke-opacity:0.7;stroke-width:4;"/>
    </g>
    <g id="line2d_132"/>
    <g id="text_34">
     <!-- $V^{out}_{dc}$ -->
     <g transform="translate(464.85 495.948992)scale(0.16 -0.16)">
      <use transform="translate(0 0.50625)" xlink:href="#DejaVuSans-86"/>
      <use transform="translate(69.365234 39.846875)scale(0.7)" xlink:href="#DejaVuSans-111"/>
      <use transform="translate(112.192383 39.846875)scale(0.7)" xlink:href="#DejaVuSans-117"/>
      <use transform="translate(156.557617 39.846875)scale(0.7)" xlink:href="#DejaVuSans-116"/>
      <use transform="translate(69.365234 -26.8375)scale(0.7)" xlink:href="#DejaVuSans-100"/>
      <use transform="translate(113.798828 -26.8375)scale(0.7)" xlink:href="#DejaVuSans-99"/>
     </g>
    </g>
   </g>
  </g>
  <g id="axes_4">
   <g id="patch_20">
    <path clip-path="url(#p9bef101dc6)" d="M 843.590438 545.974228 
L 837.121235 532.933008 
L 843.558092 532.933008 
L 843.558092 513.37118 
L 843.622784 513.37118 
L 843.622784 532.933008 
L 850.059641 532.933008 
z
" style="stroke:#000000;stroke-linejoin:miter;stroke-width:1.5;"/>
   </g>
   <g id="line2d_133">
    <path clip-path="url(#p9bef101dc6)" d="M 571.883905 420.995878 
" style="fill:none;stroke:#000000;stroke-linecap:round;stroke-width:1.5;"/>
   </g>
   <g id="line2d_134">
    <path clip-path="url(#p9bef101dc6)" d="M 571.883905 420.995878 
L 701.267968 420.995878 
L 706.658971 410.128195 
L 717.440976 431.86356 
L 728.222982 410.128195 
L 739.004987 431.86356 
L 749.786992 410.128195 
L 760.568997 431.86356 
L 765.96 420.995878 
L 895.344063 420.995878 
" style="fill:none;stroke:#000000;stroke-linecap:round;stroke-width:1.5;"/>
   </g>
   <g id="line2d_135">
    <path clip-path="url(#p9bef101dc6)" d="M 895.344063 420.995878 
L 895.344063 507.937338 
L 911.517071 507.937338 
L 911.517071 551.408069 
L 879.171055 551.408069 
L 879.171055 507.937338 
L 895.344063 507.937338 
M 895.344063 551.408069 
L 895.344063 638.349529 
" style="fill:none;stroke:#000000;stroke-linecap:round;stroke-width:1.5;"/>
   </g>
   <g id="line2d_136">
    <path clip-path="url(#p9bef101dc6)" d="M 895.344063 638.349529 
L 895.344063 655.737822 
L 879.171055 655.737822 
L 911.517071 655.737822 
M 884.022958 660.954309 
L 906.665169 660.954309 
M 892.109462 666.170797 
L 898.578665 666.170797 
" style="fill:none;stroke:#000000;stroke-linecap:round;stroke-width:1.5;"/>
   </g>
   <g id="line2d_137">
    <path clip-path="url(#p9bef101dc6)" d="M 895.344063 420.995878 
L 927.690079 420.995878 
L 960.036095 420.995878 
" style="fill:none;stroke:#000000;stroke-linecap:round;stroke-width:1.5;"/>
   </g>
   <g id="line2d_138">
    <path clip-path="url(#p9bef101dc6)" d="M 960.036095 420.995878 
" style="fill:none;stroke:#000000;stroke-linecap:round;stroke-width:1.5;"/>
   </g>
   <g id="patch_21">
    <path clip-path="url(#p9bef101dc6)" d="M 571.883905 424.256183 
C 573.170645 424.256183 574.404856 423.912656 575.314718 423.301261 
C 576.224581 422.689867 576.735808 421.860521 576.735808 420.995878 
C 576.735808 420.131235 576.224581 419.301889 575.314718 418.690494 
C 574.404856 418.079099 573.170645 417.735573 571.883905 417.735573 
C 570.597166 417.735573 569.362954 418.079099 568.453092 418.690494 
C 567.54323 419.301889 567.032003 420.131235 567.032003 420.995878 
C 567.032003 421.860521 567.54323 422.689867 568.453092 423.301261 
C 569.362954 423.912656 570.597166 424.256183 571.883905 424.256183 
z
" style="fill:#ffffff;stroke:#000000;stroke-linejoin:miter;stroke-width:1.5;"/>
   </g>
   <g id="patch_22">
    <path clip-path="url(#p9bef101dc6)" d="M 960.036095 424.256183 
C 961.322834 424.256183 962.557046 423.912656 963.466908 423.301261 
C 964.37677 422.689867 964.887997 421.860521 964.887997 420.995878 
C 964.887997 420.131235 964.37677 419.301889 963.466908 418.690494 
C 962.557046 418.079099 961.322834 417.735573 960.036095 417.735573 
C 958.749355 417.735573 957.515144 418.079099 956.605282 418.690494 
C 955.695419 419.301889 955.184192 420.131235 955.184192 420.995878 
C 955.184192 421.860521 955.695419 422.689867 956.605282 423.301261 
C 957.515144 423.912656 958.749355 424.256183 960.036095 424.256183 
z
" style="fill:#ffffff;stroke:#000000;stroke-linejoin:miter;stroke-width:1.5;"/>
   </g>
   <g id="text_35">
    <!-- $V_{in}$ -->
    <g transform="translate(561.003905 410.061)scale(0.16 -0.16)">
     <use transform="translate(0 0.09375)" xlink:href="#DejaVuSans-86"/>
     <use transform="translate(69.365234 -16.3125)scale(0.7)" xlink:href="#DejaVuSans-105"/>
     <use transform="translate(88.813477 -16.3125)scale(0.7)" xlink:href="#DejaVuSans-110"/>
    </g>
   </g>
   <g id="text_36">
    <!-- $R_1=100Ω$ -->
    <g transform="translate(692.973984 402.453622)scale(0.16 -0.16)">
     <defs>
      <path d="M 72.609375 8.6875 
L 72.609375 0 
L 43.3125 0 
L 43.3125 8.6875 
Q 51.953125 13.421875 56.78125 21.53125 
Q 61.625 29.640625 61.625 39.5 
Q 61.625 51.21875 55.171875 58.296875 
Q 48.734375 65.375 38.1875 65.375 
Q 27.640625 65.375 21.171875 58.265625 
Q 14.703125 51.171875 14.703125 39.5 
Q 14.703125 29.640625 19.53125 21.53125 
Q 24.421875 13.421875 33.109375 8.6875 
L 33.109375 0 
L 3.8125 0 
L 3.8125 8.6875 
L 19.390625 8.6875 
Q 11.671875 15.484375 8.109375 22.75 
Q 4.59375 30.03125 4.59375 39.015625 
Q 4.59375 54.546875 13.96875 64.15625 
Q 23.296875 73.78125 38.1875 73.78125 
Q 52.984375 73.78125 62.40625 64.15625 
Q 71.78125 54.59375 71.78125 39.5 
Q 71.78125 30.03125 68.3125 22.796875 
Q 64.84375 15.578125 56.984375 8.6875 
z
" id="DejaVuSans-937"/>
     </defs>
     <use transform="translate(0 0.78125)" xlink:href="#DejaVuSans-82"/>
     <use transform="translate(70.439453 -15.625)scale(0.7)" xlink:href="#DejaVuSans-49"/>
     <use transform="translate(137.192383 0.78125)" xlink:href="#DejaVuSans-61"/>
     <use transform="translate(240.463867 0.78125)" xlink:href="#DejaVuSans-49"/>
     <use transform="translate(304.086914 0.78125)" xlink:href="#DejaVuSans-48"/>
     <use transform="translate(367.709961 0.78125)" xlink:href="#DejaVuSans-48"/>
     <use transform="translate(431.333008 0.78125)" xlink:href="#DejaVuSans-937"/>
    </g>
   </g>
   <g id="text_37">
    <!-- $I(V)=RI$ -->
    <g transform="translate(917.986274 534.087704)scale(0.16 -0.16)">
     <use transform="translate(0 0.125)" xlink:href="#DejaVuSans-73"/>
     <use transform="translate(29.492188 0.125)" xlink:href="#DejaVuSans-40"/>
     <use transform="translate(68.505859 0.125)" xlink:href="#DejaVuSans-86"/>
     <use transform="translate(136.914062 0.125)" xlink:href="#DejaVuSans-41"/>
     <use transform="translate(195.410156 0.125)" xlink:href="#DejaVuSans-61"/>
     <use transform="translate(298.681641 0.125)" xlink:href="#DejaVuSans-82"/>
     <use transform="translate(368.164062 0.125)" xlink:href="#DejaVuSans-73"/>
    </g>
   </g>
   <g id="text_38">
    <!-- $V_{out}$ -->
    <g transform="translate(945.076095 410.061)scale(0.16 -0.16)">
     <use transform="translate(0 0.09375)" xlink:href="#DejaVuSans-86"/>
     <use transform="translate(69.365234 -16.3125)scale(0.7)" xlink:href="#DejaVuSans-111"/>
     <use transform="translate(112.192383 -16.3125)scale(0.7)" xlink:href="#DejaVuSans-117"/>
     <use transform="translate(156.557617 -16.3125)scale(0.7)" xlink:href="#DejaVuSans-116"/>
    </g>
   </g>
   <g id="text_39">
    <!-- $I$ -->
    <g transform="translate(856.528844 534.087704)scale(0.16 -0.16)">
     <use transform="translate(0 0.09375)" xlink:href="#DejaVuSans-73"/>
    </g>
   </g>
  </g>
  <g id="text_40">
   <!-- Resistor -->
   <g transform="translate(466.1315 21.789)scale(0.192 -0.192)">
    <use xlink:href="#DejaVuSans-82"/>
    <use x="64.982422" xlink:href="#DejaVuSans-101"/>
    <use x="126.505859" xlink:href="#DejaVuSans-115"/>
    <use x="178.605469" xlink:href="#DejaVuSans-105"/>
    <use x="206.388672" xlink:href="#DejaVuSans-115"/>
    <use x="258.488281" xlink:href="#DejaVuSans-116"/>
    <use x="297.697266" xlink:href="#DejaVuSans-111"/>
    <use x="358.878906" xlink:href="#DejaVuSans-114"/>
   </g>
  </g>
 </g>
 <defs>
  <clipPath id="pb74f0e67c3">
   <rect height="290.341008" width="450.58" x="69.31" y="75.16"/>
  </clipPath>
  <clipPath id="p3a319dc739">
   <rect height="290.341008" width="450.58" x="540.67" y="75.16"/>
  </clipPath>
  <clipPath id="pc3c0546d37">
   <rect height="290.341008" width="450.58" x="69.31" y="392.978992"/>
  </clipPath>
  <clipPath id="p9bef101dc6">
   <rect height="290.341008" width="450.58" x="540.67" y="392.978992"/>
  </clipPath>
 </defs>
</svg>
