<?xml version="1.0" encoding="utf-8" standalone="no"?>
<!DOCTYPE svg PUBLIC "-//W3C//DTD SVG 1.1//EN"
  "http://www.w3.org/Graphics/SVG/1.1/DTD/svg11.dtd">
<!-- Created with matplotlib (https://matplotlib.org/) -->
<svg height="341.44875pt" version="1.1" viewBox="0 0 531.4525 341.44875" width="531.4525pt" xmlns="http://www.w3.org/2000/svg" xmlns:xlink="http://www.w3.org/1999/xlink">
 <defs>
  <style type="text/css">
*{stroke-linecap:butt;stroke-linejoin:round;}
  </style>
 </defs>
 <g id="figure_1">
  <g id="patch_1">
   <path d="M 0 341.44875 
L 531.4525 341.44875 
L 531.4525 0 
L 0 0 
z
" style="fill:none;"/>
  </g>
  <g id="axes_1">
   <g id="patch_2">
    <path d="M 67.4525 292.27875 
L 391.4525 292.27875 
L 391.4525 13.27875 
L 67.4525 13.27875 
z
" style="fill:#ffffff;"/>
   </g>
   <g id="line2d_1">
    <path clip-path="url(#p485c029555)" d="M 67.4525 152.77875 
L 70.725227 152.77875 
L 73.997955 152.77875 
L 77.270682 152.77875 
L 80.543409 152.77875 
L 83.816136 152.77875 
L 87.088864 152.77875 
L 90.361591 152.77875 
L 93.634318 152.77875 
L 96.907045 152.77875 
L 100.179773 152.77875 
L 103.4525 152.77875 
L 106.725227 152.77875 
L 109.997955 152.77875 
L 113.270682 152.77875 
L 116.543409 152.77875 
L 119.816136 152.77875 
L 123.088864 152.77875 
L 126.361591 152.77875 
L 129.634318 152.77875 
L 132.907045 152.77875 
L 136.179773 152.77875 
L 139.4525 152.77875 
L 142.725227 152.77875 
L 145.997955 152.77875 
L 149.270682 152.77875 
L 152.543409 152.77875 
L 155.816136 152.77875 
L 159.088864 152.77875 
L 162.361591 152.77875 
L 165.634318 152.77875 
L 168.907045 152.77875 
L 172.179773 152.77875 
L 175.4525 152.77875 
L 178.725227 152.77875 
L 181.997955 152.77875 
L 185.270682 152.77875 
L 188.543409 152.77875 
L 191.816136 152.77875 
L 195.088864 152.77875 
L 198.361591 152.77875 
L 201.634318 152.77875 
L 204.907045 152.77875 
L 208.179773 152.77875 
L 211.4525 152.77875 
L 214.725227 152.77875 
L 217.997955 152.77875 
L 221.270682 152.77875 
L 224.543409 152.77875 
L 227.816136 152.77875 
L 231.088864 152.77875 
L 234.361591 152.77875 
L 237.634318 152.77875 
L 240.907045 152.77875 
L 244.179773 152.77875 
L 247.4525 152.77875 
L 250.725227 152.77875 
L 253.997955 152.77875 
L 257.270682 152.77875 
L 260.543409 152.77875 
L 263.816136 152.77875 
L 267.088864 152.77875 
L 269.393145 -1 
" style="fill:none;stroke:#000000;stroke-linecap:square;stroke-width:4;"/>
   </g>
   <g id="matplotlib.axis_1">
    <g id="xtick_1">
     <g id="line2d_2">
      <path clip-path="url(#p485c029555)" d="M 99.8525 292.27875 
L 99.8525 13.27875 
" style="fill:none;stroke:#b0b0b0;stroke-linecap:square;stroke-width:0.8;"/>
     </g>
     <g id="line2d_3">
      <defs>
       <path d="M 0 0 
L 0 3.5 
" id="mdd9e253839" style="stroke:#000000;stroke-width:0.8;"/>
      </defs>
      <g>
       <use style="stroke:#000000;stroke-width:0.8;" x="99.8525" xlink:href="#mdd9e253839" y="292.27875"/>
      </g>
     </g>
     <g id="text_1">
      <!-- −2 -->
      <defs>
       <path d="M 10.59375 35.5 
L 73.1875 35.5 
L 73.1875 27.203125 
L 10.59375 27.203125 
z
" id="DejaVuSans-8722"/>
       <path d="M 19.1875 8.296875 
L 53.609375 8.296875 
L 53.609375 0 
L 7.328125 0 
L 7.328125 8.296875 
Q 12.9375 14.109375 22.625 23.890625 
Q 32.328125 33.6875 34.8125 36.53125 
Q 39.546875 41.84375 41.421875 45.53125 
Q 43.3125 49.21875 43.3125 52.78125 
Q 43.3125 58.59375 39.234375 62.25 
Q 35.15625 65.921875 28.609375 65.921875 
Q 23.96875 65.921875 18.8125 64.3125 
Q 13.671875 62.703125 7.8125 59.421875 
L 7.8125 69.390625 
Q 13.765625 71.78125 18.9375 73 
Q 24.125 74.21875 28.421875 74.21875 
Q 39.75 74.21875 46.484375 68.546875 
Q 53.21875 62.890625 53.21875 53.421875 
Q 53.21875 48.921875 51.53125 44.890625 
Q 49.859375 40.875 45.40625 35.40625 
Q 44.1875 33.984375 37.640625 27.21875 
Q 31.109375 20.453125 19.1875 8.296875 
z
" id="DejaVuSans-50"/>
      </defs>
      <g transform="translate(88.05875 311.43625)scale(0.16 -0.16)">
       <use xlink:href="#DejaVuSans-8722"/>
       <use x="83.789062" xlink:href="#DejaVuSans-50"/>
      </g>
     </g>
    </g>
    <g id="xtick_2">
     <g id="line2d_4">
      <path clip-path="url(#p485c029555)" d="M 164.6525 292.27875 
L 164.6525 13.27875 
" style="fill:none;stroke:#b0b0b0;stroke-linecap:square;stroke-width:0.8;"/>
     </g>
     <g id="line2d_5">
      <g>
       <use style="stroke:#000000;stroke-width:0.8;" x="164.6525" xlink:href="#mdd9e253839" y="292.27875"/>
      </g>
     </g>
     <g id="text_2">
      <!-- −1 -->
      <defs>
       <path d="M 12.40625 8.296875 
L 28.515625 8.296875 
L 28.515625 63.921875 
L 10.984375 60.40625 
L 10.984375 69.390625 
L 28.421875 72.90625 
L 38.28125 72.90625 
L 38.28125 8.296875 
L 54.390625 8.296875 
L 54.390625 0 
L 12.40625 0 
z
" id="DejaVuSans-49"/>
      </defs>
      <g transform="translate(152.85875 311.43625)scale(0.16 -0.16)">
       <use xlink:href="#DejaVuSans-8722"/>
       <use x="83.789062" xlink:href="#DejaVuSans-49"/>
      </g>
     </g>
    </g>
    <g id="xtick_3">
     <g id="line2d_6">
      <path clip-path="url(#p485c029555)" d="M 229.4525 292.27875 
L 229.4525 13.27875 
" style="fill:none;stroke:#b0b0b0;stroke-linecap:square;stroke-width:0.8;"/>
     </g>
     <g id="line2d_7">
      <g>
       <use style="stroke:#000000;stroke-width:0.8;" x="229.4525" xlink:href="#mdd9e253839" y="292.27875"/>
      </g>
     </g>
     <g id="text_3">
      <!-- 0 -->
      <defs>
       <path d="M 31.78125 66.40625 
Q 24.171875 66.40625 20.328125 58.90625 
Q 16.5 51.421875 16.5 36.375 
Q 16.5 21.390625 20.328125 13.890625 
Q 24.171875 6.390625 31.78125 6.390625 
Q 39.453125 6.390625 43.28125 13.890625 
Q 47.125 21.390625 47.125 36.375 
Q 47.125 51.421875 43.28125 58.90625 
Q 39.453125 66.40625 31.78125 66.40625 
z
M 31.78125 74.21875 
Q 44.046875 74.21875 50.515625 64.515625 
Q 56.984375 54.828125 56.984375 36.375 
Q 56.984375 17.96875 50.515625 8.265625 
Q 44.046875 -1.421875 31.78125 -1.421875 
Q 19.53125 -1.421875 13.0625 8.265625 
Q 6.59375 17.96875 6.59375 36.375 
Q 6.59375 54.828125 13.0625 64.515625 
Q 19.53125 74.21875 31.78125 74.21875 
z
" id="DejaVuSans-48"/>
      </defs>
      <g transform="translate(224.3625 311.43625)scale(0.16 -0.16)">
       <use xlink:href="#DejaVuSans-48"/>
      </g>
     </g>
    </g>
    <g id="xtick_4">
     <g id="line2d_8">
      <path clip-path="url(#p485c029555)" d="M 294.2525 292.27875 
L 294.2525 13.27875 
" style="fill:none;stroke:#b0b0b0;stroke-linecap:square;stroke-width:0.8;"/>
     </g>
     <g id="line2d_9">
      <g>
       <use style="stroke:#000000;stroke-width:0.8;" x="294.2525" xlink:href="#mdd9e253839" y="292.27875"/>
      </g>
     </g>
     <g id="text_4">
      <!-- 1 -->
      <g transform="translate(289.1625 311.43625)scale(0.16 -0.16)">
       <use xlink:href="#DejaVuSans-49"/>
      </g>
     </g>
    </g>
    <g id="xtick_5">
     <g id="line2d_10">
      <path clip-path="url(#p485c029555)" d="M 359.0525 292.27875 
L 359.0525 13.27875 
" style="fill:none;stroke:#b0b0b0;stroke-linecap:square;stroke-width:0.8;"/>
     </g>
     <g id="line2d_11">
      <g>
       <use style="stroke:#000000;stroke-width:0.8;" x="359.0525" xlink:href="#mdd9e253839" y="292.27875"/>
      </g>
     </g>
     <g id="text_5">
      <!-- 2 -->
      <g transform="translate(353.9625 311.43625)scale(0.16 -0.16)">
       <use xlink:href="#DejaVuSans-50"/>
      </g>
     </g>
    </g>
    <g id="text_6">
     <!-- Tensão (V) -->
     <defs>
      <path d="M -0.296875 72.90625 
L 61.375 72.90625 
L 61.375 64.59375 
L 35.5 64.59375 
L 35.5 0 
L 25.59375 0 
L 25.59375 64.59375 
L -0.296875 64.59375 
z
" id="DejaVuSans-84"/>
      <path d="M 56.203125 29.59375 
L 56.203125 25.203125 
L 14.890625 25.203125 
Q 15.484375 15.921875 20.484375 11.0625 
Q 25.484375 6.203125 34.421875 6.203125 
Q 39.59375 6.203125 44.453125 7.46875 
Q 49.3125 8.734375 54.109375 11.28125 
L 54.109375 2.78125 
Q 49.265625 0.734375 44.1875 -0.34375 
Q 39.109375 -1.421875 33.890625 -1.421875 
Q 20.796875 -1.421875 13.15625 6.1875 
Q 5.515625 13.8125 5.515625 26.8125 
Q 5.515625 40.234375 12.765625 48.109375 
Q 20.015625 56 32.328125 56 
Q 43.359375 56 49.78125 48.890625 
Q 56.203125 41.796875 56.203125 29.59375 
z
M 47.21875 32.234375 
Q 47.125 39.59375 43.09375 43.984375 
Q 39.0625 48.390625 32.421875 48.390625 
Q 24.90625 48.390625 20.390625 44.140625 
Q 15.875 39.890625 15.1875 32.171875 
z
" id="DejaVuSans-101"/>
      <path d="M 54.890625 33.015625 
L 54.890625 0 
L 45.90625 0 
L 45.90625 32.71875 
Q 45.90625 40.484375 42.875 44.328125 
Q 39.84375 48.1875 33.796875 48.1875 
Q 26.515625 48.1875 22.3125 43.546875 
Q 18.109375 38.921875 18.109375 30.90625 
L 18.109375 0 
L 9.078125 0 
L 9.078125 54.6875 
L 18.109375 54.6875 
L 18.109375 46.1875 
Q 21.34375 51.125 25.703125 53.5625 
Q 30.078125 56 35.796875 56 
Q 45.21875 56 50.046875 50.171875 
Q 54.890625 44.34375 54.890625 33.015625 
z
" id="DejaVuSans-110"/>
      <path d="M 44.28125 53.078125 
L 44.28125 44.578125 
Q 40.484375 46.53125 36.375 47.5 
Q 32.28125 48.484375 27.875 48.484375 
Q 21.1875 48.484375 17.84375 46.4375 
Q 14.5 44.390625 14.5 40.28125 
Q 14.5 37.15625 16.890625 35.375 
Q 19.28125 33.59375 26.515625 31.984375 
L 29.59375 31.296875 
Q 39.15625 29.25 43.1875 25.515625 
Q 47.21875 21.78125 47.21875 15.09375 
Q 47.21875 7.46875 41.1875 3.015625 
Q 35.15625 -1.421875 24.609375 -1.421875 
Q 20.21875 -1.421875 15.453125 -0.5625 
Q 10.6875 0.296875 5.421875 2 
L 5.421875 11.28125 
Q 10.40625 8.6875 15.234375 7.390625 
Q 20.0625 6.109375 24.8125 6.109375 
Q 31.15625 6.109375 34.5625 8.28125 
Q 37.984375 10.453125 37.984375 14.40625 
Q 37.984375 18.0625 35.515625 20.015625 
Q 33.0625 21.96875 24.703125 23.78125 
L 21.578125 24.515625 
Q 13.234375 26.265625 9.515625 29.90625 
Q 5.8125 33.546875 5.8125 39.890625 
Q 5.8125 47.609375 11.28125 51.796875 
Q 16.75 56 26.8125 56 
Q 31.78125 56 36.171875 55.265625 
Q 40.578125 54.546875 44.28125 53.078125 
z
" id="DejaVuSans-115"/>
      <path d="M 34.28125 27.484375 
Q 23.390625 27.484375 19.1875 25 
Q 14.984375 22.515625 14.984375 16.5 
Q 14.984375 11.71875 18.140625 8.90625 
Q 21.296875 6.109375 26.703125 6.109375 
Q 34.1875 6.109375 38.703125 11.40625 
Q 43.21875 16.703125 43.21875 25.484375 
L 43.21875 27.484375 
z
M 52.203125 31.203125 
L 52.203125 0 
L 43.21875 0 
L 43.21875 8.296875 
Q 40.140625 3.328125 35.546875 0.953125 
Q 30.953125 -1.421875 24.3125 -1.421875 
Q 15.921875 -1.421875 10.953125 3.296875 
Q 6 8.015625 6 15.921875 
Q 6 25.140625 12.171875 29.828125 
Q 18.359375 34.515625 30.609375 34.515625 
L 43.21875 34.515625 
L 43.21875 35.40625 
Q 43.21875 41.609375 39.140625 45 
Q 35.0625 48.390625 27.6875 48.390625 
Q 23 48.390625 18.546875 47.265625 
Q 14.109375 46.140625 10.015625 43.890625 
L 10.015625 52.203125 
Q 14.9375 54.109375 19.578125 55.046875 
Q 24.21875 56 28.609375 56 
Q 40.484375 56 46.34375 49.84375 
Q 52.203125 43.703125 52.203125 31.203125 
z
M 28.8125 66.890625 
L 26.015625 69.578125 
Q 24.953125 70.5625 24.140625 71.015625 
Q 23.34375 71.484375 22.703125 71.484375 
Q 20.84375 71.484375 19.96875 69.703125 
Q 19.09375 67.921875 18.984375 63.921875 
L 12.890625 63.921875 
Q 12.984375 70.515625 15.46875 74.09375 
Q 17.96875 77.6875 22.40625 77.6875 
Q 24.265625 77.6875 25.828125 77 
Q 27.390625 76.3125 29.203125 74.703125 
L 31.984375 72.015625 
Q 33.046875 71.046875 33.859375 70.578125 
Q 34.671875 70.125 35.296875 70.125 
Q 37.15625 70.125 38.03125 71.90625 
Q 38.90625 73.6875 39.015625 77.6875 
L 45.109375 77.6875 
Q 45.015625 71.09375 42.515625 67.5 
Q 40.03125 63.921875 35.59375 63.921875 
Q 33.734375 63.921875 32.171875 64.59375 
Q 30.609375 65.28125 28.8125 66.890625 
z
" id="DejaVuSans-227"/>
      <path d="M 30.609375 48.390625 
Q 23.390625 48.390625 19.1875 42.75 
Q 14.984375 37.109375 14.984375 27.296875 
Q 14.984375 17.484375 19.15625 11.84375 
Q 23.34375 6.203125 30.609375 6.203125 
Q 37.796875 6.203125 41.984375 11.859375 
Q 46.1875 17.53125 46.1875 27.296875 
Q 46.1875 37.015625 41.984375 42.703125 
Q 37.796875 48.390625 30.609375 48.390625 
z
M 30.609375 56 
Q 42.328125 56 49.015625 48.375 
Q 55.71875 40.765625 55.71875 27.296875 
Q 55.71875 13.875 49.015625 6.21875 
Q 42.328125 -1.421875 30.609375 -1.421875 
Q 18.84375 -1.421875 12.171875 6.21875 
Q 5.515625 13.875 5.515625 27.296875 
Q 5.515625 40.765625 12.171875 48.375 
Q 18.84375 56 30.609375 56 
z
" id="DejaVuSans-111"/>
      <path id="DejaVuSans-32"/>
      <path d="M 31 75.875 
Q 24.46875 64.65625 21.28125 53.65625 
Q 18.109375 42.671875 18.109375 31.390625 
Q 18.109375 20.125 21.3125 9.0625 
Q 24.515625 -2 31 -13.1875 
L 23.1875 -13.1875 
Q 15.875 -1.703125 12.234375 9.375 
Q 8.59375 20.453125 8.59375 31.390625 
Q 8.59375 42.28125 12.203125 53.3125 
Q 15.828125 64.359375 23.1875 75.875 
z
" id="DejaVuSans-40"/>
      <path d="M 28.609375 0 
L 0.78125 72.90625 
L 11.078125 72.90625 
L 34.1875 11.53125 
L 57.328125 72.90625 
L 67.578125 72.90625 
L 39.796875 0 
z
" id="DejaVuSans-86"/>
      <path d="M 8.015625 75.875 
L 15.828125 75.875 
Q 23.140625 64.359375 26.78125 53.3125 
Q 30.421875 42.28125 30.421875 31.390625 
Q 30.421875 20.453125 26.78125 9.375 
Q 23.140625 -1.703125 15.828125 -13.1875 
L 8.015625 -13.1875 
Q 14.5 -2 17.703125 9.0625 
Q 20.90625 20.125 20.90625 31.390625 
Q 20.90625 42.671875 17.703125 53.65625 
Q 14.5 64.65625 8.015625 75.875 
z
" id="DejaVuSans-41"/>
     </defs>
     <g transform="translate(187.71125 330.92125)scale(0.16 -0.16)">
      <use xlink:href="#DejaVuSans-84"/>
      <use x="44.083984" xlink:href="#DejaVuSans-101"/>
      <use x="105.607422" xlink:href="#DejaVuSans-110"/>
      <use x="168.986328" xlink:href="#DejaVuSans-115"/>
      <use x="221.085938" xlink:href="#DejaVuSans-227"/>
      <use x="282.365234" xlink:href="#DejaVuSans-111"/>
      <use x="343.546875" xlink:href="#DejaVuSans-32"/>
      <use x="375.333984" xlink:href="#DejaVuSans-40"/>
      <use x="414.347656" xlink:href="#DejaVuSans-86"/>
      <use x="482.755859" xlink:href="#DejaVuSans-41"/>
     </g>
    </g>
   </g>
   <g id="matplotlib.axis_2">
    <g id="ytick_1">
     <g id="line2d_12">
      <path clip-path="url(#p485c029555)" d="M 67.4525 292.27875 
L 391.4525 292.27875 
" style="fill:none;stroke:#b0b0b0;stroke-linecap:square;stroke-width:0.8;"/>
     </g>
     <g id="line2d_13">
      <defs>
       <path d="M 0 0 
L -3.5 0 
" id="m1995d61abe" style="stroke:#000000;stroke-width:0.8;"/>
      </defs>
      <g>
       <use style="stroke:#000000;stroke-width:0.8;" x="67.4525" xlink:href="#m1995d61abe" y="292.27875"/>
      </g>
     </g>
     <g id="text_7">
      <!-- −20 -->
      <g transform="translate(26.685 298.3575)scale(0.16 -0.16)">
       <use xlink:href="#DejaVuSans-8722"/>
       <use x="83.789062" xlink:href="#DejaVuSans-50"/>
       <use x="147.412109" xlink:href="#DejaVuSans-48"/>
      </g>
     </g>
    </g>
    <g id="ytick_2">
     <g id="line2d_14">
      <path clip-path="url(#p485c029555)" d="M 67.4525 257.40375 
L 391.4525 257.40375 
" style="fill:none;stroke:#b0b0b0;stroke-linecap:square;stroke-width:0.8;"/>
     </g>
     <g id="line2d_15">
      <g>
       <use style="stroke:#000000;stroke-width:0.8;" x="67.4525" xlink:href="#m1995d61abe" y="257.40375"/>
      </g>
     </g>
     <g id="text_8">
      <!-- −15 -->
      <defs>
       <path d="M 10.796875 72.90625 
L 49.515625 72.90625 
L 49.515625 64.59375 
L 19.828125 64.59375 
L 19.828125 46.734375 
Q 21.96875 47.46875 24.109375 47.828125 
Q 26.265625 48.1875 28.421875 48.1875 
Q 40.625 48.1875 47.75 41.5 
Q 54.890625 34.8125 54.890625 23.390625 
Q 54.890625 11.625 47.5625 5.09375 
Q 40.234375 -1.421875 26.90625 -1.421875 
Q 22.3125 -1.421875 17.546875 -0.640625 
Q 12.796875 0.140625 7.71875 1.703125 
L 7.71875 11.625 
Q 12.109375 9.234375 16.796875 8.0625 
Q 21.484375 6.890625 26.703125 6.890625 
Q 35.15625 6.890625 40.078125 11.328125 
Q 45.015625 15.765625 45.015625 23.390625 
Q 45.015625 31 40.078125 35.4375 
Q 35.15625 39.890625 26.703125 39.890625 
Q 22.75 39.890625 18.8125 39.015625 
Q 14.890625 38.140625 10.796875 36.28125 
z
" id="DejaVuSans-53"/>
      </defs>
      <g transform="translate(26.685 263.4825)scale(0.16 -0.16)">
       <use xlink:href="#DejaVuSans-8722"/>
       <use x="83.789062" xlink:href="#DejaVuSans-49"/>
       <use x="147.412109" xlink:href="#DejaVuSans-53"/>
      </g>
     </g>
    </g>
    <g id="ytick_3">
     <g id="line2d_16">
      <path clip-path="url(#p485c029555)" d="M 67.4525 222.52875 
L 391.4525 222.52875 
" style="fill:none;stroke:#b0b0b0;stroke-linecap:square;stroke-width:0.8;"/>
     </g>
     <g id="line2d_17">
      <g>
       <use style="stroke:#000000;stroke-width:0.8;" x="67.4525" xlink:href="#m1995d61abe" y="222.52875"/>
      </g>
     </g>
     <g id="text_9">
      <!-- −10 -->
      <g transform="translate(26.685 228.6075)scale(0.16 -0.16)">
       <use xlink:href="#DejaVuSans-8722"/>
       <use x="83.789062" xlink:href="#DejaVuSans-49"/>
       <use x="147.412109" xlink:href="#DejaVuSans-48"/>
      </g>
     </g>
    </g>
    <g id="ytick_4">
     <g id="line2d_18">
      <path clip-path="url(#p485c029555)" d="M 67.4525 187.65375 
L 391.4525 187.65375 
" style="fill:none;stroke:#b0b0b0;stroke-linecap:square;stroke-width:0.8;"/>
     </g>
     <g id="line2d_19">
      <g>
       <use style="stroke:#000000;stroke-width:0.8;" x="67.4525" xlink:href="#m1995d61abe" y="187.65375"/>
      </g>
     </g>
     <g id="text_10">
      <!-- −5 -->
      <g transform="translate(36.865 193.7325)scale(0.16 -0.16)">
       <use xlink:href="#DejaVuSans-8722"/>
       <use x="83.789062" xlink:href="#DejaVuSans-53"/>
      </g>
     </g>
    </g>
    <g id="ytick_5">
     <g id="line2d_20">
      <path clip-path="url(#p485c029555)" d="M 67.4525 152.77875 
L 391.4525 152.77875 
" style="fill:none;stroke:#b0b0b0;stroke-linecap:square;stroke-width:0.8;"/>
     </g>
     <g id="line2d_21">
      <g>
       <use style="stroke:#000000;stroke-width:0.8;" x="67.4525" xlink:href="#m1995d61abe" y="152.77875"/>
      </g>
     </g>
     <g id="text_11">
      <!-- 0 -->
      <g transform="translate(50.2725 158.8575)scale(0.16 -0.16)">
       <use xlink:href="#DejaVuSans-48"/>
      </g>
     </g>
    </g>
    <g id="ytick_6">
     <g id="line2d_22">
      <path clip-path="url(#p485c029555)" d="M 67.4525 117.90375 
L 391.4525 117.90375 
" style="fill:none;stroke:#b0b0b0;stroke-linecap:square;stroke-width:0.8;"/>
     </g>
     <g id="line2d_23">
      <g>
       <use style="stroke:#000000;stroke-width:0.8;" x="67.4525" xlink:href="#m1995d61abe" y="117.90375"/>
      </g>
     </g>
     <g id="text_12">
      <!-- 5 -->
      <g transform="translate(50.2725 123.9825)scale(0.16 -0.16)">
       <use xlink:href="#DejaVuSans-53"/>
      </g>
     </g>
    </g>
    <g id="ytick_7">
     <g id="line2d_24">
      <path clip-path="url(#p485c029555)" d="M 67.4525 83.02875 
L 391.4525 83.02875 
" style="fill:none;stroke:#b0b0b0;stroke-linecap:square;stroke-width:0.8;"/>
     </g>
     <g id="line2d_25">
      <g>
       <use style="stroke:#000000;stroke-width:0.8;" x="67.4525" xlink:href="#m1995d61abe" y="83.02875"/>
      </g>
     </g>
     <g id="text_13">
      <!-- 10 -->
      <g transform="translate(40.0925 89.1075)scale(0.16 -0.16)">
       <use xlink:href="#DejaVuSans-49"/>
       <use x="63.623047" xlink:href="#DejaVuSans-48"/>
      </g>
     </g>
    </g>
    <g id="ytick_8">
     <g id="line2d_26">
      <path clip-path="url(#p485c029555)" d="M 67.4525 48.15375 
L 391.4525 48.15375 
" style="fill:none;stroke:#b0b0b0;stroke-linecap:square;stroke-width:0.8;"/>
     </g>
     <g id="line2d_27">
      <g>
       <use style="stroke:#000000;stroke-width:0.8;" x="67.4525" xlink:href="#m1995d61abe" y="48.15375"/>
      </g>
     </g>
     <g id="text_14">
      <!-- 15 -->
      <g transform="translate(40.0925 54.2325)scale(0.16 -0.16)">
       <use xlink:href="#DejaVuSans-49"/>
       <use x="63.623047" xlink:href="#DejaVuSans-53"/>
      </g>
     </g>
    </g>
    <g id="ytick_9">
     <g id="line2d_28">
      <path clip-path="url(#p485c029555)" d="M 67.4525 13.27875 
L 391.4525 13.27875 
" style="fill:none;stroke:#b0b0b0;stroke-linecap:square;stroke-width:0.8;"/>
     </g>
     <g id="line2d_29">
      <g>
       <use style="stroke:#000000;stroke-width:0.8;" x="67.4525" xlink:href="#m1995d61abe" y="13.27875"/>
      </g>
     </g>
     <g id="text_15">
      <!-- 20 -->
      <g transform="translate(40.0925 19.3575)scale(0.16 -0.16)">
       <use xlink:href="#DejaVuSans-50"/>
       <use x="63.623047" xlink:href="#DejaVuSans-48"/>
      </g>
     </g>
    </g>
    <g id="text_16">
     <!-- Corrente (mA) -->
     <defs>
      <path d="M 64.40625 67.28125 
L 64.40625 56.890625 
Q 59.421875 61.53125 53.78125 63.8125 
Q 48.140625 66.109375 41.796875 66.109375 
Q 29.296875 66.109375 22.65625 58.46875 
Q 16.015625 50.828125 16.015625 36.375 
Q 16.015625 21.96875 22.65625 14.328125 
Q 29.296875 6.6875 41.796875 6.6875 
Q 48.140625 6.6875 53.78125 8.984375 
Q 59.421875 11.28125 64.40625 15.921875 
L 64.40625 5.609375 
Q 59.234375 2.09375 53.4375 0.328125 
Q 47.65625 -1.421875 41.21875 -1.421875 
Q 24.65625 -1.421875 15.125 8.703125 
Q 5.609375 18.84375 5.609375 36.375 
Q 5.609375 53.953125 15.125 64.078125 
Q 24.65625 74.21875 41.21875 74.21875 
Q 47.75 74.21875 53.53125 72.484375 
Q 59.328125 70.75 64.40625 67.28125 
z
" id="DejaVuSans-67"/>
      <path d="M 41.109375 46.296875 
Q 39.59375 47.171875 37.8125 47.578125 
Q 36.03125 48 33.890625 48 
Q 26.265625 48 22.1875 43.046875 
Q 18.109375 38.09375 18.109375 28.8125 
L 18.109375 0 
L 9.078125 0 
L 9.078125 54.6875 
L 18.109375 54.6875 
L 18.109375 46.1875 
Q 20.953125 51.171875 25.484375 53.578125 
Q 30.03125 56 36.53125 56 
Q 37.453125 56 38.578125 55.875 
Q 39.703125 55.765625 41.0625 55.515625 
z
" id="DejaVuSans-114"/>
      <path d="M 18.3125 70.21875 
L 18.3125 54.6875 
L 36.8125 54.6875 
L 36.8125 47.703125 
L 18.3125 47.703125 
L 18.3125 18.015625 
Q 18.3125 11.328125 20.140625 9.421875 
Q 21.96875 7.515625 27.59375 7.515625 
L 36.8125 7.515625 
L 36.8125 0 
L 27.59375 0 
Q 17.1875 0 13.234375 3.875 
Q 9.28125 7.765625 9.28125 18.015625 
L 9.28125 47.703125 
L 2.6875 47.703125 
L 2.6875 54.6875 
L 9.28125 54.6875 
L 9.28125 70.21875 
z
" id="DejaVuSans-116"/>
      <path d="M 52 44.1875 
Q 55.375 50.25 60.0625 53.125 
Q 64.75 56 71.09375 56 
Q 79.640625 56 84.28125 50.015625 
Q 88.921875 44.046875 88.921875 33.015625 
L 88.921875 0 
L 79.890625 0 
L 79.890625 32.71875 
Q 79.890625 40.578125 77.09375 44.375 
Q 74.3125 48.1875 68.609375 48.1875 
Q 61.625 48.1875 57.5625 43.546875 
Q 53.515625 38.921875 53.515625 30.90625 
L 53.515625 0 
L 44.484375 0 
L 44.484375 32.71875 
Q 44.484375 40.625 41.703125 44.40625 
Q 38.921875 48.1875 33.109375 48.1875 
Q 26.21875 48.1875 22.15625 43.53125 
Q 18.109375 38.875 18.109375 30.90625 
L 18.109375 0 
L 9.078125 0 
L 9.078125 54.6875 
L 18.109375 54.6875 
L 18.109375 46.1875 
Q 21.1875 51.21875 25.484375 53.609375 
Q 29.78125 56 35.6875 56 
Q 41.65625 56 45.828125 52.96875 
Q 50 49.953125 52 44.1875 
z
" id="DejaVuSans-109"/>
      <path d="M 34.1875 63.1875 
L 20.796875 26.90625 
L 47.609375 26.90625 
z
M 28.609375 72.90625 
L 39.796875 72.90625 
L 67.578125 0 
L 57.328125 0 
L 50.6875 18.703125 
L 17.828125 18.703125 
L 11.1875 0 
L 0.78125 0 
z
" id="DejaVuSans-65"/>
     </defs>
     <g transform="translate(19.3575 209.61875)rotate(-90)scale(0.16 -0.16)">
      <use xlink:href="#DejaVuSans-67"/>
      <use x="69.824219" xlink:href="#DejaVuSans-111"/>
      <use x="131.005859" xlink:href="#DejaVuSans-114"/>
      <use x="170.369141" xlink:href="#DejaVuSans-114"/>
      <use x="209.232422" xlink:href="#DejaVuSans-101"/>
      <use x="270.755859" xlink:href="#DejaVuSans-110"/>
      <use x="334.134766" xlink:href="#DejaVuSans-116"/>
      <use x="373.34375" xlink:href="#DejaVuSans-101"/>
      <use x="434.867188" xlink:href="#DejaVuSans-32"/>
      <use x="466.654297" xlink:href="#DejaVuSans-40"/>
      <use x="505.667969" xlink:href="#DejaVuSans-109"/>
      <use x="603.080078" xlink:href="#DejaVuSans-65"/>
      <use x="671.488281" xlink:href="#DejaVuSans-41"/>
     </g>
    </g>
   </g>
   <g id="line2d_30">
    <path clip-path="url(#p485c029555)" d="M 99.8525 152.77875 
L 99.8525 152.77875 
L 99.8525 152.77875 
L 99.8525 152.77875 
L 99.8525 152.77875 
L 99.8525 152.77875 
L 99.8525 152.77875 
L 99.8525 152.77875 
L 99.8525 152.77875 
L 99.8525 152.77875 
L 99.8525 152.77875 
L 99.8525 152.77875 
L 99.8525 152.77875 
L 99.8525 152.77875 
L 99.8525 152.77875 
L 99.8525 152.77875 
L 99.8525 152.77875 
L 99.8525 152.77875 
L 99.8525 152.77875 
L 99.8525 152.77875 
L 99.8525 152.77875 
L 99.8525 152.77875 
L 99.8525 152.77875 
L 99.8525 152.77875 
L 99.8525 152.77875 
L 99.8525 152.77875 
L 99.8525 152.77875 
L 99.8525 152.77875 
L 99.8525 152.77875 
L 99.8525 152.77875 
L 99.8525 152.77875 
L 99.8525 152.77875 
L 99.8525 152.77875 
L 99.8525 152.77875 
L 99.8525 152.77875 
L 99.8525 152.77875 
L 99.8525 152.77875 
L 99.8525 152.77875 
L 99.8525 152.77875 
L 99.8525 152.77875 
L 99.8525 152.77875 
L 99.8525 152.77875 
L 99.8525 152.77875 
L 99.8525 152.77875 
L 99.8525 152.77875 
L 99.8525 152.77875 
L 99.8525 152.77875 
L 99.8525 152.77875 
L 99.8525 152.77875 
L 99.8525 152.77875 
L 99.8525 152.77875 
L 99.8525 152.77875 
L 99.8525 152.77875 
L 99.8525 152.77875 
L 99.8525 152.77875 
L 99.8525 152.77875 
L 99.8525 152.77875 
L 99.8525 152.77875 
L 99.8525 152.77875 
L 99.8525 152.77875 
L 99.8525 152.77875 
L 99.8525 152.77875 
L -1 44.22224 
" style="fill:none;stroke:#1f77b4;stroke-linecap:square;stroke-width:4;"/>
   </g>
   <g id="line2d_31">
    <path clip-path="url(#p485c029555)" d="M 164.6525 152.77875 
L 164.6525 152.77875 
L 164.6525 152.77875 
L 164.6525 152.77875 
L 164.6525 152.77875 
L 164.6525 152.77875 
L 164.6525 152.77875 
L 164.6525 152.77875 
L 164.6525 152.77875 
L 164.6525 152.77875 
L 164.6525 152.77875 
L 164.6525 152.77875 
L 164.6525 152.77875 
L 164.6525 152.77875 
L 164.6525 152.77875 
L 164.6525 152.77875 
L 164.6525 152.77875 
L 164.6525 152.77875 
L 164.6525 152.77875 
L 164.6525 152.77875 
L 164.6525 152.77875 
L 164.6525 152.77875 
L 164.6525 152.77875 
L 164.6525 152.77875 
L 164.6525 152.77875 
L 164.6525 152.77875 
L 164.6525 152.77875 
L 164.6525 152.77875 
L 164.6525 152.77875 
L 164.6525 152.77875 
L 164.6525 152.77875 
L 164.6525 152.77875 
L 164.6525 152.77875 
L 164.6525 152.77875 
L 164.6525 152.77875 
L 164.6525 152.77875 
L 164.6525 152.77875 
L 164.6525 152.77875 
L 164.6525 152.77875 
L 164.6525 152.77875 
L 164.6525 152.77875 
L 164.6525 152.77875 
L 164.6525 152.77875 
L 164.6525 152.77875 
L 164.6525 152.77875 
L 164.6525 152.77875 
L 164.6525 152.77875 
L 164.6525 152.77875 
L 164.6525 152.77875 
L 164.6525 152.77875 
L 164.6525 152.77875 
L 164.6525 152.77875 
L 164.6525 152.77875 
L 164.6525 152.77875 
L 164.6525 152.77875 
L 164.6525 152.77875 
L 164.6525 152.77875 
L 164.6525 152.77875 
L 164.6525 152.77875 
L 164.6525 152.77875 
L 164.6525 152.77875 
L 164.6525 152.77875 
L 21.787081 -1 
" style="fill:none;stroke:#ff7f0e;stroke-linecap:square;stroke-width:4;"/>
   </g>
   <g id="line2d_32">
    <path clip-path="url(#p485c029555)" d="M 229.4525 152.77875 
L 229.4525 152.77875 
L 229.4525 152.77875 
L 229.4525 152.77875 
L 229.4525 152.77875 
L 229.4525 152.77875 
L 229.4525 152.77875 
L 229.4525 152.77875 
L 229.4525 152.77875 
L 229.4525 152.77875 
L 229.4525 152.77875 
L 229.4525 152.77875 
L 229.4525 152.77875 
L 229.4525 152.77875 
L 229.4525 152.77875 
L 229.4525 152.77875 
L 229.4525 152.77875 
L 229.4525 152.77875 
L 229.4525 152.77875 
L 229.4525 152.77875 
L 229.4525 152.77875 
L 229.4525 152.77875 
L 229.4525 152.77875 
L 229.4525 152.77875 
L 229.4525 152.77875 
L 229.4525 152.77875 
L 229.4525 152.77875 
L 229.4525 152.77875 
L 229.4525 152.77875 
L 229.4525 152.77875 
L 229.4525 152.77875 
L 229.4525 152.77875 
L 229.4525 152.77875 
L 229.4525 152.77875 
L 229.4525 152.77875 
L 229.4525 152.77875 
L 229.4525 152.77875 
L 229.4525 152.77875 
L 229.4525 152.77875 
L 229.4525 152.77875 
L 229.4525 152.77875 
L 229.4525 152.77875 
L 229.4525 152.77875 
L 229.4525 152.77875 
L 229.4525 152.77875 
L 229.4525 152.77875 
L 229.4525 152.77875 
L 229.4525 152.77875 
L 229.4525 152.77875 
L 229.4525 152.77875 
L 229.4525 152.77875 
L 229.4525 152.77875 
L 229.4525 152.77875 
L 229.4525 152.77875 
L 229.4525 152.77875 
L 229.4525 152.77875 
L 229.4525 152.77875 
L 229.4525 152.77875 
L 229.4525 152.77875 
L 229.4525 152.77875 
L 229.4525 152.77875 
L 229.4525 152.77875 
L 86.587081 -1 
" style="fill:none;stroke:#2ca02c;stroke-linecap:square;stroke-width:4;"/>
   </g>
   <g id="line2d_33">
    <path clip-path="url(#p485c029555)" d="M 294.2525 152.77875 
L 294.2525 152.77875 
L 294.2525 152.77875 
L 294.2525 152.77875 
L 294.2525 152.77875 
L 294.2525 152.77875 
L 294.2525 152.77875 
L 294.2525 152.77875 
L 294.2525 152.77875 
L 294.2525 152.77875 
L 294.2525 152.77875 
L 294.2525 152.77875 
L 294.2525 152.77875 
L 294.2525 152.77875 
L 294.2525 152.77875 
L 294.2525 152.77875 
L 294.2525 152.77875 
L 294.2525 152.77875 
L 294.2525 152.77875 
L 294.2525 152.77875 
L 294.2525 152.77875 
L 294.2525 152.77875 
L 294.2525 152.77875 
L 294.2525 152.77875 
L 294.2525 152.77875 
L 294.2525 152.77875 
L 294.2525 152.77875 
L 294.2525 152.77875 
L 294.2525 152.77875 
L 294.2525 152.77875 
L 294.2525 152.77875 
L 294.2525 152.77875 
L 294.2525 152.77875 
L 294.2525 152.77875 
L 294.2525 152.77875 
L 294.2525 152.77875 
L 294.2525 152.77875 
L 294.2525 152.77875 
L 294.2525 152.77875 
L 294.2525 152.77875 
L 294.2525 152.77875 
L 294.2525 152.77875 
L 294.2525 152.77875 
L 294.2525 152.77875 
L 294.2525 152.77875 
L 294.2525 152.77875 
L 294.2525 152.77875 
L 294.2525 152.77875 
L 294.2525 152.77875 
L 294.2525 152.77875 
L 294.2525 152.77875 
L 294.2525 152.77875 
L 294.2525 152.77875 
L 294.2525 152.77875 
L 294.2525 152.77875 
L 294.2525 152.77875 
L 294.2525 152.77875 
L 294.2525 152.77875 
L 294.2525 152.77875 
L 294.2525 152.77875 
L 294.2525 152.77875 
L 294.2525 152.77875 
L 151.387081 -1 
" style="fill:none;stroke:#d62728;stroke-linecap:square;stroke-width:4;"/>
   </g>
   <g id="line2d_34">
    <path clip-path="url(#p485c029555)" d="M 359.0525 152.77875 
L 359.0525 152.77875 
L 359.0525 152.77875 
L 359.0525 152.77875 
L 359.0525 152.77875 
L 359.0525 152.77875 
L 359.0525 152.77875 
L 359.0525 152.77875 
L 359.0525 152.77875 
L 359.0525 152.77875 
L 359.0525 152.77875 
L 359.0525 152.77875 
L 359.0525 152.77875 
L 359.0525 152.77875 
L 359.0525 152.77875 
L 359.0525 152.77875 
L 359.0525 152.77875 
L 359.0525 152.77875 
L 359.0525 152.77875 
L 359.0525 152.77875 
L 359.0525 152.77875 
L 359.0525 152.77875 
L 359.0525 152.77875 
L 359.0525 152.77875 
L 359.0525 152.77875 
L 359.0525 152.77875 
L 359.0525 152.77875 
L 359.0525 152.77875 
L 359.0525 152.77875 
L 359.0525 152.77875 
L 359.0525 152.77875 
L 359.0525 152.77875 
L 359.0525 152.77875 
L 359.0525 152.77875 
L 359.0525 152.77875 
L 359.0525 152.77875 
L 359.0525 152.77875 
L 359.0525 152.77875 
L 359.0525 152.77875 
L 359.0525 152.77875 
L 359.0525 152.77875 
L 359.0525 152.77875 
L 359.0525 152.77875 
L 359.0525 152.77875 
L 359.0525 152.77875 
L 359.0525 152.77875 
L 359.0525 152.77875 
L 359.0525 152.77875 
L 359.0525 152.77875 
L 359.0525 152.77875 
L 359.0525 152.77875 
L 359.0525 152.77875 
L 359.0525 152.77875 
L 359.0525 152.77875 
L 359.0525 152.77875 
L 359.0525 152.77875 
L 359.0525 152.77875 
L 359.0525 152.77875 
L 359.0525 152.77875 
L 359.0525 152.77875 
L 359.0525 152.77875 
L 359.0525 152.77875 
L 216.187081 -1 
" style="fill:none;stroke:#9467bd;stroke-linecap:square;stroke-width:4;"/>
   </g>
   <g id="line2d_35">
    <path clip-path="url(#p485c029555)" d="M 229.4525 292.27875 
L 229.4525 13.27875 
" style="fill:none;stroke:#000000;stroke-linecap:square;stroke-width:1.5;"/>
   </g>
   <g id="line2d_36">
    <path clip-path="url(#p485c029555)" d="M 67.4525 152.77875 
L 391.4525 152.77875 
" style="fill:none;stroke:#000000;stroke-linecap:square;stroke-width:1.5;"/>
   </g>
   <g id="patch_3">
    <path d="M 67.4525 292.27875 
L 67.4525 13.27875 
" style="fill:none;stroke:#000000;stroke-linecap:square;stroke-linejoin:miter;stroke-width:0.8;"/>
   </g>
   <g id="patch_4">
    <path d="M 391.4525 292.27875 
L 391.4525 13.27875 
" style="fill:none;stroke:#000000;stroke-linecap:square;stroke-linejoin:miter;stroke-width:0.8;"/>
   </g>
   <g id="patch_5">
    <path d="M 67.4525 292.27875 
L 391.4525 292.27875 
" style="fill:none;stroke:#000000;stroke-linecap:square;stroke-linejoin:miter;stroke-width:0.8;"/>
   </g>
   <g id="patch_6">
    <path d="M 67.4525 13.27875 
L 391.4525 13.27875 
" style="fill:none;stroke:#000000;stroke-linecap:square;stroke-linejoin:miter;stroke-width:0.8;"/>
   </g>
   <g id="PathCollection_1">
    <defs>
     <path d="M 0 5 
C 1.326016 5 2.597899 4.473168 3.535534 3.535534 
C 4.473168 2.597899 5 1.326016 5 0 
C 5 -1.326016 4.473168 -2.597899 3.535534 -3.535534 
C 2.597899 -4.473168 1.326016 -5 0 -5 
C -1.326016 -5 -2.597899 -4.473168 -3.535534 -3.535534 
C -4.473168 -2.597899 -5 -1.326016 -5 0 
C -5 1.326016 -4.473168 2.597899 -3.535534 3.535534 
C -2.597899 4.473168 -1.326016 5 0 5 
z
" id="m4d863754b6" style="stroke:#ff0000;"/>
    </defs>
    <g clip-path="url(#p485c029555)">
     <use style="fill:#ff0000;stroke:#ff0000;" x="99.8525" xlink:href="#m4d863754b6" y="152.77875"/>
    </g>
   </g>
   <g id="PathCollection_2">
    <g clip-path="url(#p485c029555)">
     <use style="fill:#ff0000;stroke:#ff0000;" x="164.6525" xlink:href="#m4d863754b6" y="152.77875"/>
    </g>
   </g>
   <g id="PathCollection_3">
    <g clip-path="url(#p485c029555)">
     <use style="fill:#ff0000;stroke:#ff0000;" x="229.4525" xlink:href="#m4d863754b6" y="152.77875"/>
    </g>
   </g>
   <g id="PathCollection_4">
    <g clip-path="url(#p485c029555)">
     <use style="fill:#ff0000;stroke:#ff0000;" x="268.589134" xlink:href="#m4d863754b6" y="125.154988"/>
    </g>
   </g>
   <g id="PathCollection_5">
    <g clip-path="url(#p485c029555)">
     <use style="fill:#ff0000;stroke:#ff0000;" x="269.230718" xlink:href="#m4d863754b6" y="56.095582"/>
    </g>
   </g>
   <g id="legend_1">
    <g id="patch_7">
     <path d="M 402.6525 225.63375 
L 521.0525 225.63375 
Q 524.2525 225.63375 524.2525 222.43375 
L 524.2525 83.12375 
Q 524.2525 79.92375 521.0525 79.92375 
L 402.6525 79.92375 
Q 399.4525 79.92375 399.4525 83.12375 
L 399.4525 222.43375 
Q 399.4525 225.63375 402.6525 225.63375 
z
" style="fill:#ffffff;opacity:0.8;stroke:#cccccc;stroke-linejoin:miter;"/>
    </g>
    <g id="line2d_37">
     <path d="M 405.8525 92.88125 
L 437.8525 92.88125 
" style="fill:none;stroke:#000000;stroke-linecap:square;stroke-width:4;"/>
    </g>
    <g id="line2d_38"/>
    <g id="text_17">
     <!-- $I(V)$ -->
     <defs>
      <path d="M 9.8125 72.90625 
L 19.671875 72.90625 
L 19.671875 0 
L 9.8125 0 
z
" id="DejaVuSans-73"/>
     </defs>
     <g transform="translate(450.6525 98.48125)scale(0.16 -0.16)">
      <use transform="translate(0 0.125)" xlink:href="#DejaVuSans-73"/>
      <use transform="translate(29.492188 0.125)" xlink:href="#DejaVuSans-40"/>
      <use transform="translate(68.505859 0.125)" xlink:href="#DejaVuSans-86"/>
      <use transform="translate(136.914062 0.125)" xlink:href="#DejaVuSans-41"/>
     </g>
    </g>
    <g id="line2d_39">
     <path d="M 405.8525 116.36625 
L 437.8525 116.36625 
" style="fill:none;stroke:#1f77b4;stroke-linecap:square;stroke-width:4;"/>
    </g>
    <g id="line2d_40"/>
    <g id="text_18">
     <!-- $V_{in}$=-2 V -->
     <defs>
      <path d="M 9.421875 54.6875 
L 18.40625 54.6875 
L 18.40625 0 
L 9.421875 0 
z
M 9.421875 75.984375 
L 18.40625 75.984375 
L 18.40625 64.59375 
L 9.421875 64.59375 
z
" id="DejaVuSans-105"/>
      <path d="M 10.59375 45.40625 
L 73.1875 45.40625 
L 73.1875 37.203125 
L 10.59375 37.203125 
z
M 10.59375 25.484375 
L 73.1875 25.484375 
L 73.1875 17.1875 
L 10.59375 17.1875 
z
" id="DejaVuSans-61"/>
      <path d="M 4.890625 31.390625 
L 31.203125 31.390625 
L 31.203125 23.390625 
L 4.890625 23.390625 
z
" id="DejaVuSans-45"/>
     </defs>
     <g transform="translate(450.6525 121.96625)scale(0.16 -0.16)">
      <use transform="translate(0 0.78125)" xlink:href="#DejaVuSans-86"/>
      <use transform="translate(69.365234 -15.625)scale(0.7)" xlink:href="#DejaVuSans-105"/>
      <use transform="translate(88.813477 -15.625)scale(0.7)" xlink:href="#DejaVuSans-110"/>
      <use transform="translate(135.913086 0.78125)" xlink:href="#DejaVuSans-61"/>
      <use transform="translate(219.702148 0.78125)" xlink:href="#DejaVuSans-45"/>
      <use transform="translate(255.786133 0.78125)" xlink:href="#DejaVuSans-50"/>
      <use transform="translate(319.40918 0.78125)" xlink:href="#DejaVuSans-32"/>
      <use transform="translate(351.196289 0.78125)" xlink:href="#DejaVuSans-86"/>
     </g>
    </g>
    <g id="line2d_41">
     <path d="M 405.8525 139.85125 
L 437.8525 139.85125 
" style="fill:none;stroke:#ff7f0e;stroke-linecap:square;stroke-width:4;"/>
    </g>
    <g id="line2d_42"/>
    <g id="text_19">
     <!-- $V_{in}$=-1 V -->
     <g transform="translate(450.6525 145.45125)scale(0.16 -0.16)">
      <use transform="translate(0 0.09375)" xlink:href="#DejaVuSans-86"/>
      <use transform="translate(69.365234 -16.3125)scale(0.7)" xlink:href="#DejaVuSans-105"/>
      <use transform="translate(88.813477 -16.3125)scale(0.7)" xlink:href="#DejaVuSans-110"/>
      <use transform="translate(135.913086 0.09375)" xlink:href="#DejaVuSans-61"/>
      <use transform="translate(219.702148 0.09375)" xlink:href="#DejaVuSans-45"/>
      <use transform="translate(255.786133 0.09375)" xlink:href="#DejaVuSans-49"/>
      <use transform="translate(319.40918 0.09375)" xlink:href="#DejaVuSans-32"/>
      <use transform="translate(351.196289 0.09375)" xlink:href="#DejaVuSans-86"/>
     </g>
    </g>
    <g id="line2d_43">
     <path d="M 405.8525 163.33625 
L 437.8525 163.33625 
" style="fill:none;stroke:#2ca02c;stroke-linecap:square;stroke-width:4;"/>
    </g>
    <g id="line2d_44"/>
    <g id="text_20">
     <!-- $V_{in}$= 0 V -->
     <g transform="translate(450.6525 168.93625)scale(0.16 -0.16)">
      <use transform="translate(0 0.78125)" xlink:href="#DejaVuSans-86"/>
      <use transform="translate(69.365234 -15.625)scale(0.7)" xlink:href="#DejaVuSans-105"/>
      <use transform="translate(88.813477 -15.625)scale(0.7)" xlink:href="#DejaVuSans-110"/>
      <use transform="translate(135.913086 0.78125)" xlink:href="#DejaVuSans-61"/>
      <use transform="translate(219.702148 0.78125)" xlink:href="#DejaVuSans-32"/>
      <use transform="translate(251.489258 0.78125)" xlink:href="#DejaVuSans-48"/>
      <use transform="translate(315.112305 0.78125)" xlink:href="#DejaVuSans-32"/>
      <use transform="translate(346.899414 0.78125)" xlink:href="#DejaVuSans-86"/>
     </g>
    </g>
    <g id="line2d_45">
     <path d="M 405.8525 186.82125 
L 437.8525 186.82125 
" style="fill:none;stroke:#d62728;stroke-linecap:square;stroke-width:4;"/>
    </g>
    <g id="line2d_46"/>
    <g id="text_21">
     <!-- $V_{in}$= 1 V -->
     <g transform="translate(450.6525 192.42125)scale(0.16 -0.16)">
      <use transform="translate(0 0.09375)" xlink:href="#DejaVuSans-86"/>
      <use transform="translate(69.365234 -16.3125)scale(0.7)" xlink:href="#DejaVuSans-105"/>
      <use transform="translate(88.813477 -16.3125)scale(0.7)" xlink:href="#DejaVuSans-110"/>
      <use transform="translate(135.913086 0.09375)" xlink:href="#DejaVuSans-61"/>
      <use transform="translate(219.702148 0.09375)" xlink:href="#DejaVuSans-32"/>
      <use transform="translate(251.489258 0.09375)" xlink:href="#DejaVuSans-49"/>
      <use transform="translate(315.112305 0.09375)" xlink:href="#DejaVuSans-32"/>
      <use transform="translate(346.899414 0.09375)" xlink:href="#DejaVuSans-86"/>
     </g>
    </g>
    <g id="line2d_47">
     <path d="M 405.8525 210.30625 
L 437.8525 210.30625 
" style="fill:none;stroke:#9467bd;stroke-linecap:square;stroke-width:4;"/>
    </g>
    <g id="line2d_48"/>
    <g id="text_22">
     <!-- $V_{in}$= 2 V -->
     <g transform="translate(450.6525 215.90625)scale(0.16 -0.16)">
      <use transform="translate(0 0.78125)" xlink:href="#DejaVuSans-86"/>
      <use transform="translate(69.365234 -15.625)scale(0.7)" xlink:href="#DejaVuSans-105"/>
      <use transform="translate(88.813477 -15.625)scale(0.7)" xlink:href="#DejaVuSans-110"/>
      <use transform="translate(135.913086 0.78125)" xlink:href="#DejaVuSans-61"/>
      <use transform="translate(219.702148 0.78125)" xlink:href="#DejaVuSans-32"/>
      <use transform="translate(251.489258 0.78125)" xlink:href="#DejaVuSans-50"/>
      <use transform="translate(315.112305 0.78125)" xlink:href="#DejaVuSans-32"/>
      <use transform="translate(346.899414 0.78125)" xlink:href="#DejaVuSans-86"/>
     </g>
    </g>
   </g>
  </g>
 </g>
 <defs>
  <clipPath id="p485c029555">
   <rect height="279" width="324" x="67.4525" y="13.27875"/>
  </clipPath>
 </defs>
</svg>
