<?xml version="1.0" encoding="utf-8" standalone="no"?>
<!DOCTYPE svg PUBLIC "-//W3C//DTD SVG 1.1//EN"
  "http://www.w3.org/Graphics/SVG/1.1/DTD/svg11.dtd">
<!-- Created with matplotlib (https://matplotlib.org/) -->
<svg height="300.162pt" version="1.1" viewBox="0 0 457.405 300.162" width="457.405pt" xmlns="http://www.w3.org/2000/svg" xmlns:xlink="http://www.w3.org/1999/xlink">
 <defs>
  <style type="text/css">
*{stroke-linecap:butt;stroke-linejoin:round;}
  </style>
 </defs>
 <g id="figure_1">
  <g id="patch_1">
   <path d="M 0 300.162 
L 457.405 300.162 
L 457.405 0 
L 0 0 
z
" style="fill:none;"/>
  </g>
  <g id="axes_1">
   <g id="patch_2">
    <path d="M 54.045 250.992 
L 313.245 250.992 
L 313.245 27.792 
L 54.045 27.792 
z
" style="fill:#ffffff;"/>
   </g>
   <g id="PathCollection_1">
    <defs>
     <path d="M 0 5 
C 1.326016 5 2.597899 4.473168 3.535534 3.535534 
C 4.473168 2.597899 5 1.326016 5 0 
C 5 -1.326016 4.473168 -2.597899 3.535534 -3.535534 
C 2.597899 -4.473168 1.326016 -5 0 -5 
C -1.326016 -5 -2.597899 -4.473168 -3.535534 -3.535534 
C -4.473168 -2.597899 -5 -1.326016 -5 0 
C -5 1.326016 -4.473168 2.597899 -3.535534 3.535534 
C -2.597899 4.473168 -1.326016 5 0 5 
z
" id="maa86759692" style="stroke:#ff0000;"/>
    </defs>
    <g clip-path="url(#pe3152bf015)">
     <use style="fill:#ff0000;stroke:#ff0000;" x="91.845" xlink:href="#maa86759692" y="223.937455"/>
    </g>
   </g>
   <g id="PathCollection_2">
    <g clip-path="url(#pe3152bf015)">
     <use style="fill:#ff0000;stroke:#ff0000;" x="129.645" xlink:href="#maa86759692" y="207.028364"/>
    </g>
   </g>
   <g id="PathCollection_3">
    <g clip-path="url(#pe3152bf015)">
     <use style="fill:#ff0000;stroke:#ff0000;" x="167.445" xlink:href="#maa86759692" y="190.119273"/>
    </g>
   </g>
   <g id="PathCollection_4">
    <g clip-path="url(#pe3152bf015)">
     <use style="fill:#ff0000;stroke:#ff0000;" x="205.245" xlink:href="#maa86759692" y="173.210182"/>
    </g>
   </g>
   <g id="matplotlib.axis_1">
    <g id="xtick_1">
     <g id="line2d_1">
      <path clip-path="url(#pe3152bf015)" d="M 54.045 250.992 
L 54.045 27.792 
" style="fill:none;stroke:#b0b0b0;stroke-linecap:square;stroke-width:0.8;"/>
     </g>
     <g id="line2d_2">
      <defs>
       <path d="M 0 0 
L 0 3.5 
" id="m1860beba5b" style="stroke:#000000;stroke-width:0.8;"/>
      </defs>
      <g>
       <use style="stroke:#000000;stroke-width:0.8;" x="54.045" xlink:href="#m1860beba5b" y="250.992"/>
      </g>
     </g>
     <g id="text_1">
      <!-- 0 -->
      <defs>
       <path d="M 31.78125 66.40625 
Q 24.171875 66.40625 20.328125 58.90625 
Q 16.5 51.421875 16.5 36.375 
Q 16.5 21.390625 20.328125 13.890625 
Q 24.171875 6.390625 31.78125 6.390625 
Q 39.453125 6.390625 43.28125 13.890625 
Q 47.125 21.390625 47.125 36.375 
Q 47.125 51.421875 43.28125 58.90625 
Q 39.453125 66.40625 31.78125 66.40625 
z
M 31.78125 74.21875 
Q 44.046875 74.21875 50.515625 64.515625 
Q 56.984375 54.828125 56.984375 36.375 
Q 56.984375 17.96875 50.515625 8.265625 
Q 44.046875 -1.421875 31.78125 -1.421875 
Q 19.53125 -1.421875 13.0625 8.265625 
Q 6.59375 17.96875 6.59375 36.375 
Q 6.59375 54.828125 13.0625 64.515625 
Q 19.53125 74.21875 31.78125 74.21875 
z
" id="DejaVuSans-48"/>
      </defs>
      <g transform="translate(48.955 270.1495)scale(0.16 -0.16)">
       <use xlink:href="#DejaVuSans-48"/>
      </g>
     </g>
    </g>
    <g id="xtick_2">
     <g id="line2d_3">
      <path clip-path="url(#pe3152bf015)" d="M 118.845 250.992 
L 118.845 27.792 
" style="fill:none;stroke:#b0b0b0;stroke-linecap:square;stroke-width:0.8;"/>
     </g>
     <g id="line2d_4">
      <g>
       <use style="stroke:#000000;stroke-width:0.8;" x="118.845" xlink:href="#m1860beba5b" y="250.992"/>
      </g>
     </g>
     <g id="text_2">
      <!-- 1 -->
      <defs>
       <path d="M 12.40625 8.296875 
L 28.515625 8.296875 
L 28.515625 63.921875 
L 10.984375 60.40625 
L 10.984375 69.390625 
L 28.421875 72.90625 
L 38.28125 72.90625 
L 38.28125 8.296875 
L 54.390625 8.296875 
L 54.390625 0 
L 12.40625 0 
z
" id="DejaVuSans-49"/>
      </defs>
      <g transform="translate(113.755 270.1495)scale(0.16 -0.16)">
       <use xlink:href="#DejaVuSans-49"/>
      </g>
     </g>
    </g>
    <g id="xtick_3">
     <g id="line2d_5">
      <path clip-path="url(#pe3152bf015)" d="M 183.645 250.992 
L 183.645 27.792 
" style="fill:none;stroke:#b0b0b0;stroke-linecap:square;stroke-width:0.8;"/>
     </g>
     <g id="line2d_6">
      <g>
       <use style="stroke:#000000;stroke-width:0.8;" x="183.645" xlink:href="#m1860beba5b" y="250.992"/>
      </g>
     </g>
     <g id="text_3">
      <!-- 2 -->
      <defs>
       <path d="M 19.1875 8.296875 
L 53.609375 8.296875 
L 53.609375 0 
L 7.328125 0 
L 7.328125 8.296875 
Q 12.9375 14.109375 22.625 23.890625 
Q 32.328125 33.6875 34.8125 36.53125 
Q 39.546875 41.84375 41.421875 45.53125 
Q 43.3125 49.21875 43.3125 52.78125 
Q 43.3125 58.59375 39.234375 62.25 
Q 35.15625 65.921875 28.609375 65.921875 
Q 23.96875 65.921875 18.8125 64.3125 
Q 13.671875 62.703125 7.8125 59.421875 
L 7.8125 69.390625 
Q 13.765625 71.78125 18.9375 73 
Q 24.125 74.21875 28.421875 74.21875 
Q 39.75 74.21875 46.484375 68.546875 
Q 53.21875 62.890625 53.21875 53.421875 
Q 53.21875 48.921875 51.53125 44.890625 
Q 49.859375 40.875 45.40625 35.40625 
Q 44.1875 33.984375 37.640625 27.21875 
Q 31.109375 20.453125 19.1875 8.296875 
z
" id="DejaVuSans-50"/>
      </defs>
      <g transform="translate(178.555 270.1495)scale(0.16 -0.16)">
       <use xlink:href="#DejaVuSans-50"/>
      </g>
     </g>
    </g>
    <g id="xtick_4">
     <g id="line2d_7">
      <path clip-path="url(#pe3152bf015)" d="M 248.445 250.992 
L 248.445 27.792 
" style="fill:none;stroke:#b0b0b0;stroke-linecap:square;stroke-width:0.8;"/>
     </g>
     <g id="line2d_8">
      <g>
       <use style="stroke:#000000;stroke-width:0.8;" x="248.445" xlink:href="#m1860beba5b" y="250.992"/>
      </g>
     </g>
     <g id="text_4">
      <!-- 3 -->
      <defs>
       <path d="M 40.578125 39.3125 
Q 47.65625 37.796875 51.625 33 
Q 55.609375 28.21875 55.609375 21.1875 
Q 55.609375 10.40625 48.1875 4.484375 
Q 40.765625 -1.421875 27.09375 -1.421875 
Q 22.515625 -1.421875 17.65625 -0.515625 
Q 12.796875 0.390625 7.625 2.203125 
L 7.625 11.71875 
Q 11.71875 9.328125 16.59375 8.109375 
Q 21.484375 6.890625 26.8125 6.890625 
Q 36.078125 6.890625 40.9375 10.546875 
Q 45.796875 14.203125 45.796875 21.1875 
Q 45.796875 27.640625 41.28125 31.265625 
Q 36.765625 34.90625 28.71875 34.90625 
L 20.21875 34.90625 
L 20.21875 43.015625 
L 29.109375 43.015625 
Q 36.375 43.015625 40.234375 45.921875 
Q 44.09375 48.828125 44.09375 54.296875 
Q 44.09375 59.90625 40.109375 62.90625 
Q 36.140625 65.921875 28.71875 65.921875 
Q 24.65625 65.921875 20.015625 65.03125 
Q 15.375 64.15625 9.8125 62.3125 
L 9.8125 71.09375 
Q 15.4375 72.65625 20.34375 73.4375 
Q 25.25 74.21875 29.59375 74.21875 
Q 40.828125 74.21875 47.359375 69.109375 
Q 53.90625 64.015625 53.90625 55.328125 
Q 53.90625 49.265625 50.4375 45.09375 
Q 46.96875 40.921875 40.578125 39.3125 
z
" id="DejaVuSans-51"/>
      </defs>
      <g transform="translate(243.355 270.1495)scale(0.16 -0.16)">
       <use xlink:href="#DejaVuSans-51"/>
      </g>
     </g>
    </g>
    <g id="xtick_5">
     <g id="line2d_9">
      <path clip-path="url(#pe3152bf015)" d="M 313.245 250.992 
L 313.245 27.792 
" style="fill:none;stroke:#b0b0b0;stroke-linecap:square;stroke-width:0.8;"/>
     </g>
     <g id="line2d_10">
      <g>
       <use style="stroke:#000000;stroke-width:0.8;" x="313.245" xlink:href="#m1860beba5b" y="250.992"/>
      </g>
     </g>
     <g id="text_5">
      <!-- 4 -->
      <defs>
       <path d="M 37.796875 64.3125 
L 12.890625 25.390625 
L 37.796875 25.390625 
z
M 35.203125 72.90625 
L 47.609375 72.90625 
L 47.609375 25.390625 
L 58.015625 25.390625 
L 58.015625 17.1875 
L 47.609375 17.1875 
L 47.609375 0 
L 37.796875 0 
L 37.796875 17.1875 
L 4.890625 17.1875 
L 4.890625 26.703125 
z
" id="DejaVuSans-52"/>
      </defs>
      <g transform="translate(308.155 270.1495)scale(0.16 -0.16)">
       <use xlink:href="#DejaVuSans-52"/>
      </g>
     </g>
    </g>
    <g id="text_6">
     <!-- Tensão (V) -->
     <defs>
      <path d="M -0.296875 72.90625 
L 61.375 72.90625 
L 61.375 64.59375 
L 35.5 64.59375 
L 35.5 0 
L 25.59375 0 
L 25.59375 64.59375 
L -0.296875 64.59375 
z
" id="DejaVuSans-84"/>
      <path d="M 56.203125 29.59375 
L 56.203125 25.203125 
L 14.890625 25.203125 
Q 15.484375 15.921875 20.484375 11.0625 
Q 25.484375 6.203125 34.421875 6.203125 
Q 39.59375 6.203125 44.453125 7.46875 
Q 49.3125 8.734375 54.109375 11.28125 
L 54.109375 2.78125 
Q 49.265625 0.734375 44.1875 -0.34375 
Q 39.109375 -1.421875 33.890625 -1.421875 
Q 20.796875 -1.421875 13.15625 6.1875 
Q 5.515625 13.8125 5.515625 26.8125 
Q 5.515625 40.234375 12.765625 48.109375 
Q 20.015625 56 32.328125 56 
Q 43.359375 56 49.78125 48.890625 
Q 56.203125 41.796875 56.203125 29.59375 
z
M 47.21875 32.234375 
Q 47.125 39.59375 43.09375 43.984375 
Q 39.0625 48.390625 32.421875 48.390625 
Q 24.90625 48.390625 20.390625 44.140625 
Q 15.875 39.890625 15.1875 32.171875 
z
" id="DejaVuSans-101"/>
      <path d="M 54.890625 33.015625 
L 54.890625 0 
L 45.90625 0 
L 45.90625 32.71875 
Q 45.90625 40.484375 42.875 44.328125 
Q 39.84375 48.1875 33.796875 48.1875 
Q 26.515625 48.1875 22.3125 43.546875 
Q 18.109375 38.921875 18.109375 30.90625 
L 18.109375 0 
L 9.078125 0 
L 9.078125 54.6875 
L 18.109375 54.6875 
L 18.109375 46.1875 
Q 21.34375 51.125 25.703125 53.5625 
Q 30.078125 56 35.796875 56 
Q 45.21875 56 50.046875 50.171875 
Q 54.890625 44.34375 54.890625 33.015625 
z
" id="DejaVuSans-110"/>
      <path d="M 44.28125 53.078125 
L 44.28125 44.578125 
Q 40.484375 46.53125 36.375 47.5 
Q 32.28125 48.484375 27.875 48.484375 
Q 21.1875 48.484375 17.84375 46.4375 
Q 14.5 44.390625 14.5 40.28125 
Q 14.5 37.15625 16.890625 35.375 
Q 19.28125 33.59375 26.515625 31.984375 
L 29.59375 31.296875 
Q 39.15625 29.25 43.1875 25.515625 
Q 47.21875 21.78125 47.21875 15.09375 
Q 47.21875 7.46875 41.1875 3.015625 
Q 35.15625 -1.421875 24.609375 -1.421875 
Q 20.21875 -1.421875 15.453125 -0.5625 
Q 10.6875 0.296875 5.421875 2 
L 5.421875 11.28125 
Q 10.40625 8.6875 15.234375 7.390625 
Q 20.0625 6.109375 24.8125 6.109375 
Q 31.15625 6.109375 34.5625 8.28125 
Q 37.984375 10.453125 37.984375 14.40625 
Q 37.984375 18.0625 35.515625 20.015625 
Q 33.0625 21.96875 24.703125 23.78125 
L 21.578125 24.515625 
Q 13.234375 26.265625 9.515625 29.90625 
Q 5.8125 33.546875 5.8125 39.890625 
Q 5.8125 47.609375 11.28125 51.796875 
Q 16.75 56 26.8125 56 
Q 31.78125 56 36.171875 55.265625 
Q 40.578125 54.546875 44.28125 53.078125 
z
" id="DejaVuSans-115"/>
      <path d="M 34.28125 27.484375 
Q 23.390625 27.484375 19.1875 25 
Q 14.984375 22.515625 14.984375 16.5 
Q 14.984375 11.71875 18.140625 8.90625 
Q 21.296875 6.109375 26.703125 6.109375 
Q 34.1875 6.109375 38.703125 11.40625 
Q 43.21875 16.703125 43.21875 25.484375 
L 43.21875 27.484375 
z
M 52.203125 31.203125 
L 52.203125 0 
L 43.21875 0 
L 43.21875 8.296875 
Q 40.140625 3.328125 35.546875 0.953125 
Q 30.953125 -1.421875 24.3125 -1.421875 
Q 15.921875 -1.421875 10.953125 3.296875 
Q 6 8.015625 6 15.921875 
Q 6 25.140625 12.171875 29.828125 
Q 18.359375 34.515625 30.609375 34.515625 
L 43.21875 34.515625 
L 43.21875 35.40625 
Q 43.21875 41.609375 39.140625 45 
Q 35.0625 48.390625 27.6875 48.390625 
Q 23 48.390625 18.546875 47.265625 
Q 14.109375 46.140625 10.015625 43.890625 
L 10.015625 52.203125 
Q 14.9375 54.109375 19.578125 55.046875 
Q 24.21875 56 28.609375 56 
Q 40.484375 56 46.34375 49.84375 
Q 52.203125 43.703125 52.203125 31.203125 
z
M 28.8125 66.890625 
L 26.015625 69.578125 
Q 24.953125 70.5625 24.140625 71.015625 
Q 23.34375 71.484375 22.703125 71.484375 
Q 20.84375 71.484375 19.96875 69.703125 
Q 19.09375 67.921875 18.984375 63.921875 
L 12.890625 63.921875 
Q 12.984375 70.515625 15.46875 74.09375 
Q 17.96875 77.6875 22.40625 77.6875 
Q 24.265625 77.6875 25.828125 77 
Q 27.390625 76.3125 29.203125 74.703125 
L 31.984375 72.015625 
Q 33.046875 71.046875 33.859375 70.578125 
Q 34.671875 70.125 35.296875 70.125 
Q 37.15625 70.125 38.03125 71.90625 
Q 38.90625 73.6875 39.015625 77.6875 
L 45.109375 77.6875 
Q 45.015625 71.09375 42.515625 67.5 
Q 40.03125 63.921875 35.59375 63.921875 
Q 33.734375 63.921875 32.171875 64.59375 
Q 30.609375 65.28125 28.8125 66.890625 
z
" id="DejaVuSans-227"/>
      <path d="M 30.609375 48.390625 
Q 23.390625 48.390625 19.1875 42.75 
Q 14.984375 37.109375 14.984375 27.296875 
Q 14.984375 17.484375 19.15625 11.84375 
Q 23.34375 6.203125 30.609375 6.203125 
Q 37.796875 6.203125 41.984375 11.859375 
Q 46.1875 17.53125 46.1875 27.296875 
Q 46.1875 37.015625 41.984375 42.703125 
Q 37.796875 48.390625 30.609375 48.390625 
z
M 30.609375 56 
Q 42.328125 56 49.015625 48.375 
Q 55.71875 40.765625 55.71875 27.296875 
Q 55.71875 13.875 49.015625 6.21875 
Q 42.328125 -1.421875 30.609375 -1.421875 
Q 18.84375 -1.421875 12.171875 6.21875 
Q 5.515625 13.875 5.515625 27.296875 
Q 5.515625 40.765625 12.171875 48.375 
Q 18.84375 56 30.609375 56 
z
" id="DejaVuSans-111"/>
      <path id="DejaVuSans-32"/>
      <path d="M 31 75.875 
Q 24.46875 64.65625 21.28125 53.65625 
Q 18.109375 42.671875 18.109375 31.390625 
Q 18.109375 20.125 21.3125 9.0625 
Q 24.515625 -2 31 -13.1875 
L 23.1875 -13.1875 
Q 15.875 -1.703125 12.234375 9.375 
Q 8.59375 20.453125 8.59375 31.390625 
Q 8.59375 42.28125 12.203125 53.3125 
Q 15.828125 64.359375 23.1875 75.875 
z
" id="DejaVuSans-40"/>
      <path d="M 28.609375 0 
L 0.78125 72.90625 
L 11.078125 72.90625 
L 34.1875 11.53125 
L 57.328125 72.90625 
L 67.578125 72.90625 
L 39.796875 0 
z
" id="DejaVuSans-86"/>
      <path d="M 8.015625 75.875 
L 15.828125 75.875 
Q 23.140625 64.359375 26.78125 53.3125 
Q 30.421875 42.28125 30.421875 31.390625 
Q 30.421875 20.453125 26.78125 9.375 
Q 23.140625 -1.703125 15.828125 -13.1875 
L 8.015625 -13.1875 
Q 14.5 -2 17.703125 9.0625 
Q 20.90625 20.125 20.90625 31.390625 
Q 20.90625 42.671875 17.703125 53.65625 
Q 14.5 64.65625 8.015625 75.875 
z
" id="DejaVuSans-41"/>
     </defs>
     <g transform="translate(141.90375 289.6345)scale(0.16 -0.16)">
      <use xlink:href="#DejaVuSans-84"/>
      <use x="44.083984" xlink:href="#DejaVuSans-101"/>
      <use x="105.607422" xlink:href="#DejaVuSans-110"/>
      <use x="168.986328" xlink:href="#DejaVuSans-115"/>
      <use x="221.085938" xlink:href="#DejaVuSans-227"/>
      <use x="282.365234" xlink:href="#DejaVuSans-111"/>
      <use x="343.546875" xlink:href="#DejaVuSans-32"/>
      <use x="375.333984" xlink:href="#DejaVuSans-40"/>
      <use x="414.347656" xlink:href="#DejaVuSans-86"/>
      <use x="482.755859" xlink:href="#DejaVuSans-41"/>
     </g>
    </g>
   </g>
   <g id="matplotlib.axis_2">
    <g id="ytick_1">
     <g id="line2d_11">
      <path clip-path="url(#pe3152bf015)" d="M 54.045 240.846545 
L 313.245 240.846545 
" style="fill:none;stroke:#b0b0b0;stroke-linecap:square;stroke-width:0.8;"/>
     </g>
     <g id="line2d_12">
      <defs>
       <path d="M 0 0 
L -3.5 0 
" id="m888f7fedb3" style="stroke:#000000;stroke-width:0.8;"/>
      </defs>
      <g>
       <use style="stroke:#000000;stroke-width:0.8;" x="54.045" xlink:href="#m888f7fedb3" y="240.846545"/>
      </g>
     </g>
     <g id="text_7">
      <!-- 0 -->
      <g transform="translate(36.865 246.925295)scale(0.16 -0.16)">
       <use xlink:href="#DejaVuSans-48"/>
      </g>
     </g>
    </g>
    <g id="ytick_2">
     <g id="line2d_13">
      <path clip-path="url(#pe3152bf015)" d="M 54.045 200.264727 
L 313.245 200.264727 
" style="fill:none;stroke:#b0b0b0;stroke-linecap:square;stroke-width:0.8;"/>
     </g>
     <g id="line2d_14">
      <g>
       <use style="stroke:#000000;stroke-width:0.8;" x="54.045" xlink:href="#m888f7fedb3" y="200.264727"/>
      </g>
     </g>
     <g id="text_8">
      <!-- 2 -->
      <g transform="translate(36.865 206.343477)scale(0.16 -0.16)">
       <use xlink:href="#DejaVuSans-50"/>
      </g>
     </g>
    </g>
    <g id="ytick_3">
     <g id="line2d_15">
      <path clip-path="url(#pe3152bf015)" d="M 54.045 159.682909 
L 313.245 159.682909 
" style="fill:none;stroke:#b0b0b0;stroke-linecap:square;stroke-width:0.8;"/>
     </g>
     <g id="line2d_16">
      <g>
       <use style="stroke:#000000;stroke-width:0.8;" x="54.045" xlink:href="#m888f7fedb3" y="159.682909"/>
      </g>
     </g>
     <g id="text_9">
      <!-- 4 -->
      <g transform="translate(36.865 165.761659)scale(0.16 -0.16)">
       <use xlink:href="#DejaVuSans-52"/>
      </g>
     </g>
    </g>
    <g id="ytick_4">
     <g id="line2d_17">
      <path clip-path="url(#pe3152bf015)" d="M 54.045 119.101091 
L 313.245 119.101091 
" style="fill:none;stroke:#b0b0b0;stroke-linecap:square;stroke-width:0.8;"/>
     </g>
     <g id="line2d_18">
      <g>
       <use style="stroke:#000000;stroke-width:0.8;" x="54.045" xlink:href="#m888f7fedb3" y="119.101091"/>
      </g>
     </g>
     <g id="text_10">
      <!-- 6 -->
      <defs>
       <path d="M 33.015625 40.375 
Q 26.375 40.375 22.484375 35.828125 
Q 18.609375 31.296875 18.609375 23.390625 
Q 18.609375 15.53125 22.484375 10.953125 
Q 26.375 6.390625 33.015625 6.390625 
Q 39.65625 6.390625 43.53125 10.953125 
Q 47.40625 15.53125 47.40625 23.390625 
Q 47.40625 31.296875 43.53125 35.828125 
Q 39.65625 40.375 33.015625 40.375 
z
M 52.59375 71.296875 
L 52.59375 62.3125 
Q 48.875 64.0625 45.09375 64.984375 
Q 41.3125 65.921875 37.59375 65.921875 
Q 27.828125 65.921875 22.671875 59.328125 
Q 17.53125 52.734375 16.796875 39.40625 
Q 19.671875 43.65625 24.015625 45.921875 
Q 28.375 48.1875 33.59375 48.1875 
Q 44.578125 48.1875 50.953125 41.515625 
Q 57.328125 34.859375 57.328125 23.390625 
Q 57.328125 12.15625 50.6875 5.359375 
Q 44.046875 -1.421875 33.015625 -1.421875 
Q 20.359375 -1.421875 13.671875 8.265625 
Q 6.984375 17.96875 6.984375 36.375 
Q 6.984375 53.65625 15.1875 63.9375 
Q 23.390625 74.21875 37.203125 74.21875 
Q 40.921875 74.21875 44.703125 73.484375 
Q 48.484375 72.75 52.59375 71.296875 
z
" id="DejaVuSans-54"/>
      </defs>
      <g transform="translate(36.865 125.179841)scale(0.16 -0.16)">
       <use xlink:href="#DejaVuSans-54"/>
      </g>
     </g>
    </g>
    <g id="ytick_5">
     <g id="line2d_19">
      <path clip-path="url(#pe3152bf015)" d="M 54.045 78.519273 
L 313.245 78.519273 
" style="fill:none;stroke:#b0b0b0;stroke-linecap:square;stroke-width:0.8;"/>
     </g>
     <g id="line2d_20">
      <g>
       <use style="stroke:#000000;stroke-width:0.8;" x="54.045" xlink:href="#m888f7fedb3" y="78.519273"/>
      </g>
     </g>
     <g id="text_11">
      <!-- 8 -->
      <defs>
       <path d="M 31.78125 34.625 
Q 24.75 34.625 20.71875 30.859375 
Q 16.703125 27.09375 16.703125 20.515625 
Q 16.703125 13.921875 20.71875 10.15625 
Q 24.75 6.390625 31.78125 6.390625 
Q 38.8125 6.390625 42.859375 10.171875 
Q 46.921875 13.96875 46.921875 20.515625 
Q 46.921875 27.09375 42.890625 30.859375 
Q 38.875 34.625 31.78125 34.625 
z
M 21.921875 38.8125 
Q 15.578125 40.375 12.03125 44.71875 
Q 8.5 49.078125 8.5 55.328125 
Q 8.5 64.0625 14.71875 69.140625 
Q 20.953125 74.21875 31.78125 74.21875 
Q 42.671875 74.21875 48.875 69.140625 
Q 55.078125 64.0625 55.078125 55.328125 
Q 55.078125 49.078125 51.53125 44.71875 
Q 48 40.375 41.703125 38.8125 
Q 48.828125 37.15625 52.796875 32.3125 
Q 56.78125 27.484375 56.78125 20.515625 
Q 56.78125 9.90625 50.3125 4.234375 
Q 43.84375 -1.421875 31.78125 -1.421875 
Q 19.734375 -1.421875 13.25 4.234375 
Q 6.78125 9.90625 6.78125 20.515625 
Q 6.78125 27.484375 10.78125 32.3125 
Q 14.796875 37.15625 21.921875 38.8125 
z
M 18.3125 54.390625 
Q 18.3125 48.734375 21.84375 45.5625 
Q 25.390625 42.390625 31.78125 42.390625 
Q 38.140625 42.390625 41.71875 45.5625 
Q 45.3125 48.734375 45.3125 54.390625 
Q 45.3125 60.0625 41.71875 63.234375 
Q 38.140625 66.40625 31.78125 66.40625 
Q 25.390625 66.40625 21.84375 63.234375 
Q 18.3125 60.0625 18.3125 54.390625 
z
" id="DejaVuSans-56"/>
      </defs>
      <g transform="translate(36.865 84.598023)scale(0.16 -0.16)">
       <use xlink:href="#DejaVuSans-56"/>
      </g>
     </g>
    </g>
    <g id="ytick_6">
     <g id="line2d_21">
      <path clip-path="url(#pe3152bf015)" d="M 54.045 37.937455 
L 313.245 37.937455 
" style="fill:none;stroke:#b0b0b0;stroke-linecap:square;stroke-width:0.8;"/>
     </g>
     <g id="line2d_22">
      <g>
       <use style="stroke:#000000;stroke-width:0.8;" x="54.045" xlink:href="#m888f7fedb3" y="37.937455"/>
      </g>
     </g>
     <g id="text_12">
      <!-- 10 -->
      <g transform="translate(26.685 44.016205)scale(0.16 -0.16)">
       <use xlink:href="#DejaVuSans-49"/>
       <use x="63.623047" xlink:href="#DejaVuSans-48"/>
      </g>
     </g>
    </g>
    <g id="text_13">
     <!-- Corrente (mA) -->
     <defs>
      <path d="M 64.40625 67.28125 
L 64.40625 56.890625 
Q 59.421875 61.53125 53.78125 63.8125 
Q 48.140625 66.109375 41.796875 66.109375 
Q 29.296875 66.109375 22.65625 58.46875 
Q 16.015625 50.828125 16.015625 36.375 
Q 16.015625 21.96875 22.65625 14.328125 
Q 29.296875 6.6875 41.796875 6.6875 
Q 48.140625 6.6875 53.78125 8.984375 
Q 59.421875 11.28125 64.40625 15.921875 
L 64.40625 5.609375 
Q 59.234375 2.09375 53.4375 0.328125 
Q 47.65625 -1.421875 41.21875 -1.421875 
Q 24.65625 -1.421875 15.125 8.703125 
Q 5.609375 18.84375 5.609375 36.375 
Q 5.609375 53.953125 15.125 64.078125 
Q 24.65625 74.21875 41.21875 74.21875 
Q 47.75 74.21875 53.53125 72.484375 
Q 59.328125 70.75 64.40625 67.28125 
z
" id="DejaVuSans-67"/>
      <path d="M 41.109375 46.296875 
Q 39.59375 47.171875 37.8125 47.578125 
Q 36.03125 48 33.890625 48 
Q 26.265625 48 22.1875 43.046875 
Q 18.109375 38.09375 18.109375 28.8125 
L 18.109375 0 
L 9.078125 0 
L 9.078125 54.6875 
L 18.109375 54.6875 
L 18.109375 46.1875 
Q 20.953125 51.171875 25.484375 53.578125 
Q 30.03125 56 36.53125 56 
Q 37.453125 56 38.578125 55.875 
Q 39.703125 55.765625 41.0625 55.515625 
z
" id="DejaVuSans-114"/>
      <path d="M 18.3125 70.21875 
L 18.3125 54.6875 
L 36.8125 54.6875 
L 36.8125 47.703125 
L 18.3125 47.703125 
L 18.3125 18.015625 
Q 18.3125 11.328125 20.140625 9.421875 
Q 21.96875 7.515625 27.59375 7.515625 
L 36.8125 7.515625 
L 36.8125 0 
L 27.59375 0 
Q 17.1875 0 13.234375 3.875 
Q 9.28125 7.765625 9.28125 18.015625 
L 9.28125 47.703125 
L 2.6875 47.703125 
L 2.6875 54.6875 
L 9.28125 54.6875 
L 9.28125 70.21875 
z
" id="DejaVuSans-116"/>
      <path d="M 52 44.1875 
Q 55.375 50.25 60.0625 53.125 
Q 64.75 56 71.09375 56 
Q 79.640625 56 84.28125 50.015625 
Q 88.921875 44.046875 88.921875 33.015625 
L 88.921875 0 
L 79.890625 0 
L 79.890625 32.71875 
Q 79.890625 40.578125 77.09375 44.375 
Q 74.3125 48.1875 68.609375 48.1875 
Q 61.625 48.1875 57.5625 43.546875 
Q 53.515625 38.921875 53.515625 30.90625 
L 53.515625 0 
L 44.484375 0 
L 44.484375 32.71875 
Q 44.484375 40.625 41.703125 44.40625 
Q 38.921875 48.1875 33.109375 48.1875 
Q 26.21875 48.1875 22.15625 43.53125 
Q 18.109375 38.875 18.109375 30.90625 
L 18.109375 0 
L 9.078125 0 
L 9.078125 54.6875 
L 18.109375 54.6875 
L 18.109375 46.1875 
Q 21.1875 51.21875 25.484375 53.609375 
Q 29.78125 56 35.6875 56 
Q 41.65625 56 45.828125 52.96875 
Q 50 49.953125 52 44.1875 
z
" id="DejaVuSans-109"/>
      <path d="M 34.1875 63.1875 
L 20.796875 26.90625 
L 47.609375 26.90625 
z
M 28.609375 72.90625 
L 39.796875 72.90625 
L 67.578125 0 
L 57.328125 0 
L 50.6875 18.703125 
L 17.828125 18.703125 
L 11.1875 0 
L 0.78125 0 
z
" id="DejaVuSans-65"/>
     </defs>
     <g transform="translate(19.3575 196.232)rotate(-90)scale(0.16 -0.16)">
      <use xlink:href="#DejaVuSans-67"/>
      <use x="69.824219" xlink:href="#DejaVuSans-111"/>
      <use x="131.005859" xlink:href="#DejaVuSans-114"/>
      <use x="170.369141" xlink:href="#DejaVuSans-114"/>
      <use x="209.232422" xlink:href="#DejaVuSans-101"/>
      <use x="270.755859" xlink:href="#DejaVuSans-110"/>
      <use x="334.134766" xlink:href="#DejaVuSans-116"/>
      <use x="373.34375" xlink:href="#DejaVuSans-101"/>
      <use x="434.867188" xlink:href="#DejaVuSans-32"/>
      <use x="466.654297" xlink:href="#DejaVuSans-40"/>
      <use x="505.667969" xlink:href="#DejaVuSans-109"/>
      <use x="603.080078" xlink:href="#DejaVuSans-65"/>
      <use x="671.488281" xlink:href="#DejaVuSans-41"/>
     </g>
    </g>
   </g>
   <g id="line2d_23">
    <path clip-path="url(#pe3152bf015)" d="M 54.045 240.846545 
L 58.626818 238.796959 
L 63.208636 236.747372 
L 67.790455 234.697785 
L 72.372273 232.648198 
L 76.954091 230.598612 
L 81.535909 228.549025 
L 86.117727 226.499438 
L 90.699545 224.449851 
L 95.281364 222.400264 
L 99.863182 220.350678 
L 104.445 218.301091 
L 109.026818 216.251504 
L 113.608636 214.201917 
L 118.190455 212.152331 
L 122.772273 210.102744 
L 127.354091 208.053157 
L 131.935909 206.00357 
L 136.517727 203.953983 
L 141.099545 201.904397 
L 145.681364 199.85481 
L 150.263182 197.805223 
L 154.845 195.755636 
L 159.426818 193.70605 
L 164.008636 191.656463 
L 168.590455 189.606876 
L 173.172273 187.557289 
L 177.754091 185.507702 
L 182.335909 183.458116 
L 186.917727 181.408529 
L 191.499545 179.358942 
L 196.081364 177.309355 
L 200.663182 175.259769 
L 205.245 173.210182 
L 209.826818 171.160595 
L 214.408636 169.111008 
L 218.990455 167.061421 
L 223.572273 165.011835 
L 228.154091 162.962248 
L 232.735909 160.912661 
L 237.317727 158.863074 
L 241.899545 156.813488 
L 246.481364 154.763901 
L 251.063182 152.714314 
L 255.645 150.664727 
L 260.226818 148.61514 
L 264.808636 146.565554 
L 269.390455 144.515967 
L 273.972273 142.46638 
L 278.554091 140.416793 
L 283.135909 138.367207 
L 287.717727 136.31762 
L 292.299545 134.268033 
L 296.881364 132.218446 
L 301.463182 130.16886 
L 306.045 128.119273 
L 310.626818 126.069686 
L 315.208636 124.020099 
L 319.790455 121.970512 
L 324.372273 119.920926 
L 328.954091 117.871339 
L 333.535909 115.821752 
L 338.117727 113.772165 
L 342.699545 111.722579 
L 347.281364 109.672992 
L 351.863182 107.623405 
L 356.445 105.573818 
L 361.026818 103.524231 
L 365.608636 101.474645 
L 370.190455 99.425058 
L 374.772273 97.375471 
L 379.354091 95.325884 
L 383.935909 93.276298 
L 388.517727 91.226711 
L 393.099545 89.177124 
L 397.681364 87.127537 
L 402.263182 85.07795 
L 406.845 83.028364 
L 411.426818 80.978777 
L 416.008636 78.92919 
L 420.590455 76.879603 
L 425.172273 74.830017 
L 429.754091 72.78043 
L 434.335909 70.730843 
L 438.917727 68.681256 
L 443.499545 66.631669 
L 448.081364 64.582083 
L 452.663182 62.532496 
L 457.245 60.482909 
L 458.405 59.964006 
" style="fill:none;stroke:#000000;stroke-linecap:square;stroke-width:2;"/>
   </g>
   <g id="line2d_24">
    <path clip-path="url(#pe3152bf015)" d="M 118.845 240.846545 
L 115.572273 238.796959 
L 112.299545 236.747372 
L 109.026818 234.697785 
L 105.754091 232.648198 
L 102.481364 230.598612 
L 99.208636 228.549025 
L 95.935909 226.499438 
L 92.663182 224.449851 
L 89.390455 222.400264 
L 86.117727 220.350678 
L 82.845 218.301091 
L 79.572273 216.251504 
L 76.299545 214.201917 
L 73.026818 212.152331 
L 69.754091 210.102744 
L 66.481364 208.053157 
L 63.208636 206.00357 
L 59.935909 203.953983 
L 56.663182 201.904397 
L 53.390455 199.85481 
L 50.117727 197.805223 
L 46.845 195.755636 
L 43.572273 193.70605 
L 40.299545 191.656463 
L 37.026818 189.606876 
L 33.754091 187.557289 
L 30.481364 185.507702 
L 27.208636 183.458116 
L 23.935909 181.408529 
L 20.663182 179.358942 
L 17.390455 177.309355 
L 14.117727 175.259769 
L 10.845 173.210182 
L 7.572273 171.160595 
L 4.299545 169.111008 
L 1.026818 167.061421 
L -1 165.792101 
" style="fill:none;stroke:#1f77b4;stroke-linecap:square;stroke-width:2;"/>
   </g>
   <g id="line2d_25">
    <path clip-path="url(#pe3152bf015)" d="M 183.645 240.846545 
L 180.372273 238.796959 
L 177.099545 236.747372 
L 173.826818 234.697785 
L 170.554091 232.648198 
L 167.281364 230.598612 
L 164.008636 228.549025 
L 160.735909 226.499438 
L 157.463182 224.449851 
L 154.190455 222.400264 
L 150.917727 220.350678 
L 147.645 218.301091 
L 144.372273 216.251504 
L 141.099545 214.201917 
L 137.826818 212.152331 
L 134.554091 210.102744 
L 131.281364 208.053157 
L 128.008636 206.00357 
L 124.735909 203.953983 
L 121.463182 201.904397 
L 118.190455 199.85481 
L 114.917727 197.805223 
L 111.645 195.755636 
L 108.372273 193.70605 
L 105.099545 191.656463 
L 101.826818 189.606876 
L 98.554091 187.557289 
L 95.281364 185.507702 
L 92.008636 183.458116 
L 88.735909 181.408529 
L 85.463182 179.358942 
L 82.190455 177.309355 
L 78.917727 175.259769 
L 75.645 173.210182 
L 72.372273 171.160595 
L 69.099545 169.111008 
L 65.826818 167.061421 
L 62.554091 165.011835 
L 59.281364 162.962248 
L 56.008636 160.912661 
L 52.735909 158.863074 
L 49.463182 156.813488 
L 46.190455 154.763901 
L 42.917727 152.714314 
L 39.645 150.664727 
L 36.372273 148.61514 
L 33.099545 146.565554 
L 29.826818 144.515967 
L 26.554091 142.46638 
L 23.281364 140.416793 
L 20.008636 138.367207 
L 16.735909 136.31762 
L 13.463182 134.268033 
L 10.190455 132.218446 
L 6.917727 130.16886 
L 3.645 128.119273 
L 0.372273 126.069686 
L -1 125.210283 
" style="fill:none;stroke:#ff7f0e;stroke-linecap:square;stroke-width:2;"/>
   </g>
   <g id="line2d_26">
    <path clip-path="url(#pe3152bf015)" d="M 248.445 240.846545 
L 245.172273 238.796959 
L 241.899545 236.747372 
L 238.626818 234.697785 
L 235.354091 232.648198 
L 232.081364 230.598612 
L 228.808636 228.549025 
L 225.535909 226.499438 
L 222.263182 224.449851 
L 218.990455 222.400264 
L 215.717727 220.350678 
L 212.445 218.301091 
L 209.172273 216.251504 
L 205.899545 214.201917 
L 202.626818 212.152331 
L 199.354091 210.102744 
L 196.081364 208.053157 
L 192.808636 206.00357 
L 189.535909 203.953983 
L 186.263182 201.904397 
L 182.990455 199.85481 
L 179.717727 197.805223 
L 176.445 195.755636 
L 173.172273 193.70605 
L 169.899545 191.656463 
L 166.626818 189.606876 
L 163.354091 187.557289 
L 160.081364 185.507702 
L 156.808636 183.458116 
L 153.535909 181.408529 
L 150.263182 179.358942 
L 146.990455 177.309355 
L 143.717727 175.259769 
L 140.445 173.210182 
L 137.172273 171.160595 
L 133.899545 169.111008 
L 130.626818 167.061421 
L 127.354091 165.011835 
L 124.081364 162.962248 
L 120.808636 160.912661 
L 117.535909 158.863074 
L 114.263182 156.813488 
L 110.990455 154.763901 
L 107.717727 152.714314 
L 104.445 150.664727 
L 101.172273 148.61514 
L 97.899545 146.565554 
L 94.626818 144.515967 
L 91.354091 142.46638 
L 88.081364 140.416793 
L 84.808636 138.367207 
L 81.535909 136.31762 
L 78.263182 134.268033 
L 74.990455 132.218446 
L 71.717727 130.16886 
L 68.445 128.119273 
L 65.172273 126.069686 
L 61.899545 124.020099 
L 58.626818 121.970512 
L 55.354091 119.920926 
L 52.081364 117.871339 
L 48.808636 115.821752 
L 45.535909 113.772165 
L 42.263182 111.722579 
L 38.990455 109.672992 
L 35.717727 107.623405 
L 32.445 105.573818 
L 29.172273 103.524231 
L 25.899545 101.474645 
L 22.626818 99.425058 
L 19.354091 97.375471 
L 16.081364 95.325884 
L 12.808636 93.276298 
L 9.535909 91.226711 
L 6.263182 89.177124 
L 2.990455 87.127537 
L -0.282273 85.07795 
L -1 84.628465 
" style="fill:none;stroke:#2ca02c;stroke-linecap:square;stroke-width:2;"/>
   </g>
   <g id="line2d_27">
    <path clip-path="url(#pe3152bf015)" d="M 313.245 240.846545 
L 309.972273 238.796959 
L 306.699545 236.747372 
L 303.426818 234.697785 
L 300.154091 232.648198 
L 296.881364 230.598612 
L 293.608636 228.549025 
L 290.335909 226.499438 
L 287.063182 224.449851 
L 283.790455 222.400264 
L 280.517727 220.350678 
L 277.245 218.301091 
L 273.972273 216.251504 
L 270.699545 214.201917 
L 267.426818 212.152331 
L 264.154091 210.102744 
L 260.881364 208.053157 
L 257.608636 206.00357 
L 254.335909 203.953983 
L 251.063182 201.904397 
L 247.790455 199.85481 
L 244.517727 197.805223 
L 241.245 195.755636 
L 237.972273 193.70605 
L 234.699545 191.656463 
L 231.426818 189.606876 
L 228.154091 187.557289 
L 224.881364 185.507702 
L 221.608636 183.458116 
L 218.335909 181.408529 
L 215.063182 179.358942 
L 211.790455 177.309355 
L 208.517727 175.259769 
L 205.245 173.210182 
L 201.972273 171.160595 
L 198.699545 169.111008 
L 195.426818 167.061421 
L 192.154091 165.011835 
L 188.881364 162.962248 
L 185.608636 160.912661 
L 182.335909 158.863074 
L 179.063182 156.813488 
L 175.790455 154.763901 
L 172.517727 152.714314 
L 169.245 150.664727 
L 165.972273 148.61514 
L 162.699545 146.565554 
L 159.426818 144.515967 
L 156.154091 142.46638 
L 152.881364 140.416793 
L 149.608636 138.367207 
L 146.335909 136.31762 
L 143.063182 134.268033 
L 139.790455 132.218446 
L 136.517727 130.16886 
L 133.245 128.119273 
L 129.972273 126.069686 
L 126.699545 124.020099 
L 123.426818 121.970512 
L 120.154091 119.920926 
L 116.881364 117.871339 
L 113.608636 115.821752 
L 110.335909 113.772165 
L 107.063182 111.722579 
L 103.790455 109.672992 
L 100.517727 107.623405 
L 97.245 105.573818 
L 93.972273 103.524231 
L 90.699545 101.474645 
L 87.426818 99.425058 
L 84.154091 97.375471 
L 80.881364 95.325884 
L 77.608636 93.276298 
L 74.335909 91.226711 
L 71.063182 89.177124 
L 67.790455 87.127537 
L 64.517727 85.07795 
L 61.245 83.028364 
L 57.972273 80.978777 
L 54.699545 78.92919 
L 51.426818 76.879603 
L 48.154091 74.830017 
L 44.881364 72.78043 
L 41.608636 70.730843 
L 38.335909 68.681256 
L 35.063182 66.631669 
L 31.790455 64.582083 
L 28.517727 62.532496 
L 25.245 60.482909 
L 21.972273 58.433322 
L 18.699545 56.383736 
L 15.426818 54.334149 
L 12.154091 52.284562 
L 8.881364 50.234975 
L 5.608636 48.185388 
L 2.335909 46.135802 
L -0.936818 44.086215 
L -1 44.046646 
" style="fill:none;stroke:#d62728;stroke-linecap:square;stroke-width:2;"/>
   </g>
   <g id="patch_3">
    <path d="M 54.045 250.992 
L 54.045 27.792 
" style="fill:none;stroke:#000000;stroke-linecap:square;stroke-linejoin:miter;stroke-width:0.8;"/>
   </g>
   <g id="patch_4">
    <path d="M 313.245 250.992 
L 313.245 27.792 
" style="fill:none;stroke:#000000;stroke-linecap:square;stroke-linejoin:miter;stroke-width:0.8;"/>
   </g>
   <g id="patch_5">
    <path d="M 54.045 250.992 
L 313.245 250.992 
" style="fill:none;stroke:#000000;stroke-linecap:square;stroke-linejoin:miter;stroke-width:0.8;"/>
   </g>
   <g id="patch_6">
    <path d="M 54.045 27.792 
L 313.245 27.792 
" style="fill:none;stroke:#000000;stroke-linecap:square;stroke-linejoin:miter;stroke-width:0.8;"/>
   </g>
   <g id="text_14">
    <!-- Curvas de carga  variando $V_{in}$ -->
    <defs>
     <path d="M 8.5 21.578125 
L 8.5 54.6875 
L 17.484375 54.6875 
L 17.484375 21.921875 
Q 17.484375 14.15625 20.5 10.265625 
Q 23.53125 6.390625 29.59375 6.390625 
Q 36.859375 6.390625 41.078125 11.03125 
Q 45.3125 15.671875 45.3125 23.6875 
L 45.3125 54.6875 
L 54.296875 54.6875 
L 54.296875 0 
L 45.3125 0 
L 45.3125 8.40625 
Q 42.046875 3.421875 37.71875 1 
Q 33.40625 -1.421875 27.6875 -1.421875 
Q 18.265625 -1.421875 13.375 4.4375 
Q 8.5 10.296875 8.5 21.578125 
z
M 31.109375 56 
z
" id="DejaVuSans-117"/>
     <path d="M 2.984375 54.6875 
L 12.5 54.6875 
L 29.59375 8.796875 
L 46.6875 54.6875 
L 56.203125 54.6875 
L 35.6875 0 
L 23.484375 0 
z
" id="DejaVuSans-118"/>
     <path d="M 34.28125 27.484375 
Q 23.390625 27.484375 19.1875 25 
Q 14.984375 22.515625 14.984375 16.5 
Q 14.984375 11.71875 18.140625 8.90625 
Q 21.296875 6.109375 26.703125 6.109375 
Q 34.1875 6.109375 38.703125 11.40625 
Q 43.21875 16.703125 43.21875 25.484375 
L 43.21875 27.484375 
z
M 52.203125 31.203125 
L 52.203125 0 
L 43.21875 0 
L 43.21875 8.296875 
Q 40.140625 3.328125 35.546875 0.953125 
Q 30.953125 -1.421875 24.3125 -1.421875 
Q 15.921875 -1.421875 10.953125 3.296875 
Q 6 8.015625 6 15.921875 
Q 6 25.140625 12.171875 29.828125 
Q 18.359375 34.515625 30.609375 34.515625 
L 43.21875 34.515625 
L 43.21875 35.40625 
Q 43.21875 41.609375 39.140625 45 
Q 35.0625 48.390625 27.6875 48.390625 
Q 23 48.390625 18.546875 47.265625 
Q 14.109375 46.140625 10.015625 43.890625 
L 10.015625 52.203125 
Q 14.9375 54.109375 19.578125 55.046875 
Q 24.21875 56 28.609375 56 
Q 40.484375 56 46.34375 49.84375 
Q 52.203125 43.703125 52.203125 31.203125 
z
" id="DejaVuSans-97"/>
     <path d="M 45.40625 46.390625 
L 45.40625 75.984375 
L 54.390625 75.984375 
L 54.390625 0 
L 45.40625 0 
L 45.40625 8.203125 
Q 42.578125 3.328125 38.25 0.953125 
Q 33.9375 -1.421875 27.875 -1.421875 
Q 17.96875 -1.421875 11.734375 6.484375 
Q 5.515625 14.40625 5.515625 27.296875 
Q 5.515625 40.1875 11.734375 48.09375 
Q 17.96875 56 27.875 56 
Q 33.9375 56 38.25 53.625 
Q 42.578125 51.265625 45.40625 46.390625 
z
M 14.796875 27.296875 
Q 14.796875 17.390625 18.875 11.75 
Q 22.953125 6.109375 30.078125 6.109375 
Q 37.203125 6.109375 41.296875 11.75 
Q 45.40625 17.390625 45.40625 27.296875 
Q 45.40625 37.203125 41.296875 42.84375 
Q 37.203125 48.484375 30.078125 48.484375 
Q 22.953125 48.484375 18.875 42.84375 
Q 14.796875 37.203125 14.796875 27.296875 
z
" id="DejaVuSans-100"/>
     <path d="M 48.78125 52.59375 
L 48.78125 44.1875 
Q 44.96875 46.296875 41.140625 47.34375 
Q 37.3125 48.390625 33.40625 48.390625 
Q 24.65625 48.390625 19.8125 42.84375 
Q 14.984375 37.3125 14.984375 27.296875 
Q 14.984375 17.28125 19.8125 11.734375 
Q 24.65625 6.203125 33.40625 6.203125 
Q 37.3125 6.203125 41.140625 7.25 
Q 44.96875 8.296875 48.78125 10.40625 
L 48.78125 2.09375 
Q 45.015625 0.34375 40.984375 -0.53125 
Q 36.96875 -1.421875 32.421875 -1.421875 
Q 20.0625 -1.421875 12.78125 6.34375 
Q 5.515625 14.109375 5.515625 27.296875 
Q 5.515625 40.671875 12.859375 48.328125 
Q 20.21875 56 33.015625 56 
Q 37.15625 56 41.109375 55.140625 
Q 45.0625 54.296875 48.78125 52.59375 
z
" id="DejaVuSans-99"/>
     <path d="M 45.40625 27.984375 
Q 45.40625 37.75 41.375 43.109375 
Q 37.359375 48.484375 30.078125 48.484375 
Q 22.859375 48.484375 18.828125 43.109375 
Q 14.796875 37.75 14.796875 27.984375 
Q 14.796875 18.265625 18.828125 12.890625 
Q 22.859375 7.515625 30.078125 7.515625 
Q 37.359375 7.515625 41.375 12.890625 
Q 45.40625 18.265625 45.40625 27.984375 
z
M 54.390625 6.78125 
Q 54.390625 -7.171875 48.1875 -13.984375 
Q 42 -20.796875 29.203125 -20.796875 
Q 24.46875 -20.796875 20.265625 -20.09375 
Q 16.0625 -19.390625 12.109375 -17.921875 
L 12.109375 -9.1875 
Q 16.0625 -11.328125 19.921875 -12.34375 
Q 23.78125 -13.375 27.78125 -13.375 
Q 36.625 -13.375 41.015625 -8.765625 
Q 45.40625 -4.15625 45.40625 5.171875 
L 45.40625 9.625 
Q 42.625 4.78125 38.28125 2.390625 
Q 33.9375 0 27.875 0 
Q 17.828125 0 11.671875 7.65625 
Q 5.515625 15.328125 5.515625 27.984375 
Q 5.515625 40.671875 11.671875 48.328125 
Q 17.828125 56 27.875 56 
Q 33.9375 56 38.28125 53.609375 
Q 42.625 51.21875 45.40625 46.390625 
L 45.40625 54.6875 
L 54.390625 54.6875 
z
" id="DejaVuSans-103"/>
     <path d="M 9.421875 54.6875 
L 18.40625 54.6875 
L 18.40625 0 
L 9.421875 0 
z
M 9.421875 75.984375 
L 18.40625 75.984375 
L 18.40625 64.59375 
L 9.421875 64.59375 
z
" id="DejaVuSans-105"/>
    </defs>
    <g transform="translate(40.797 21.792)scale(0.192 -0.192)">
     <use transform="translate(0 0.015625)" xlink:href="#DejaVuSans-67"/>
     <use transform="translate(69.824219 0.015625)" xlink:href="#DejaVuSans-117"/>
     <use transform="translate(133.203125 0.015625)" xlink:href="#DejaVuSans-114"/>
     <use transform="translate(174.316406 0.015625)" xlink:href="#DejaVuSans-118"/>
     <use transform="translate(233.496094 0.015625)" xlink:href="#DejaVuSans-97"/>
     <use transform="translate(294.775391 0.015625)" xlink:href="#DejaVuSans-115"/>
     <use transform="translate(346.875 0.015625)" xlink:href="#DejaVuSans-32"/>
     <use transform="translate(378.662109 0.015625)" xlink:href="#DejaVuSans-100"/>
     <use transform="translate(442.138672 0.015625)" xlink:href="#DejaVuSans-101"/>
     <use transform="translate(503.662109 0.015625)" xlink:href="#DejaVuSans-32"/>
     <use transform="translate(535.449219 0.015625)" xlink:href="#DejaVuSans-99"/>
     <use transform="translate(590.429688 0.015625)" xlink:href="#DejaVuSans-97"/>
     <use transform="translate(651.708984 0.015625)" xlink:href="#DejaVuSans-114"/>
     <use transform="translate(692.822266 0.015625)" xlink:href="#DejaVuSans-103"/>
     <use transform="translate(756.298828 0.015625)" xlink:href="#DejaVuSans-97"/>
     <use transform="translate(817.578125 0.015625)" xlink:href="#DejaVuSans-32"/>
     <use transform="translate(849.365234 0.015625)" xlink:href="#DejaVuSans-32"/>
     <use transform="translate(881.152344 0.015625)" xlink:href="#DejaVuSans-118"/>
     <use transform="translate(940.332031 0.015625)" xlink:href="#DejaVuSans-97"/>
     <use transform="translate(1001.611328 0.015625)" xlink:href="#DejaVuSans-114"/>
     <use transform="translate(1042.724609 0.015625)" xlink:href="#DejaVuSans-105"/>
     <use transform="translate(1070.507812 0.015625)" xlink:href="#DejaVuSans-97"/>
     <use transform="translate(1131.787109 0.015625)" xlink:href="#DejaVuSans-110"/>
     <use transform="translate(1195.166016 0.015625)" xlink:href="#DejaVuSans-100"/>
     <use transform="translate(1258.642578 0.015625)" xlink:href="#DejaVuSans-111"/>
     <use transform="translate(1319.824219 0.015625)" xlink:href="#DejaVuSans-32"/>
     <use transform="translate(1351.611328 0.015625)" xlink:href="#DejaVuSans-86"/>
     <use transform="translate(1420.976562 -16.390625)scale(0.7)" xlink:href="#DejaVuSans-105"/>
     <use transform="translate(1440.424805 -16.390625)scale(0.7)" xlink:href="#DejaVuSans-110"/>
    </g>
   </g>
   <g id="legend_1">
    <g id="patch_7">
     <path d="M 324.445 200.5045 
L 447.005 200.5045 
Q 450.205 200.5045 450.205 197.3045 
L 450.205 81.4795 
Q 450.205 78.2795 447.005 78.2795 
L 324.445 78.2795 
Q 321.245 78.2795 321.245 81.4795 
L 321.245 197.3045 
Q 321.245 200.5045 324.445 200.5045 
z
" style="fill:#ffffff;opacity:0.8;stroke:#cccccc;stroke-linejoin:miter;"/>
    </g>
    <g id="line2d_28">
     <path d="M 327.645 91.237 
L 359.645 91.237 
" style="fill:none;stroke:#000000;stroke-linecap:square;stroke-width:2;"/>
    </g>
    <g id="line2d_29"/>
    <g id="text_15">
     <!-- $V(I)=R_2I$ -->
     <defs>
      <path d="M 9.8125 72.90625 
L 19.671875 72.90625 
L 19.671875 0 
L 9.8125 0 
z
" id="DejaVuSans-73"/>
      <path d="M 10.59375 45.40625 
L 73.1875 45.40625 
L 73.1875 37.203125 
L 10.59375 37.203125 
z
M 10.59375 25.484375 
L 73.1875 25.484375 
L 73.1875 17.1875 
L 10.59375 17.1875 
z
" id="DejaVuSans-61"/>
      <path d="M 44.390625 34.1875 
Q 47.5625 33.109375 50.5625 29.59375 
Q 53.5625 26.078125 56.59375 19.921875 
L 66.609375 0 
L 56 0 
L 46.6875 18.703125 
Q 43.0625 26.03125 39.671875 28.421875 
Q 36.28125 30.8125 30.421875 30.8125 
L 19.671875 30.8125 
L 19.671875 0 
L 9.8125 0 
L 9.8125 72.90625 
L 32.078125 72.90625 
Q 44.578125 72.90625 50.734375 67.671875 
Q 56.890625 62.453125 56.890625 51.90625 
Q 56.890625 45.015625 53.6875 40.46875 
Q 50.484375 35.9375 44.390625 34.1875 
z
M 19.671875 64.796875 
L 19.671875 38.921875 
L 32.078125 38.921875 
Q 39.203125 38.921875 42.84375 42.21875 
Q 46.484375 45.515625 46.484375 51.90625 
Q 46.484375 58.296875 42.84375 61.546875 
Q 39.203125 64.796875 32.078125 64.796875 
z
" id="DejaVuSans-82"/>
     </defs>
     <g transform="translate(372.445 96.837)scale(0.16 -0.16)">
      <use transform="translate(0 0.125)" xlink:href="#DejaVuSans-86"/>
      <use transform="translate(68.408203 0.125)" xlink:href="#DejaVuSans-40"/>
      <use transform="translate(107.421875 0.125)" xlink:href="#DejaVuSans-73"/>
      <use transform="translate(136.914062 0.125)" xlink:href="#DejaVuSans-41"/>
      <use transform="translate(195.410156 0.125)" xlink:href="#DejaVuSans-61"/>
      <use transform="translate(298.681641 0.125)" xlink:href="#DejaVuSans-82"/>
      <use transform="translate(369.121094 -16.28125)scale(0.7)" xlink:href="#DejaVuSans-50"/>
      <use transform="translate(416.391602 0.125)" xlink:href="#DejaVuSans-73"/>
     </g>
    </g>
    <g id="line2d_30">
     <path d="M 327.645 114.722 
L 359.645 114.722 
" style="fill:none;stroke:#1f77b4;stroke-linecap:square;stroke-width:2;"/>
    </g>
    <g id="line2d_31"/>
    <g id="text_16">
     <!-- $V$=1 V -->
     <g transform="translate(372.445 120.322)scale(0.16 -0.16)">
      <use transform="translate(0 0.09375)" xlink:href="#DejaVuSans-86"/>
      <use transform="translate(68.408203 0.09375)" xlink:href="#DejaVuSans-61"/>
      <use transform="translate(152.197266 0.09375)" xlink:href="#DejaVuSans-49"/>
      <use transform="translate(215.820312 0.09375)" xlink:href="#DejaVuSans-32"/>
      <use transform="translate(247.607422 0.09375)" xlink:href="#DejaVuSans-86"/>
     </g>
    </g>
    <g id="line2d_32">
     <path d="M 327.645 138.207 
L 359.645 138.207 
" style="fill:none;stroke:#ff7f0e;stroke-linecap:square;stroke-width:2;"/>
    </g>
    <g id="line2d_33"/>
    <g id="text_17">
     <!-- $V$=2 V -->
     <g transform="translate(372.445 143.807)scale(0.16 -0.16)">
      <use transform="translate(0 0.78125)" xlink:href="#DejaVuSans-86"/>
      <use transform="translate(68.408203 0.78125)" xlink:href="#DejaVuSans-61"/>
      <use transform="translate(152.197266 0.78125)" xlink:href="#DejaVuSans-50"/>
      <use transform="translate(215.820312 0.78125)" xlink:href="#DejaVuSans-32"/>
      <use transform="translate(247.607422 0.78125)" xlink:href="#DejaVuSans-86"/>
     </g>
    </g>
    <g id="line2d_34">
     <path d="M 327.645 161.692 
L 359.645 161.692 
" style="fill:none;stroke:#2ca02c;stroke-linecap:square;stroke-width:2;"/>
    </g>
    <g id="line2d_35"/>
    <g id="text_18">
     <!-- $V$=3 V -->
     <g transform="translate(372.445 167.292)scale(0.16 -0.16)">
      <use transform="translate(0 0.78125)" xlink:href="#DejaVuSans-86"/>
      <use transform="translate(68.408203 0.78125)" xlink:href="#DejaVuSans-61"/>
      <use transform="translate(152.197266 0.78125)" xlink:href="#DejaVuSans-51"/>
      <use transform="translate(215.820312 0.78125)" xlink:href="#DejaVuSans-32"/>
      <use transform="translate(247.607422 0.78125)" xlink:href="#DejaVuSans-86"/>
     </g>
    </g>
    <g id="line2d_36">
     <path d="M 327.645 185.177 
L 359.645 185.177 
" style="fill:none;stroke:#d62728;stroke-linecap:square;stroke-width:2;"/>
    </g>
    <g id="line2d_37"/>
    <g id="text_19">
     <!-- $V$=4 V -->
     <g transform="translate(372.445 190.777)scale(0.16 -0.16)">
      <use transform="translate(0 0.09375)" xlink:href="#DejaVuSans-86"/>
      <use transform="translate(68.408203 0.09375)" xlink:href="#DejaVuSans-61"/>
      <use transform="translate(152.197266 0.09375)" xlink:href="#DejaVuSans-52"/>
      <use transform="translate(215.820312 0.09375)" xlink:href="#DejaVuSans-32"/>
      <use transform="translate(247.607422 0.09375)" xlink:href="#DejaVuSans-86"/>
     </g>
    </g>
   </g>
  </g>
 </g>
 <defs>
  <clipPath id="pe3152bf015">
   <rect height="223.2" width="259.2" x="54.045" y="27.792"/>
  </clipPath>
 </defs>
</svg>
