<?xml version="1.0" encoding="utf-8" standalone="no"?>
<!DOCTYPE svg PUBLIC "-//W3C//DTD SVG 1.1//EN"
  "http://www.w3.org/Graphics/SVG/1.1/DTD/svg11.dtd">
<!-- Created with matplotlib (https://matplotlib.org/) -->
<svg height="341.459375pt" version="1.1" viewBox="0 0 574.89375 341.459375" width="574.89375pt" xmlns="http://www.w3.org/2000/svg" xmlns:xlink="http://www.w3.org/1999/xlink">
 <defs>
  <style type="text/css">
*{stroke-linecap:butt;stroke-linejoin:round;}
  </style>
 </defs>
 <g id="figure_1">
  <g id="patch_1">
   <path d="M 0 341.459375 
L 574.89375 341.459375 
L 574.89375 0 
L 0 0 
z
" style="fill:none;"/>
  </g>
  <g id="axes_1">
   <g id="patch_2">
    <path d="M 70.89375 286.2 
L 394.89375 286.2 
L 394.89375 7.2 
L 70.89375 7.2 
z
" style="fill:#ffffff;"/>
   </g>
   <g id="line2d_1">
    <path clip-path="url(#p8c6a781785)" d="M 105.074105 342.459375 
L 106.89375 337.244753 
L 110.166477 328.19809 
L 113.439205 319.47491 
L 116.711932 311.066587 
L 119.984659 302.964494 
L 123.257386 295.160005 
L 126.530114 287.644494 
L 129.802841 280.409335 
L 133.075568 273.445901 
L 136.348295 266.745567 
L 139.621023 260.299706 
L 142.89375 254.099691 
L 146.166477 248.136898 
L 149.439205 242.402698 
L 152.711932 236.888468 
L 155.984659 231.585579 
L 159.257386 226.485406 
L 162.530114 221.579322 
L 165.802841 216.858702 
L 169.075568 212.31492 
L 172.348295 207.939348 
L 175.621023 203.723361 
L 178.89375 199.658333 
L 182.166477 195.735638 
L 185.439205 191.946648 
L 188.711932 188.282739 
L 191.984659 184.735283 
L 195.257386 181.295655 
L 198.530114 177.955228 
L 201.802841 174.705376 
L 205.075568 171.537474 
L 208.348295 168.442894 
L 211.621023 165.41301 
L 214.89375 162.439198 
L 218.166477 159.512829 
L 221.439205 156.625278 
L 224.711932 153.767919 
L 227.984659 150.932125 
L 231.257386 148.109271 
L 234.530114 145.290729 
L 237.802841 142.467875 
L 241.075568 139.632081 
L 244.348295 136.774722 
L 247.621023 133.887171 
L 250.89375 130.960802 
L 254.166477 127.98699 
L 257.439205 124.957106 
L 260.711932 121.862526 
L 263.984659 118.694624 
L 267.257386 115.444772 
L 270.530114 112.104345 
L 273.802841 108.664717 
L 277.075568 105.117261 
L 280.348295 101.453352 
L 283.621023 97.664362 
L 286.89375 93.741667 
L 290.166477 89.676639 
L 293.439205 85.460652 
L 296.711932 81.08508 
L 299.984659 76.541298 
L 303.257386 71.820678 
L 306.530114 66.914594 
L 309.802841 61.814421 
L 313.075568 56.511532 
L 316.348295 50.997302 
L 319.621023 45.263102 
L 322.89375 39.300309 
L 326.166477 33.100294 
L 329.439205 26.654433 
L 332.711932 19.954099 
L 335.984659 12.990665 
L 339.257386 5.755506 
L 342.199159 -1 
" style="fill:none;stroke:#000000;stroke-linecap:square;stroke-width:4;"/>
   </g>
   <g id="matplotlib.axis_1">
    <g id="xtick_1">
     <g id="line2d_2">
      <path clip-path="url(#p8c6a781785)" d="M 103.29375 286.2 
L 103.29375 7.2 
" style="fill:none;stroke:#b0b0b0;stroke-linecap:square;stroke-width:0.8;"/>
     </g>
     <g id="line2d_3">
      <defs>
       <path d="M 0 0 
L 0 3.5 
" id="mab8cf3e374" style="stroke:#000000;stroke-width:0.8;"/>
      </defs>
      <g>
       <use style="stroke:#000000;stroke-width:0.8;" x="103.29375" xlink:href="#mab8cf3e374" y="286.2"/>
      </g>
     </g>
     <g id="text_1">
      <!-- −4 -->
      <defs>
       <path d="M 52.828125 31.203125 
L 5.5625 31.203125 
L 5.5625 39.40625 
L 52.828125 39.40625 
z
" id="ArialMT-8722"/>
       <path d="M 32.328125 0 
L 32.328125 17.140625 
L 1.265625 17.140625 
L 1.265625 25.203125 
L 33.9375 71.578125 
L 41.109375 71.578125 
L 41.109375 25.203125 
L 50.78125 25.203125 
L 50.78125 17.140625 
L 41.109375 17.140625 
L 41.109375 0 
z
M 32.328125 25.203125 
L 32.328125 57.46875 
L 9.90625 25.203125 
z
" id="ArialMT-52"/>
      </defs>
      <g transform="translate(91.892188 307.515625)scale(0.2 -0.2)">
       <use xlink:href="#ArialMT-8722"/>
       <use x="58.398438" xlink:href="#ArialMT-52"/>
      </g>
     </g>
    </g>
    <g id="xtick_2">
     <g id="line2d_4">
      <path clip-path="url(#p8c6a781785)" d="M 168.09375 286.2 
L 168.09375 7.2 
" style="fill:none;stroke:#b0b0b0;stroke-linecap:square;stroke-width:0.8;"/>
     </g>
     <g id="line2d_5">
      <g>
       <use style="stroke:#000000;stroke-width:0.8;" x="168.09375" xlink:href="#mab8cf3e374" y="286.2"/>
      </g>
     </g>
     <g id="text_2">
      <!-- −2 -->
      <defs>
       <path d="M 50.34375 8.453125 
L 50.34375 0 
L 3.03125 0 
Q 2.9375 3.171875 4.046875 6.109375 
Q 5.859375 10.9375 9.828125 15.625 
Q 13.8125 20.3125 21.34375 26.46875 
Q 33.015625 36.03125 37.109375 41.625 
Q 41.21875 47.21875 41.21875 52.203125 
Q 41.21875 57.421875 37.46875 61 
Q 33.734375 64.59375 27.734375 64.59375 
Q 21.390625 64.59375 17.578125 60.78125 
Q 13.765625 56.984375 13.71875 50.25 
L 4.6875 51.171875 
Q 5.609375 61.28125 11.65625 66.578125 
Q 17.71875 71.875 27.9375 71.875 
Q 38.234375 71.875 44.234375 66.15625 
Q 50.25 60.453125 50.25 52 
Q 50.25 47.703125 48.484375 43.546875 
Q 46.734375 39.40625 42.65625 34.8125 
Q 38.578125 30.21875 29.109375 22.21875 
Q 21.1875 15.578125 18.9375 13.203125 
Q 16.703125 10.84375 15.234375 8.453125 
z
" id="ArialMT-50"/>
      </defs>
      <g transform="translate(156.692187 307.515625)scale(0.2 -0.2)">
       <use xlink:href="#ArialMT-8722"/>
       <use x="58.398438" xlink:href="#ArialMT-50"/>
      </g>
     </g>
    </g>
    <g id="xtick_3">
     <g id="line2d_6">
      <path clip-path="url(#p8c6a781785)" d="M 232.89375 286.2 
L 232.89375 7.2 
" style="fill:none;stroke:#b0b0b0;stroke-linecap:square;stroke-width:0.8;"/>
     </g>
     <g id="line2d_7">
      <g>
       <use style="stroke:#000000;stroke-width:0.8;" x="232.89375" xlink:href="#mab8cf3e374" y="286.2"/>
      </g>
     </g>
     <g id="text_3">
      <!-- 0 -->
      <defs>
       <path d="M 4.15625 35.296875 
Q 4.15625 48 6.765625 55.734375 
Q 9.375 63.484375 14.515625 67.671875 
Q 19.671875 71.875 27.484375 71.875 
Q 33.25 71.875 37.59375 69.546875 
Q 41.9375 67.234375 44.765625 62.859375 
Q 47.609375 58.5 49.21875 52.21875 
Q 50.828125 45.953125 50.828125 35.296875 
Q 50.828125 22.703125 48.234375 14.96875 
Q 45.65625 7.234375 40.5 3 
Q 35.359375 -1.21875 27.484375 -1.21875 
Q 17.140625 -1.21875 11.234375 6.203125 
Q 4.15625 15.140625 4.15625 35.296875 
z
M 13.1875 35.296875 
Q 13.1875 17.671875 17.3125 11.828125 
Q 21.4375 6 27.484375 6 
Q 33.546875 6 37.671875 11.859375 
Q 41.796875 17.71875 41.796875 35.296875 
Q 41.796875 52.984375 37.671875 58.78125 
Q 33.546875 64.59375 27.390625 64.59375 
Q 21.34375 64.59375 17.71875 59.46875 
Q 13.1875 52.9375 13.1875 35.296875 
z
" id="ArialMT-48"/>
      </defs>
      <g transform="translate(227.332813 307.515625)scale(0.2 -0.2)">
       <use xlink:href="#ArialMT-48"/>
      </g>
     </g>
    </g>
    <g id="xtick_4">
     <g id="line2d_8">
      <path clip-path="url(#p8c6a781785)" d="M 297.69375 286.2 
L 297.69375 7.2 
" style="fill:none;stroke:#b0b0b0;stroke-linecap:square;stroke-width:0.8;"/>
     </g>
     <g id="line2d_9">
      <g>
       <use style="stroke:#000000;stroke-width:0.8;" x="297.69375" xlink:href="#mab8cf3e374" y="286.2"/>
      </g>
     </g>
     <g id="text_4">
      <!-- 2 -->
      <g transform="translate(292.132812 307.515625)scale(0.2 -0.2)">
       <use xlink:href="#ArialMT-50"/>
      </g>
     </g>
    </g>
    <g id="xtick_5">
     <g id="line2d_10">
      <path clip-path="url(#p8c6a781785)" d="M 362.49375 286.2 
L 362.49375 7.2 
" style="fill:none;stroke:#b0b0b0;stroke-linecap:square;stroke-width:0.8;"/>
     </g>
     <g id="line2d_11">
      <g>
       <use style="stroke:#000000;stroke-width:0.8;" x="362.49375" xlink:href="#mab8cf3e374" y="286.2"/>
      </g>
     </g>
     <g id="text_5">
      <!-- 4 -->
      <g transform="translate(356.932812 307.515625)scale(0.2 -0.2)">
       <use xlink:href="#ArialMT-52"/>
      </g>
     </g>
    </g>
    <g id="text_6">
     <!-- Tensão (V) -->
     <defs>
      <path d="M 25.921875 0 
L 25.921875 63.140625 
L 2.34375 63.140625 
L 2.34375 71.578125 
L 59.078125 71.578125 
L 59.078125 63.140625 
L 35.40625 63.140625 
L 35.40625 0 
z
" id="ArialMT-84"/>
      <path d="M 42.09375 16.703125 
L 51.171875 15.578125 
Q 49.03125 7.625 43.21875 3.21875 
Q 37.40625 -1.171875 28.375 -1.171875 
Q 17 -1.171875 10.328125 5.828125 
Q 3.65625 12.84375 3.65625 25.484375 
Q 3.65625 38.578125 10.390625 45.796875 
Q 17.140625 53.03125 27.875 53.03125 
Q 38.28125 53.03125 44.875 45.953125 
Q 51.46875 38.875 51.46875 26.03125 
Q 51.46875 25.25 51.421875 23.6875 
L 12.75 23.6875 
Q 13.234375 15.140625 17.578125 10.59375 
Q 21.921875 6.0625 28.421875 6.0625 
Q 33.25 6.0625 36.671875 8.59375 
Q 40.09375 11.140625 42.09375 16.703125 
z
M 13.234375 30.90625 
L 42.1875 30.90625 
Q 41.609375 37.453125 38.875 40.71875 
Q 34.671875 45.796875 27.984375 45.796875 
Q 21.921875 45.796875 17.796875 41.75 
Q 13.671875 37.703125 13.234375 30.90625 
z
" id="ArialMT-101"/>
      <path d="M 6.59375 0 
L 6.59375 51.859375 
L 14.5 51.859375 
L 14.5 44.484375 
Q 20.21875 53.03125 31 53.03125 
Q 35.6875 53.03125 39.625 51.34375 
Q 43.5625 49.65625 45.515625 46.921875 
Q 47.46875 44.1875 48.25 40.4375 
Q 48.734375 37.984375 48.734375 31.890625 
L 48.734375 0 
L 39.9375 0 
L 39.9375 31.546875 
Q 39.9375 36.921875 38.90625 39.578125 
Q 37.890625 42.234375 35.28125 43.8125 
Q 32.671875 45.40625 29.15625 45.40625 
Q 23.53125 45.40625 19.453125 41.84375 
Q 15.375 38.28125 15.375 28.328125 
L 15.375 0 
z
" id="ArialMT-110"/>
      <path d="M 3.078125 15.484375 
L 11.765625 16.84375 
Q 12.5 11.625 15.84375 8.84375 
Q 19.1875 6.0625 25.203125 6.0625 
Q 31.25 6.0625 34.171875 8.515625 
Q 37.109375 10.984375 37.109375 14.3125 
Q 37.109375 17.28125 34.515625 19 
Q 32.71875 20.171875 25.53125 21.96875 
Q 15.875 24.421875 12.140625 26.203125 
Q 8.40625 27.984375 6.46875 31.125 
Q 4.546875 34.28125 4.546875 38.09375 
Q 4.546875 41.546875 6.125 44.5 
Q 7.71875 47.46875 10.453125 49.421875 
Q 12.5 50.921875 16.03125 51.96875 
Q 19.578125 53.03125 23.640625 53.03125 
Q 29.734375 53.03125 34.34375 51.265625 
Q 38.96875 49.515625 41.15625 46.5 
Q 43.359375 43.5 44.1875 38.484375 
L 35.59375 37.3125 
Q 35.015625 41.3125 32.203125 43.546875 
Q 29.390625 45.796875 24.265625 45.796875 
Q 18.21875 45.796875 15.625 43.796875 
Q 13.03125 41.796875 13.03125 39.109375 
Q 13.03125 37.40625 14.109375 36.03125 
Q 15.1875 34.625 17.484375 33.6875 
Q 18.796875 33.203125 25.25 31.453125 
Q 34.578125 28.953125 38.25 27.359375 
Q 41.9375 25.78125 44.03125 22.75 
Q 46.140625 19.734375 46.140625 15.234375 
Q 46.140625 10.84375 43.578125 6.953125 
Q 41.015625 3.078125 36.171875 0.953125 
Q 31.34375 -1.171875 25.25 -1.171875 
Q 15.140625 -1.171875 9.84375 3.03125 
Q 4.546875 7.234375 3.078125 15.484375 
z
" id="ArialMT-115"/>
      <path d="M 40.4375 6.390625 
Q 35.546875 2.25 31.03125 0.53125 
Q 26.515625 -1.171875 21.34375 -1.171875 
Q 12.796875 -1.171875 8.203125 3 
Q 3.609375 7.171875 3.609375 13.671875 
Q 3.609375 17.484375 5.34375 20.625 
Q 7.078125 23.78125 9.890625 25.6875 
Q 12.703125 27.59375 16.21875 28.5625 
Q 18.796875 29.25 24.03125 29.890625 
Q 34.671875 31.15625 39.703125 32.90625 
Q 39.75 34.71875 39.75 35.203125 
Q 39.75 40.578125 37.25 42.78125 
Q 33.890625 45.75 27.25 45.75 
Q 21.046875 45.75 18.09375 43.578125 
Q 15.140625 41.40625 13.71875 35.890625 
L 5.125 37.0625 
Q 6.296875 42.578125 8.984375 45.96875 
Q 11.671875 49.359375 16.75 51.1875 
Q 21.828125 53.03125 28.515625 53.03125 
Q 35.15625 53.03125 39.296875 51.46875 
Q 43.453125 49.90625 45.40625 47.53125 
Q 47.359375 45.171875 48.140625 41.546875 
Q 48.578125 39.3125 48.578125 33.453125 
L 48.578125 21.734375 
Q 48.578125 9.46875 49.140625 6.21875 
Q 49.703125 2.984375 51.375 0 
L 42.1875 0 
Q 40.828125 2.734375 40.4375 6.390625 
z
M 39.703125 26.03125 
Q 34.90625 24.078125 25.34375 22.703125 
Q 19.921875 21.921875 17.671875 20.9375 
Q 15.4375 19.96875 14.203125 18.09375 
Q 12.984375 16.21875 12.984375 13.921875 
Q 12.984375 10.40625 15.640625 8.0625 
Q 18.3125 5.71875 23.4375 5.71875 
Q 28.515625 5.71875 32.46875 7.9375 
Q 36.421875 10.15625 38.28125 14.015625 
Q 39.703125 17 39.703125 22.796875 
z
M 11.21875 59.515625 
Q 11.171875 64.59375 14 67.625 
Q 16.78125 70.65625 21.125 70.65625 
Q 24.15625 70.65625 29.375 68.015625 
Q 32.265625 66.546875 33.96875 66.546875 
Q 35.53125 66.546875 36.359375 67.40625 
Q 37.1875 68.265625 37.53125 70.796875 
L 43.890625 70.796875 
Q 43.734375 65.234375 41.078125 62.453125 
Q 38.421875 59.671875 34.3125 59.671875 
Q 31.234375 59.671875 26.203125 62.40625 
Q 22.9375 64.15625 21.421875 64.15625 
Q 19.765625 64.15625 18.734375 62.984375 
Q 17.65625 61.8125 17.71875 59.515625 
z
" id="ArialMT-227"/>
      <path d="M 3.328125 25.921875 
Q 3.328125 40.328125 11.328125 47.265625 
Q 18.015625 53.03125 27.640625 53.03125 
Q 38.328125 53.03125 45.109375 46.015625 
Q 51.90625 39.015625 51.90625 26.65625 
Q 51.90625 16.65625 48.90625 10.90625 
Q 45.90625 5.171875 40.15625 2 
Q 34.421875 -1.171875 27.640625 -1.171875 
Q 16.75 -1.171875 10.03125 5.8125 
Q 3.328125 12.796875 3.328125 25.921875 
z
M 12.359375 25.921875 
Q 12.359375 15.96875 16.703125 11.015625 
Q 21.046875 6.0625 27.640625 6.0625 
Q 34.1875 6.0625 38.53125 11.03125 
Q 42.875 16.015625 42.875 26.21875 
Q 42.875 35.84375 38.5 40.796875 
Q 34.125 45.75 27.640625 45.75 
Q 21.046875 45.75 16.703125 40.8125 
Q 12.359375 35.890625 12.359375 25.921875 
z
" id="ArialMT-111"/>
      <path id="ArialMT-32"/>
      <path d="M 23.390625 -21.046875 
Q 16.109375 -11.859375 11.078125 0.4375 
Q 6.0625 12.75 6.0625 25.921875 
Q 6.0625 37.546875 9.8125 48.1875 
Q 14.203125 60.546875 23.390625 72.796875 
L 29.6875 72.796875 
Q 23.78125 62.640625 21.875 58.296875 
Q 18.890625 51.5625 17.1875 44.234375 
Q 15.09375 35.109375 15.09375 25.875 
Q 15.09375 2.390625 29.6875 -21.046875 
z
" id="ArialMT-40"/>
      <path d="M 28.171875 0 
L 0.4375 71.578125 
L 10.6875 71.578125 
L 29.296875 19.578125 
Q 31.546875 13.328125 33.0625 7.859375 
Q 34.71875 13.71875 36.921875 19.578125 
L 56.25 71.578125 
L 65.921875 71.578125 
L 37.890625 0 
z
" id="ArialMT-86"/>
      <path d="M 12.359375 -21.046875 
L 6.0625 -21.046875 
Q 20.65625 2.390625 20.65625 25.875 
Q 20.65625 35.0625 18.5625 44.09375 
Q 16.890625 51.421875 13.921875 58.15625 
Q 12.015625 62.546875 6.0625 72.796875 
L 12.359375 72.796875 
Q 21.53125 60.546875 25.921875 48.1875 
Q 29.6875 37.546875 29.6875 25.921875 
Q 29.6875 12.75 24.625 0.4375 
Q 19.578125 -11.859375 12.359375 -21.046875 
z
" id="ArialMT-41"/>
     </defs>
     <g transform="translate(184.546875 330.05)scale(0.2 -0.2)">
      <use xlink:href="#ArialMT-84"/>
      <use x="49.958984" xlink:href="#ArialMT-101"/>
      <use x="105.574219" xlink:href="#ArialMT-110"/>
      <use x="161.189453" xlink:href="#ArialMT-115"/>
      <use x="211.189453" xlink:href="#ArialMT-227"/>
      <use x="266.804688" xlink:href="#ArialMT-111"/>
      <use x="322.419922" xlink:href="#ArialMT-32"/>
      <use x="350.203125" xlink:href="#ArialMT-40"/>
      <use x="383.503906" xlink:href="#ArialMT-86"/>
      <use x="450.203125" xlink:href="#ArialMT-41"/>
     </g>
    </g>
   </g>
   <g id="matplotlib.axis_2">
    <g id="ytick_1">
     <g id="line2d_12">
      <path clip-path="url(#p8c6a781785)" d="M 70.89375 258.3 
L 394.89375 258.3 
" style="fill:none;stroke:#b0b0b0;stroke-linecap:square;stroke-width:0.8;"/>
     </g>
     <g id="line2d_13">
      <defs>
       <path d="M 0 0 
L -3.5 0 
" id="mda4d719711" style="stroke:#000000;stroke-width:0.8;"/>
      </defs>
      <g>
       <use style="stroke:#000000;stroke-width:0.8;" x="70.89375" xlink:href="#mda4d719711" y="258.3"/>
      </g>
     </g>
     <g id="text_7">
      <!-- −40 -->
      <g transform="translate(29.96875 265.457813)scale(0.2 -0.2)">
       <use xlink:href="#ArialMT-8722"/>
       <use x="58.398438" xlink:href="#ArialMT-52"/>
       <use x="114.013672" xlink:href="#ArialMT-48"/>
      </g>
     </g>
    </g>
    <g id="ytick_2">
     <g id="line2d_14">
      <path clip-path="url(#p8c6a781785)" d="M 70.89375 202.5 
L 394.89375 202.5 
" style="fill:none;stroke:#b0b0b0;stroke-linecap:square;stroke-width:0.8;"/>
     </g>
     <g id="line2d_15">
      <g>
       <use style="stroke:#000000;stroke-width:0.8;" x="70.89375" xlink:href="#mda4d719711" y="202.5"/>
      </g>
     </g>
     <g id="text_8">
      <!-- −20 -->
      <g transform="translate(29.96875 209.657813)scale(0.2 -0.2)">
       <use xlink:href="#ArialMT-8722"/>
       <use x="58.398438" xlink:href="#ArialMT-50"/>
       <use x="114.013672" xlink:href="#ArialMT-48"/>
      </g>
     </g>
    </g>
    <g id="ytick_3">
     <g id="line2d_16">
      <path clip-path="url(#p8c6a781785)" d="M 70.89375 146.7 
L 394.89375 146.7 
" style="fill:none;stroke:#b0b0b0;stroke-linecap:square;stroke-width:0.8;"/>
     </g>
     <g id="line2d_17">
      <g>
       <use style="stroke:#000000;stroke-width:0.8;" x="70.89375" xlink:href="#mda4d719711" y="146.7"/>
      </g>
     </g>
     <g id="text_9">
      <!-- 0 -->
      <g transform="translate(52.771875 153.857813)scale(0.2 -0.2)">
       <use xlink:href="#ArialMT-48"/>
      </g>
     </g>
    </g>
    <g id="ytick_4">
     <g id="line2d_18">
      <path clip-path="url(#p8c6a781785)" d="M 70.89375 90.9 
L 394.89375 90.9 
" style="fill:none;stroke:#b0b0b0;stroke-linecap:square;stroke-width:0.8;"/>
     </g>
     <g id="line2d_19">
      <g>
       <use style="stroke:#000000;stroke-width:0.8;" x="70.89375" xlink:href="#mda4d719711" y="90.9"/>
      </g>
     </g>
     <g id="text_10">
      <!-- 20 -->
      <g transform="translate(41.65 98.057813)scale(0.2 -0.2)">
       <use xlink:href="#ArialMT-50"/>
       <use x="55.615234" xlink:href="#ArialMT-48"/>
      </g>
     </g>
    </g>
    <g id="ytick_5">
     <g id="line2d_20">
      <path clip-path="url(#p8c6a781785)" d="M 70.89375 35.1 
L 394.89375 35.1 
" style="fill:none;stroke:#b0b0b0;stroke-linecap:square;stroke-width:0.8;"/>
     </g>
     <g id="line2d_21">
      <g>
       <use style="stroke:#000000;stroke-width:0.8;" x="70.89375" xlink:href="#mda4d719711" y="35.1"/>
      </g>
     </g>
     <g id="text_11">
      <!-- 40 -->
      <g transform="translate(41.65 42.257812)scale(0.2 -0.2)">
       <use xlink:href="#ArialMT-52"/>
       <use x="55.615234" xlink:href="#ArialMT-48"/>
      </g>
     </g>
    </g>
    <g id="text_12">
     <!-- Corrente (mA) -->
     <defs>
      <path d="M 58.796875 25.09375 
L 68.265625 22.703125 
Q 65.28125 11.03125 57.546875 4.90625 
Q 49.8125 -1.21875 38.625 -1.21875 
Q 27.046875 -1.21875 19.796875 3.484375 
Q 12.546875 8.203125 8.765625 17.140625 
Q 4.984375 26.078125 4.984375 36.328125 
Q 4.984375 47.515625 9.25 55.828125 
Q 13.53125 64.15625 21.40625 68.46875 
Q 29.296875 72.796875 38.765625 72.796875 
Q 49.515625 72.796875 56.828125 67.328125 
Q 64.15625 61.859375 67.046875 51.953125 
L 57.71875 49.75 
Q 55.21875 57.5625 50.484375 61.125 
Q 45.75 64.703125 38.578125 64.703125 
Q 30.328125 64.703125 24.78125 60.734375 
Q 19.234375 56.78125 16.984375 50.109375 
Q 14.75 43.453125 14.75 36.375 
Q 14.75 27.25 17.40625 20.4375 
Q 20.0625 13.625 25.671875 10.25 
Q 31.296875 6.890625 37.84375 6.890625 
Q 45.796875 6.890625 51.3125 11.46875 
Q 56.84375 16.0625 58.796875 25.09375 
z
" id="ArialMT-67"/>
      <path d="M 6.5 0 
L 6.5 51.859375 
L 14.40625 51.859375 
L 14.40625 44 
Q 17.4375 49.515625 20 51.265625 
Q 22.5625 53.03125 25.640625 53.03125 
Q 30.078125 53.03125 34.671875 50.203125 
L 31.640625 42.046875 
Q 28.421875 43.953125 25.203125 43.953125 
Q 22.3125 43.953125 20.015625 42.21875 
Q 17.71875 40.484375 16.75 37.40625 
Q 15.28125 32.71875 15.28125 27.15625 
L 15.28125 0 
z
" id="ArialMT-114"/>
      <path d="M 25.78125 7.859375 
L 27.046875 0.09375 
Q 23.34375 -0.6875 20.40625 -0.6875 
Q 15.625 -0.6875 12.984375 0.828125 
Q 10.359375 2.34375 9.28125 4.8125 
Q 8.203125 7.28125 8.203125 15.1875 
L 8.203125 45.015625 
L 1.765625 45.015625 
L 1.765625 51.859375 
L 8.203125 51.859375 
L 8.203125 64.703125 
L 16.9375 69.96875 
L 16.9375 51.859375 
L 25.78125 51.859375 
L 25.78125 45.015625 
L 16.9375 45.015625 
L 16.9375 14.703125 
Q 16.9375 10.9375 17.40625 9.859375 
Q 17.875 8.796875 18.921875 8.15625 
Q 19.96875 7.515625 21.921875 7.515625 
Q 23.390625 7.515625 25.78125 7.859375 
z
" id="ArialMT-116"/>
      <path d="M 6.59375 0 
L 6.59375 51.859375 
L 14.453125 51.859375 
L 14.453125 44.578125 
Q 16.890625 48.390625 20.9375 50.703125 
Q 25 53.03125 30.171875 53.03125 
Q 35.9375 53.03125 39.625 50.640625 
Q 43.3125 48.25 44.828125 43.953125 
Q 50.984375 53.03125 60.84375 53.03125 
Q 68.5625 53.03125 72.703125 48.75 
Q 76.859375 44.484375 76.859375 35.59375 
L 76.859375 0 
L 68.109375 0 
L 68.109375 32.671875 
Q 68.109375 37.9375 67.25 40.25 
Q 66.40625 42.578125 64.15625 43.984375 
Q 61.921875 45.40625 58.890625 45.40625 
Q 53.421875 45.40625 49.796875 41.765625 
Q 46.1875 38.140625 46.1875 30.125 
L 46.1875 0 
L 37.40625 0 
L 37.40625 33.6875 
Q 37.40625 39.546875 35.25 42.46875 
Q 33.109375 45.40625 28.21875 45.40625 
Q 24.515625 45.40625 21.359375 43.453125 
Q 18.21875 41.5 16.796875 37.734375 
Q 15.375 33.984375 15.375 26.90625 
L 15.375 0 
z
" id="ArialMT-109"/>
      <path d="M -0.140625 0 
L 27.34375 71.578125 
L 37.546875 71.578125 
L 66.84375 0 
L 56.0625 0 
L 47.703125 21.6875 
L 17.78125 21.6875 
L 9.90625 0 
z
M 20.515625 29.390625 
L 44.78125 29.390625 
L 37.3125 49.21875 
Q 33.890625 58.25 32.234375 64.0625 
Q 30.859375 57.171875 28.375 50.390625 
z
" id="ArialMT-65"/>
     </defs>
     <g transform="translate(21.759375 210.040625)rotate(-90)scale(0.2 -0.2)">
      <use xlink:href="#ArialMT-67"/>
      <use x="72.216797" xlink:href="#ArialMT-111"/>
      <use x="127.832031" xlink:href="#ArialMT-114"/>
      <use x="161.132812" xlink:href="#ArialMT-114"/>
      <use x="194.433594" xlink:href="#ArialMT-101"/>
      <use x="250.048828" xlink:href="#ArialMT-110"/>
      <use x="305.664062" xlink:href="#ArialMT-116"/>
      <use x="333.447266" xlink:href="#ArialMT-101"/>
      <use x="389.0625" xlink:href="#ArialMT-32"/>
      <use x="416.845703" xlink:href="#ArialMT-40"/>
      <use x="450.146484" xlink:href="#ArialMT-109"/>
      <use x="533.447266" xlink:href="#ArialMT-65"/>
      <use x="600.146484" xlink:href="#ArialMT-41"/>
     </g>
    </g>
   </g>
   <g id="line2d_22">
    <path clip-path="url(#p8c6a781785)" d="M 70.89375 286.2 
L 74.166477 283.381818 
L 77.439205 280.563636 
L 80.711932 277.745455 
L 83.984659 274.927273 
L 87.257386 272.109091 
L 90.530114 269.290909 
L 93.802841 266.472727 
L 97.075568 263.654545 
L 100.348295 260.836364 
L 103.621023 258.018182 
L 106.89375 255.2 
L 110.166477 252.381818 
L 113.439205 249.563636 
L 116.711932 246.745455 
L 119.984659 243.927273 
L 123.257386 241.109091 
L 126.530114 238.290909 
L 129.802841 235.472727 
L 133.075568 232.654545 
L 136.348295 229.836364 
L 139.621023 227.018182 
L 142.89375 224.2 
L 146.166477 221.381818 
L 149.439205 218.563636 
L 152.711932 215.745455 
L 155.984659 212.927273 
L 159.257386 210.109091 
L 162.530114 207.290909 
L 165.802841 204.472727 
L 169.075568 201.654545 
L 172.348295 198.836364 
L 175.621023 196.018182 
L 178.89375 193.2 
L 182.166477 190.381818 
L 185.439205 187.563636 
L 188.711932 184.745455 
L 191.984659 181.927273 
L 195.257386 179.109091 
L 198.530114 176.290909 
L 201.802841 173.472727 
L 205.075568 170.654545 
L 208.348295 167.836364 
L 211.621023 165.018182 
L 214.89375 162.2 
L 218.166477 159.381818 
L 221.439205 156.563636 
L 224.711932 153.745455 
L 227.984659 150.927273 
L 231.257386 148.109091 
L 234.530114 145.290909 
L 237.802841 142.472727 
L 241.075568 139.654545 
L 244.348295 136.836364 
L 247.621023 134.018182 
L 250.89375 131.2 
L 254.166477 128.381818 
L 257.439205 125.563636 
L 260.711932 122.745455 
L 263.984659 119.927273 
L 267.257386 117.109091 
L 270.530114 114.290909 
L 273.802841 111.472727 
L 277.075568 108.654545 
L 280.348295 105.836364 
L 283.621023 103.018182 
L 286.89375 100.2 
L 290.166477 97.381818 
L 293.439205 94.563636 
L 296.711932 91.745455 
L 299.984659 88.927273 
L 303.257386 86.109091 
L 306.530114 83.290909 
L 309.802841 80.472727 
L 313.075568 77.654545 
L 316.348295 74.836364 
L 319.621023 72.018182 
L 322.89375 69.2 
L 326.166477 66.381818 
L 329.439205 63.563636 
L 332.711932 60.745455 
L 335.984659 57.927273 
L 339.257386 55.109091 
L 342.530114 52.290909 
L 345.802841 49.472727 
L 349.075568 46.654545 
L 352.348295 43.836364 
L 355.621023 41.018182 
L 358.89375 38.2 
L 362.166477 35.381818 
L 365.439205 32.563636 
L 368.711932 29.745455 
L 371.984659 26.927273 
L 375.257386 24.109091 
L 378.530114 21.290909 
L 381.802841 18.472727 
L 385.075568 15.654545 
L 388.348295 12.836364 
L 391.621023 10.018182 
L 394.89375 7.2 
" style="fill:none;stroke:#808080;stroke-dasharray:14.8,6.4;stroke-dashoffset:0;stroke-width:4;"/>
   </g>
   <g id="line2d_23">
    <path clip-path="url(#p8c6a781785)" d="M 298.227218 342.459375 
L 292.171528 337.244753 
L 281.665726 328.19809 
L 271.535582 319.47491 
L 261.771077 311.066587 
L 252.362195 302.964494 
L 243.298917 295.160005 
L 234.571227 287.644494 
L 226.169107 280.409335 
L 218.082539 273.445901 
L 210.301505 266.745567 
L 202.815989 260.299706 
L 195.615972 254.099691 
L 188.691438 248.136898 
L 182.032368 242.402698 
L 175.628745 236.888468 
L 169.470551 231.585579 
L 163.54777 226.485406 
L 157.850382 221.579322 
L 152.368372 216.858702 
L 147.091721 212.31492 
L 142.010412 207.939348 
L 137.114428 203.723361 
L 132.39375 199.658333 
L 127.838361 195.735638 
L 123.438245 191.946648 
L 119.183382 188.282739 
L 115.063756 184.735283 
L 111.069349 181.295655 
L 107.190144 177.955228 
L 103.416122 174.705376 
L 99.737268 171.537474 
L 96.143562 168.442894 
L 92.624988 165.41301 
L 89.171528 162.439198 
L 85.773164 159.512829 
L 82.419879 156.625278 
L 79.101656 153.767919 
L 75.808476 150.932125 
L 72.530322 148.109271 
L 69.257178 145.290729 
L 65.979024 142.467875 
L 62.685844 139.632081 
L 59.367621 136.774722 
L 56.014336 133.887171 
L 52.615972 130.960802 
L 49.162512 127.98699 
L 45.643938 124.957106 
L 42.050232 121.862526 
L 38.371378 118.694624 
L 34.597356 115.444772 
L 30.718151 112.104345 
L 26.723744 108.664717 
L 22.604118 105.117261 
L 18.349255 101.453352 
L 13.949139 97.664362 
L 9.39375 93.741667 
L 4.673072 89.676639 
L -0.222912 85.460652 
L -1 84.791493 
" style="fill:none;stroke:#1f77b4;stroke-linecap:square;stroke-width:4;"/>
   </g>
   <g id="line2d_24">
    <path clip-path="url(#p8c6a781785)" d="M 379.227218 342.459375 
L 373.171528 337.244753 
L 362.665726 328.19809 
L 352.535582 319.47491 
L 342.771077 311.066587 
L 333.362195 302.964494 
L 324.298917 295.160005 
L 315.571227 287.644494 
L 307.169107 280.409335 
L 299.082539 273.445901 
L 291.301505 266.745567 
L 283.815989 260.299706 
L 276.615972 254.099691 
L 269.691438 248.136898 
L 263.032368 242.402698 
L 256.628745 236.888468 
L 250.470551 231.585579 
L 244.54777 226.485406 
L 238.850382 221.579322 
L 233.368372 216.858702 
L 228.091721 212.31492 
L 223.010412 207.939348 
L 218.114428 203.723361 
L 213.39375 199.658333 
L 208.838361 195.735638 
L 204.438245 191.946648 
L 200.183382 188.282739 
L 196.063756 184.735283 
L 192.069349 181.295655 
L 188.190144 177.955228 
L 184.416122 174.705376 
L 180.737268 171.537474 
L 177.143562 168.442894 
L 173.624988 165.41301 
L 170.171528 162.439198 
L 166.773164 159.512829 
L 163.419879 156.625278 
L 160.101656 153.767919 
L 156.808476 150.932125 
L 153.530322 148.109271 
L 150.257178 145.290729 
L 146.979024 142.467875 
L 143.685844 139.632081 
L 140.367621 136.774722 
L 137.014336 133.887171 
L 133.615972 130.960802 
L 130.162512 127.98699 
L 126.643938 124.957106 
L 123.050232 121.862526 
L 119.371378 118.694624 
L 115.597356 115.444772 
L 111.718151 112.104345 
L 107.723744 108.664717 
L 103.604118 105.117261 
L 99.349255 101.453352 
L 94.949139 97.664362 
L 90.39375 93.741667 
L 85.673072 89.676639 
L 80.777088 85.460652 
L 75.695779 81.08508 
L 70.419128 76.541298 
L 64.937118 71.820678 
L 59.23973 66.914594 
L 53.316949 61.814421 
L 47.158755 56.511532 
L 40.755132 50.997302 
L 34.096062 45.263102 
L 27.171528 39.300309 
L 19.971511 33.100294 
L 12.485995 26.654433 
L 4.704961 19.954099 
L -1 15.041493 
" style="fill:none;stroke:#ff7f0e;stroke-linecap:square;stroke-width:4;"/>
   </g>
   <g id="line2d_25">
    <path clip-path="url(#p8c6a781785)" d="M 460.227218 342.459375 
L 454.171528 337.244753 
L 443.665726 328.19809 
L 433.535582 319.47491 
L 423.771077 311.066587 
L 414.362195 302.964494 
L 405.298917 295.160005 
L 396.571227 287.644494 
L 388.169107 280.409335 
L 380.082539 273.445901 
L 372.301505 266.745567 
L 364.815989 260.299706 
L 357.615972 254.099691 
L 350.691438 248.136898 
L 344.032368 242.402698 
L 337.628745 236.888468 
L 331.470551 231.585579 
L 325.54777 226.485406 
L 319.850382 221.579322 
L 314.368372 216.858702 
L 309.091721 212.31492 
L 304.010412 207.939348 
L 299.114428 203.723361 
L 294.39375 199.658333 
L 289.838361 195.735638 
L 285.438245 191.946648 
L 281.183382 188.282739 
L 277.063756 184.735283 
L 273.069349 181.295655 
L 269.190144 177.955228 
L 265.416122 174.705376 
L 261.737268 171.537474 
L 258.143562 168.442894 
L 254.624988 165.41301 
L 251.171528 162.439198 
L 247.773164 159.512829 
L 244.419879 156.625278 
L 241.101656 153.767919 
L 237.808476 150.932125 
L 234.530322 148.109271 
L 231.257178 145.290729 
L 227.979024 142.467875 
L 224.685844 139.632081 
L 221.367621 136.774722 
L 218.014336 133.887171 
L 214.615972 130.960802 
L 211.162512 127.98699 
L 207.643938 124.957106 
L 204.050232 121.862526 
L 200.371378 118.694624 
L 196.597356 115.444772 
L 192.718151 112.104345 
L 188.723744 108.664717 
L 184.604118 105.117261 
L 180.349255 101.453352 
L 175.949139 97.664362 
L 171.39375 93.741667 
L 166.673072 89.676639 
L 161.777088 85.460652 
L 156.695779 81.08508 
L 151.419128 76.541298 
L 145.937118 71.820678 
L 140.23973 66.914594 
L 134.316949 61.814421 
L 128.158755 56.511532 
L 121.755132 50.997302 
L 115.096062 45.263102 
L 108.171528 39.300309 
L 100.971511 33.100294 
L 93.485995 26.654433 
L 85.704961 19.954099 
L 77.618393 12.990665 
L 69.216273 5.755506 
L 61.371169 -1 
" style="fill:none;stroke:#2ca02c;stroke-linecap:square;stroke-width:4;"/>
   </g>
   <g id="line2d_26">
    <path clip-path="url(#p8c6a781785)" d="M 541.227218 342.459375 
L 535.171528 337.244753 
L 524.665726 328.19809 
L 514.535582 319.47491 
L 504.771077 311.066587 
L 495.362195 302.964494 
L 486.298917 295.160005 
L 477.571227 287.644494 
L 469.169107 280.409335 
L 461.082539 273.445901 
L 453.301505 266.745567 
L 445.815989 260.299706 
L 438.615972 254.099691 
L 431.691438 248.136898 
L 425.032368 242.402698 
L 418.628745 236.888468 
L 412.470551 231.585579 
L 406.54777 226.485406 
L 400.850382 221.579322 
L 395.368372 216.858702 
L 390.091721 212.31492 
L 385.010412 207.939348 
L 380.114428 203.723361 
L 375.39375 199.658333 
L 370.838361 195.735638 
L 366.438245 191.946648 
L 362.183382 188.282739 
L 358.063756 184.735283 
L 354.069349 181.295655 
L 350.190144 177.955228 
L 346.416122 174.705376 
L 342.737268 171.537474 
L 339.143562 168.442894 
L 335.624988 165.41301 
L 332.171528 162.439198 
L 328.773164 159.512829 
L 325.419879 156.625278 
L 322.101656 153.767919 
L 318.808476 150.932125 
L 315.530322 148.109271 
L 312.257178 145.290729 
L 308.979024 142.467875 
L 305.685844 139.632081 
L 302.367621 136.774722 
L 299.014336 133.887171 
L 295.615972 130.960802 
L 292.162512 127.98699 
L 288.643938 124.957106 
L 285.050232 121.862526 
L 281.371378 118.694624 
L 277.597356 115.444772 
L 273.718151 112.104345 
L 269.723744 108.664717 
L 265.604118 105.117261 
L 261.349255 101.453352 
L 256.949139 97.664362 
L 252.39375 93.741667 
L 247.673072 89.676639 
L 242.777088 85.460652 
L 237.695779 81.08508 
L 232.419128 76.541298 
L 226.937118 71.820678 
L 221.23973 66.914594 
L 215.316949 61.814421 
L 209.158755 56.511532 
L 202.755132 50.997302 
L 196.096062 45.263102 
L 189.171528 39.300309 
L 181.971511 33.100294 
L 174.485995 26.654433 
L 166.704961 19.954099 
L 158.618393 12.990665 
L 150.216273 5.755506 
L 142.371169 -1 
" style="fill:none;stroke:#d62728;stroke-linecap:square;stroke-width:4;"/>
   </g>
   <g id="line2d_27">
    <path clip-path="url(#p8c6a781785)" d="M 575.89375 302.561111 
L 567.298917 295.160005 
L 558.571227 287.644494 
L 550.169107 280.409335 
L 542.082539 273.445901 
L 534.301505 266.745567 
L 526.815989 260.299706 
L 519.615972 254.099691 
L 512.691438 248.136898 
L 506.032368 242.402698 
L 499.628745 236.888468 
L 493.470551 231.585579 
L 487.54777 226.485406 
L 481.850382 221.579322 
L 476.368372 216.858702 
L 471.091721 212.31492 
L 466.010412 207.939348 
L 461.114428 203.723361 
L 456.39375 199.658333 
L 451.838361 195.735638 
L 447.438245 191.946648 
L 443.183382 188.282739 
L 439.063756 184.735283 
L 435.069349 181.295655 
L 431.190144 177.955228 
L 427.416122 174.705376 
L 423.737268 171.537474 
L 420.143562 168.442894 
L 416.624988 165.41301 
L 413.171528 162.439198 
L 409.773164 159.512829 
L 406.419879 156.625278 
L 403.101656 153.767919 
L 399.808476 150.932125 
L 396.530322 148.109271 
L 393.257178 145.290729 
L 389.979024 142.467875 
L 386.685844 139.632081 
L 383.367621 136.774722 
L 380.014336 133.887171 
L 376.615972 130.960802 
L 373.162512 127.98699 
L 369.643938 124.957106 
L 366.050232 121.862526 
L 362.371378 118.694624 
L 358.597356 115.444772 
L 354.718151 112.104345 
L 350.723744 108.664717 
L 346.604118 105.117261 
L 342.349255 101.453352 
L 337.949139 97.664362 
L 333.39375 93.741667 
L 328.673072 89.676639 
L 323.777088 85.460652 
L 318.695779 81.08508 
L 313.419128 76.541298 
L 307.937118 71.820678 
L 302.23973 66.914594 
L 296.316949 61.814421 
L 290.158755 56.511532 
L 283.755132 50.997302 
L 277.096062 45.263102 
L 270.171528 39.300309 
L 262.971511 33.100294 
L 255.485995 26.654433 
L 247.704961 19.954099 
L 239.618393 12.990665 
L 231.216273 5.755506 
L 223.371169 -1 
" style="fill:none;stroke:#9467bd;stroke-linecap:square;stroke-width:4;"/>
   </g>
   <g id="line2d_28">
    <path clip-path="url(#p8c6a781785)" d="M 232.89375 286.2 
L 232.89375 7.2 
" style="fill:none;stroke:#000000;stroke-linecap:square;stroke-width:1.5;"/>
   </g>
   <g id="line2d_29">
    <path clip-path="url(#p8c6a781785)" d="M 70.89375 146.7 
L 394.89375 146.7 
" style="fill:none;stroke:#000000;stroke-linecap:square;stroke-width:1.5;"/>
   </g>
   <g id="patch_3">
    <path d="M 70.89375 286.2 
L 70.89375 7.2 
" style="fill:none;stroke:#000000;stroke-linecap:square;stroke-linejoin:miter;stroke-width:0.8;"/>
   </g>
   <g id="patch_4">
    <path d="M 394.89375 286.2 
L 394.89375 7.2 
" style="fill:none;stroke:#000000;stroke-linecap:square;stroke-linejoin:miter;stroke-width:0.8;"/>
   </g>
   <g id="patch_5">
    <path d="M 70.89375 286.2 
L 394.89375 286.2 
" style="fill:none;stroke:#000000;stroke-linecap:square;stroke-linejoin:miter;stroke-width:0.8;"/>
   </g>
   <g id="patch_6">
    <path d="M 70.89375 7.2 
L 394.89375 7.2 
" style="fill:none;stroke:#000000;stroke-linecap:square;stroke-linejoin:miter;stroke-width:0.8;"/>
   </g>
   <g id="PathCollection_1">
    <defs>
     <path d="M 0 5 
C 1.326016 5 2.597899 4.473168 3.535534 3.535534 
C 4.473168 2.597899 5 1.326016 5 0 
C 5 -1.326016 4.473168 -2.597899 3.535534 -3.535534 
C 2.597899 -4.473168 1.326016 -5 0 -5 
C -1.326016 -5 -2.597899 -4.473168 -3.535534 -3.535534 
C -4.473168 -2.597899 -5 -1.326016 -5 0 
C -5 1.326016 -4.473168 2.597899 -3.535534 3.535534 
C -2.597899 4.473168 -1.326016 5 0 5 
z
" id="m1d0ee265ab" style="stroke:#ff0000;"/>
    </defs>
    <g clip-path="url(#p8c6a781785)">
     <use style="fill:#ff0000;stroke:#ff0000;" x="160.812694" xlink:href="#m1d0ee265ab" y="224.130201"/>
    </g>
   </g>
   <g id="PathCollection_2">
    <g clip-path="url(#p8c6a781785)">
     <use style="fill:#ff0000;stroke:#ff0000;" x="193.815004" xlink:href="#m1d0ee265ab" y="182.798858"/>
    </g>
   </g>
   <g id="PathCollection_3">
    <g clip-path="url(#p8c6a781785)">
     <use style="fill:#ff0000;stroke:#ff0000;" x="232.89375" xlink:href="#m1d0ee265ab" y="146.7"/>
    </g>
   </g>
   <g id="PathCollection_4">
    <g clip-path="url(#p8c6a781785)">
     <use style="fill:#ff0000;stroke:#ff0000;" x="271.972496" xlink:href="#m1d0ee265ab" y="110.601142"/>
    </g>
   </g>
   <g id="PathCollection_5">
    <g clip-path="url(#p8c6a781785)">
     <use style="fill:#ff0000;stroke:#ff0000;" x="304.974806" xlink:href="#m1d0ee265ab" y="69.269799"/>
    </g>
   </g>
   <g id="legend_1">
    <g id="patch_7">
     <path d="M 408.89375 254.345313 
L 563.69375 254.345313 
Q 567.69375 254.345313 567.69375 250.345313 
L 567.69375 43.054688 
Q 567.69375 39.054688 563.69375 39.054688 
L 408.89375 39.054688 
Q 404.89375 39.054688 404.89375 43.054688 
L 404.89375 250.345313 
Q 404.89375 254.345313 408.89375 254.345313 
z
" style="fill:#ffffff;opacity:0.8;stroke:#cccccc;stroke-linejoin:miter;"/>
    </g>
    <g id="line2d_30">
     <path d="M 412.89375 54.370313 
L 452.89375 54.370313 
" style="fill:none;stroke:#808080;stroke-dasharray:14.8,6.4;stroke-dashoffset:0;stroke-width:4;"/>
    </g>
    <g id="line2d_31"/>
    <g id="text_13">
     <!-- I=V/100 -->
     <defs>
      <path d="M 9.328125 0 
L 9.328125 71.578125 
L 18.796875 71.578125 
L 18.796875 0 
z
" id="ArialMT-73"/>
      <path d="M 52.828125 42.09375 
L 5.5625 42.09375 
L 5.5625 50.296875 
L 52.828125 50.296875 
z
M 52.828125 20.359375 
L 5.5625 20.359375 
L 5.5625 28.5625 
L 52.828125 28.5625 
z
" id="ArialMT-61"/>
      <path d="M 0 -1.21875 
L 20.75 72.796875 
L 27.78125 72.796875 
L 7.078125 -1.21875 
z
" id="ArialMT-47"/>
      <path d="M 37.25 0 
L 28.46875 0 
L 28.46875 56 
Q 25.296875 52.984375 20.140625 49.953125 
Q 14.984375 46.921875 10.890625 45.40625 
L 10.890625 53.90625 
Q 18.265625 57.375 23.78125 62.296875 
Q 29.296875 67.234375 31.59375 71.875 
L 37.25 71.875 
z
" id="ArialMT-49"/>
     </defs>
     <g transform="translate(468.89375 61.370313)scale(0.2 -0.2)">
      <use xlink:href="#ArialMT-73"/>
      <use x="27.783203" xlink:href="#ArialMT-61"/>
      <use x="86.181641" xlink:href="#ArialMT-86"/>
      <use x="152.880859" xlink:href="#ArialMT-47"/>
      <use x="180.664062" xlink:href="#ArialMT-49"/>
      <use x="236.279297" xlink:href="#ArialMT-48"/>
      <use x="291.894531" xlink:href="#ArialMT-48"/>
     </g>
    </g>
    <g id="line2d_32">
     <path d="M 412.89375 82.945312 
L 452.89375 82.945312 
" style="fill:none;stroke:#000000;stroke-linecap:square;stroke-width:4;"/>
    </g>
    <g id="line2d_33"/>
    <g id="text_14">
     <!-- $I(V)$ -->
     <g transform="translate(468.89375 89.945312)scale(0.2 -0.2)">
      <use transform="translate(0 0.203125)" xlink:href="#ArialMT-73"/>
      <use transform="translate(27.783203 0.203125)" xlink:href="#ArialMT-40"/>
      <use transform="translate(61.083984 0.203125)" xlink:href="#ArialMT-86"/>
      <use transform="translate(127.783203 0.203125)" xlink:href="#ArialMT-41"/>
     </g>
    </g>
    <g id="line2d_34">
     <path d="M 412.89375 111.745313 
L 452.89375 111.745313 
" style="fill:none;stroke:#1f77b4;stroke-linecap:square;stroke-width:4;"/>
    </g>
    <g id="line2d_35"/>
    <g id="text_15">
     <!-- $V_{in}$=-5 V -->
     <defs>
      <path d="M 6.640625 61.46875 
L 6.640625 71.578125 
L 15.4375 71.578125 
L 15.4375 61.46875 
z
M 6.640625 0 
L 6.640625 51.859375 
L 15.4375 51.859375 
L 15.4375 0 
z
" id="ArialMT-105"/>
      <path d="M 3.171875 21.484375 
L 3.171875 30.328125 
L 30.171875 30.328125 
L 30.171875 21.484375 
z
" id="ArialMT-45"/>
      <path d="M 4.15625 18.75 
L 13.375 19.53125 
Q 14.40625 12.796875 18.140625 9.390625 
Q 21.875 6 27.15625 6 
Q 33.5 6 37.890625 10.78125 
Q 42.28125 15.578125 42.28125 23.484375 
Q 42.28125 31 38.0625 35.34375 
Q 33.84375 39.703125 27 39.703125 
Q 22.75 39.703125 19.328125 37.765625 
Q 15.921875 35.84375 13.96875 32.765625 
L 5.71875 33.84375 
L 12.640625 70.609375 
L 48.25 70.609375 
L 48.25 62.203125 
L 19.671875 62.203125 
L 15.828125 42.96875 
Q 22.265625 47.46875 29.34375 47.46875 
Q 38.71875 47.46875 45.15625 40.96875 
Q 51.609375 34.46875 51.609375 24.265625 
Q 51.609375 14.546875 45.953125 7.46875 
Q 39.0625 -1.21875 27.15625 -1.21875 
Q 17.390625 -1.21875 11.203125 4.25 
Q 5.03125 9.71875 4.15625 18.75 
z
" id="ArialMT-53"/>
     </defs>
     <g transform="translate(468.89375 118.745313)scale(0.2 -0.2)">
      <use transform="translate(0 0.421875)" xlink:href="#ArialMT-86"/>
      <use transform="translate(68.441563 -29.446875)scale(0.7)" xlink:href="#ArialMT-105"/>
      <use transform="translate(83.99332 -29.446875)scale(0.7)" xlink:href="#ArialMT-110"/>
      <use transform="translate(127.902109 0.421875)" xlink:href="#ArialMT-61"/>
      <use transform="translate(186.300547 0.421875)" xlink:href="#ArialMT-45"/>
      <use transform="translate(219.601328 0.421875)" xlink:href="#ArialMT-53"/>
      <use transform="translate(275.216563 0.421875)" xlink:href="#ArialMT-32"/>
      <use transform="translate(302.999766 0.421875)" xlink:href="#ArialMT-86"/>
     </g>
    </g>
    <g id="line2d_36">
     <path d="M 412.89375 142.145313 
L 452.89375 142.145313 
" style="fill:none;stroke:#ff7f0e;stroke-linecap:square;stroke-width:4;"/>
    </g>
    <g id="line2d_37"/>
    <g id="text_16">
     <!-- $V_{in}$=-2.5 V -->
     <defs>
      <path d="M 9.078125 0 
L 9.078125 10.015625 
L 19.09375 10.015625 
L 19.09375 0 
z
" id="ArialMT-46"/>
     </defs>
     <g transform="translate(468.89375 149.145313)scale(0.2 -0.2)">
      <use transform="translate(0 0.125)" xlink:href="#ArialMT-86"/>
      <use transform="translate(68.441563 -29.74375)scale(0.7)" xlink:href="#ArialMT-105"/>
      <use transform="translate(83.99332 -29.74375)scale(0.7)" xlink:href="#ArialMT-110"/>
      <use transform="translate(127.902109 0.125)" xlink:href="#ArialMT-61"/>
      <use transform="translate(186.300547 0.125)" xlink:href="#ArialMT-45"/>
      <use transform="translate(219.601328 0.125)" xlink:href="#ArialMT-50"/>
      <use transform="translate(275.216563 0.125)" xlink:href="#ArialMT-46"/>
      <use transform="translate(302.999766 0.125)" xlink:href="#ArialMT-53"/>
      <use transform="translate(358.615 0.125)" xlink:href="#ArialMT-32"/>
      <use transform="translate(386.398203 0.125)" xlink:href="#ArialMT-86"/>
     </g>
    </g>
    <g id="line2d_38">
     <path d="M 412.89375 172.545313 
L 452.89375 172.545313 
" style="fill:none;stroke:#2ca02c;stroke-linecap:square;stroke-width:4;"/>
    </g>
    <g id="line2d_39"/>
    <g id="text_17">
     <!-- $V_{in}$= 0 V -->
     <g transform="translate(468.89375 179.545313)scale(0.2 -0.2)">
      <use transform="translate(0 0.125)" xlink:href="#ArialMT-86"/>
      <use transform="translate(68.441563 -29.74375)scale(0.7)" xlink:href="#ArialMT-105"/>
      <use transform="translate(83.99332 -29.74375)scale(0.7)" xlink:href="#ArialMT-110"/>
      <use transform="translate(127.902109 0.125)" xlink:href="#ArialMT-61"/>
      <use transform="translate(186.300547 0.125)" xlink:href="#ArialMT-32"/>
      <use transform="translate(214.08375 0.125)" xlink:href="#ArialMT-48"/>
      <use transform="translate(269.698984 0.125)" xlink:href="#ArialMT-32"/>
      <use transform="translate(297.482188 0.125)" xlink:href="#ArialMT-86"/>
     </g>
    </g>
    <g id="line2d_40">
     <path d="M 412.89375 202.945313 
L 452.89375 202.945313 
" style="fill:none;stroke:#d62728;stroke-linecap:square;stroke-width:4;"/>
    </g>
    <g id="line2d_41"/>
    <g id="text_18">
     <!-- $V_{in}$=2.5 V -->
     <g transform="translate(468.89375 209.945313)scale(0.2 -0.2)">
      <use transform="translate(0 0.125)" xlink:href="#ArialMT-86"/>
      <use transform="translate(68.441563 -29.74375)scale(0.7)" xlink:href="#ArialMT-105"/>
      <use transform="translate(83.99332 -29.74375)scale(0.7)" xlink:href="#ArialMT-110"/>
      <use transform="translate(127.902109 0.125)" xlink:href="#ArialMT-61"/>
      <use transform="translate(186.300547 0.125)" xlink:href="#ArialMT-50"/>
      <use transform="translate(241.915781 0.125)" xlink:href="#ArialMT-46"/>
      <use transform="translate(269.698984 0.125)" xlink:href="#ArialMT-53"/>
      <use transform="translate(325.314219 0.125)" xlink:href="#ArialMT-32"/>
      <use transform="translate(353.097422 0.125)" xlink:href="#ArialMT-86"/>
     </g>
    </g>
    <g id="line2d_42">
     <path d="M 412.89375 233.345313 
L 452.89375 233.345313 
" style="fill:none;stroke:#9467bd;stroke-linecap:square;stroke-width:4;"/>
    </g>
    <g id="line2d_43"/>
    <g id="text_19">
     <!-- $V_{in}$= 5 V -->
     <g transform="translate(468.89375 240.345313)scale(0.2 -0.2)">
      <use transform="translate(0 0.421875)" xlink:href="#ArialMT-86"/>
      <use transform="translate(68.441563 -29.446875)scale(0.7)" xlink:href="#ArialMT-105"/>
      <use transform="translate(83.99332 -29.446875)scale(0.7)" xlink:href="#ArialMT-110"/>
      <use transform="translate(127.902109 0.421875)" xlink:href="#ArialMT-61"/>
      <use transform="translate(186.300547 0.421875)" xlink:href="#ArialMT-32"/>
      <use transform="translate(214.08375 0.421875)" xlink:href="#ArialMT-53"/>
      <use transform="translate(269.698984 0.421875)" xlink:href="#ArialMT-32"/>
      <use transform="translate(297.482188 0.421875)" xlink:href="#ArialMT-86"/>
     </g>
    </g>
   </g>
  </g>
 </g>
 <defs>
  <clipPath id="p8c6a781785">
   <rect height="279" width="324" x="70.89375" y="7.2"/>
  </clipPath>
 </defs>
</svg>
