<?xml version="1.0" encoding="utf-8" standalone="no"?>
<!DOCTYPE svg PUBLIC "-//W3C//DTD SVG 1.1//EN"
  "http://www.w3.org/Graphics/SVG/1.1/DTD/svg11.dtd">
<!-- Created with matplotlib (https://matplotlib.org/) -->
<svg height="144.9257pt" version="1.1" viewBox="0 0 270.1615 144.9257" width="270.1615pt" xmlns="http://www.w3.org/2000/svg" xmlns:xlink="http://www.w3.org/1999/xlink">
 <metadata>
  <rdf:RDF xmlns:cc="http://creativecommons.org/ns#" xmlns:dc="http://purl.org/dc/elements/1.1/" xmlns:rdf="http://www.w3.org/1999/02/22-rdf-syntax-ns#">
   <cc:Work>
    <dc:type rdf:resource="http://purl.org/dc/dcmitype/StillImage"/>
    <dc:date>2021-04-03T18:05:26.117622</dc:date>
    <dc:format>image/svg+xml</dc:format>
    <dc:creator>
     <cc:Agent>
      <dc:title>Matplotlib v3.3.2, https://matplotlib.org/</dc:title>
     </cc:Agent>
    </dc:creator>
   </cc:Work>
  </rdf:RDF>
 </metadata>
 <defs>
  <style type="text/css">*{stroke-linecap:butt;stroke-linejoin:round;}</style>
 </defs>
 <g id="figure_1">
  <g id="patch_1">
   <path d="M 0 144.9257 
L 270.1615 144.9257 
L 270.1615 0 
L 0 0 
z
" style="fill:none;"/>
  </g>
  <g id="axes_1">
   <g id="line2d_1">
    <path clip-path="url(#p97a8a1f254)" d="M 52.24 109.895 
L 52.24 122.135 
L 44.14 122.135 
L 60.34 122.135 
M 46.57 125.807 
L 57.91 125.807 
M 50.62 129.479 
L 53.86 129.479 
" style="fill:none;stroke:#0000ff;stroke-linecap:round;stroke-width:1.5;"/>
   </g>
   <g id="line2d_2">
    <path clip-path="url(#p97a8a1f254)" d="M 52.24 109.895 
L 52.24 86.945 
L 52.24 86.945 
M 52.24 56.345 
L 52.24 56.345 
L 52.24 33.395 
" style="fill:none;stroke:#0000ff;stroke-linecap:round;stroke-width:1.5;"/>
   </g>
   <g id="line2d_3">
    <path clip-path="url(#p97a8a1f254)" d="M 60.34 71.645 
L 59.665 70.061027 
L 58.99 68.585 
L 58.315 67.317506 
L 57.64 66.344925 
L 56.965 65.733534 
L 56.29 65.525 
L 55.615 65.733534 
L 54.94 66.344925 
L 54.265 67.317506 
L 53.59 68.585 
L 52.915 70.061027 
L 52.24 71.645 
L 51.565 73.228973 
L 50.89 74.705 
L 50.215 75.972494 
L 49.54 76.945075 
L 48.865 77.556466 
L 48.19 77.765 
L 47.515 77.556466 
L 46.84 76.945075 
L 46.165 75.972494 
L 45.49 74.705 
L 44.815 73.228973 
L 44.14 71.645 
" style="fill:none;stroke:#0000ff;stroke-linecap:round;stroke-width:1.5;"/>
   </g>
   <g id="line2d_4">
    <path clip-path="url(#p97a8a1f254)" d="M 52.24 33.395 
L 76.54 33.395 
L 79.24 25.745 
L 84.64 41.045 
L 90.04 25.745 
L 95.44 41.045 
L 100.84 25.745 
L 106.24 41.045 
L 108.94 33.395 
L 133.24 33.395 
" style="fill:none;stroke:#0000ff;stroke-linecap:round;stroke-width:1.5;"/>
   </g>
   <g id="line2d_5">
    <path clip-path="url(#p97a8a1f254)" d="M 133.24 33.395 
" style="fill:none;stroke:#0000ff;stroke-linecap:round;stroke-width:1.5;"/>
   </g>
   <g id="line2d_6">
    <path clip-path="url(#p97a8a1f254)" d="M 133.24 33.395 
L 157.54 33.395 
L 160.24 25.745 
L 165.64 41.045 
L 171.04 25.745 
L 176.44 41.045 
L 181.84 25.745 
L 187.24 41.045 
L 189.94 33.395 
L 214.24 33.395 
" style="fill:none;stroke:#000000;stroke-linecap:round;stroke-width:1.5;"/>
   </g>
   <g id="line2d_7">
    <path clip-path="url(#p97a8a1f254)" d="M 214.24 33.395 
L 214.24 68.891 
M 222.34 68.891 
L 206.14 68.891 
M 222.34 74.399 
L 206.14 74.399 
M 214.24 74.399 
L 214.24 109.895 
" style="fill:none;stroke:#000000;stroke-linecap:round;stroke-width:1.5;"/>
   </g>
   <g id="line2d_8">
    <path clip-path="url(#p97a8a1f254)" d="M 214.24 109.895 
L 214.24 122.135 
L 206.14 122.135 
L 222.34 122.135 
M 208.57 125.807 
L 219.91 125.807 
M 212.62 129.479 
L 215.86 129.479 
" style="fill:none;stroke:#000000;stroke-linecap:round;stroke-width:1.5;"/>
   </g>
   <g id="line2d_9">
    <path clip-path="url(#p97a8a1f254)" d="M 214.24 33.395 
L 230.44 33.395 
L 246.64 33.395 
" style="fill:none;stroke:#000000;stroke-linecap:round;stroke-width:1.5;"/>
   </g>
   <g id="line2d_10">
    <path clip-path="url(#p97a8a1f254)" d="M 246.64 33.395 
" style="fill:none;stroke:#000000;stroke-linecap:round;stroke-width:1.5;"/>
   </g>
   <g id="patch_2">
    <path clip-path="url(#p97a8a1f254)" d="M 52.24 86.945 
C 56.53629 86.945 60.657194 85.332895 63.69513 82.463734 
C 66.733066 79.594572 68.44 75.702607 68.44 71.645 
C 68.44 67.587393 66.733066 63.695428 63.69513 60.826266 
C 60.657194 57.957105 56.53629 56.345 52.24 56.345 
C 47.94371 56.345 43.822806 57.957105 40.78487 60.826266 
C 37.746934 63.695428 36.04 67.587393 36.04 71.645 
C 36.04 75.702607 37.746934 79.594572 40.78487 82.463734 
C 43.822806 85.332895 47.94371 86.945 52.24 86.945 
z
" style="fill:none;stroke:#0000ff;stroke-linejoin:miter;stroke-width:1.5;"/>
   </g>
   <g id="patch_3">
    <path clip-path="url(#p97a8a1f254)" d="M 133.24 35.69 
C 133.884444 35.69 134.502579 35.448184 134.958269 35.01781 
C 135.41396 34.587436 135.67 34.003641 135.67 33.395 
C 135.67 32.786359 135.41396 32.202564 134.958269 31.77219 
C 134.502579 31.341816 133.884444 31.1 133.24 31.1 
C 132.595556 31.1 131.977421 31.341816 131.521731 31.77219 
C 131.06604 32.202564 130.81 32.786359 130.81 33.395 
C 130.81 34.003641 131.06604 34.587436 131.521731 35.01781 
C 131.977421 35.448184 132.595556 35.69 133.24 35.69 
z
" style="fill:#ffffff;stroke:#0000ff;stroke-linejoin:miter;stroke-width:1.5;"/>
   </g>
   <g id="patch_4">
    <path clip-path="url(#p97a8a1f254)" d="M 246.64 35.69 
C 247.284444 35.69 247.902579 35.448184 248.358269 35.01781 
C 248.81396 34.587436 249.07 34.003641 249.07 33.395 
C 249.07 32.786359 248.81396 32.202564 248.358269 31.77219 
C 247.902579 31.341816 247.284444 31.1 246.64 31.1 
C 245.995556 31.1 245.377421 31.341816 244.921731 31.77219 
C 244.46604 32.202564 244.21 32.786359 244.21 33.395 
C 244.21 34.003641 244.46604 34.587436 244.921731 35.01781 
C 245.377421 35.448184 245.995556 35.69 246.64 35.69 
z
" style="fill:#ffffff;stroke:#000000;stroke-linejoin:miter;stroke-width:1.5;"/>
   </g>
   <g id="text_1">
    <!-- $V_{Th}$ -->
    <g transform="translate(7.2 76.06)scale(0.16 -0.16)">
     <defs>
      <path d="M 28.609375 0 
L 0.78125 72.90625 
L 11.078125 72.90625 
L 34.1875 11.53125 
L 57.328125 72.90625 
L 67.578125 72.90625 
L 39.796875 0 
z
" id="DejaVuSans-86"/>
      <path d="M -0.296875 72.90625 
L 61.375 72.90625 
L 61.375 64.59375 
L 35.5 64.59375 
L 35.5 0 
L 25.59375 0 
L 25.59375 64.59375 
L -0.296875 64.59375 
z
" id="DejaVuSans-84"/>
      <path d="M 54.890625 33.015625 
L 54.890625 0 
L 45.90625 0 
L 45.90625 32.71875 
Q 45.90625 40.484375 42.875 44.328125 
Q 39.84375 48.1875 33.796875 48.1875 
Q 26.515625 48.1875 22.3125 43.546875 
Q 18.109375 38.921875 18.109375 30.90625 
L 18.109375 0 
L 9.078125 0 
L 9.078125 75.984375 
L 18.109375 75.984375 
L 18.109375 46.1875 
Q 21.34375 51.125 25.703125 53.5625 
Q 30.078125 56 35.796875 56 
Q 45.21875 56 50.046875 50.171875 
Q 54.890625 44.34375 54.890625 33.015625 
z
" id="DejaVuSans-104"/>
     </defs>
     <use transform="translate(0 0.09375)" xlink:href="#DejaVuSans-86"/>
     <use transform="translate(69.365234 -16.3125)scale(0.7)" xlink:href="#DejaVuSans-84"/>
     <use transform="translate(112.124023 -16.3125)scale(0.7)" xlink:href="#DejaVuSans-104"/>
    </g>
   </g>
   <g id="text_2">
    <!-- $R_{Th}$ -->
    <g transform="translate(79.86 19.3575)scale(0.16 -0.16)">
     <defs>
      <path d="M 44.390625 34.1875 
Q 47.5625 33.109375 50.5625 29.59375 
Q 53.5625 26.078125 56.59375 19.921875 
L 66.609375 0 
L 56 0 
L 46.6875 18.703125 
Q 43.0625 26.03125 39.671875 28.421875 
Q 36.28125 30.8125 30.421875 30.8125 
L 19.671875 30.8125 
L 19.671875 0 
L 9.8125 0 
L 9.8125 72.90625 
L 32.078125 72.90625 
Q 44.578125 72.90625 50.734375 67.671875 
Q 56.890625 62.453125 56.890625 51.90625 
Q 56.890625 45.015625 53.6875 40.46875 
Q 50.484375 35.9375 44.390625 34.1875 
z
M 19.671875 64.796875 
L 19.671875 38.921875 
L 32.078125 38.921875 
Q 39.203125 38.921875 42.84375 42.21875 
Q 46.484375 45.515625 46.484375 51.90625 
Q 46.484375 58.296875 42.84375 61.546875 
Q 39.203125 64.796875 32.078125 64.796875 
z
" id="DejaVuSans-82"/>
     </defs>
     <use transform="translate(0 0.09375)" xlink:href="#DejaVuSans-82"/>
     <use transform="translate(70.439453 -16.3125)scale(0.7)" xlink:href="#DejaVuSans-84"/>
     <use transform="translate(113.198242 -16.3125)scale(0.7)" xlink:href="#DejaVuSans-104"/>
    </g>
   </g>
   <g id="text_3">
    <!-- $R$ -->
    <g transform="translate(168.14 19.3575)scale(0.16 -0.16)">
     <use transform="translate(0 0.09375)" xlink:href="#DejaVuSans-82"/>
    </g>
   </g>
   <g id="text_4">
    <!-- $C$ -->
    <g transform="translate(191.7 76.06)scale(0.16 -0.16)">
     <defs>
      <path d="M 64.40625 67.28125 
L 64.40625 56.890625 
Q 59.421875 61.53125 53.78125 63.8125 
Q 48.140625 66.109375 41.796875 66.109375 
Q 29.296875 66.109375 22.65625 58.46875 
Q 16.015625 50.828125 16.015625 36.375 
Q 16.015625 21.96875 22.65625 14.328125 
Q 29.296875 6.6875 41.796875 6.6875 
Q 48.140625 6.6875 53.78125 8.984375 
Q 59.421875 11.28125 64.40625 15.921875 
L 64.40625 5.609375 
Q 59.234375 2.09375 53.4375 0.328125 
Q 47.65625 -1.421875 41.21875 -1.421875 
Q 24.65625 -1.421875 15.125 8.703125 
Q 5.609375 18.84375 5.609375 36.375 
Q 5.609375 53.953125 15.125 64.078125 
Q 24.65625 74.21875 41.21875 74.21875 
Q 47.75 74.21875 53.53125 72.484375 
Q 59.328125 70.75 64.40625 67.28125 
z
" id="DejaVuSans-67"/>
     </defs>
     <use transform="translate(0 0.78125)" xlink:href="#DejaVuSans-67"/>
    </g>
   </g>
  </g>
 </g>
 <defs>
  <clipPath id="p97a8a1f254">
   <rect height="120.2274" width="240.813" x="22.1485" y="17.4983"/>
  </clipPath>
 </defs>
</svg>
